<svg xmlns="http://www.w3.org/2000/svg" width="600" height="600" viewBox="0 0 600 600">
    <circle cx="26.90104210734812" cy="392.5807286551821" r="20" fill="#9c314" stroke="#9c314" /><circle cx="393.35754676285745" cy="248.0824550771044" r="20" fill="#36761a" stroke="#36761a" /><circle cx="470.3871983877796" cy="206.4311227096984" r="20" fill="#b6c0ef" stroke="#b6c0ef" /><circle cx="593.5133092621777" cy="316.60148877776004" r="20" fill="#d4fbc5" stroke="#d4fbc5" /><circle cx="163.1694537049213" cy="479.9229223930465" r="20" fill="#21daab" stroke="#21daab" /><circle cx="513.9971900774908" cy="545.1801162710887" r="20" fill="#3d2af1" stroke="#3d2af1" /><circle cx="278.0825766616515" cy="132.1051556981541" r="20" fill="#32b88b" stroke="#32b88b" /><circle cx="481.1634180854751" cy="512.4261469634491" r="20" fill="#cf7daa" stroke="#cf7daa" /><circle cx="82.54366435176972" cy="447.63061624784655" r="20" fill="#d0839" stroke="#d0839" /><circle cx="536.1097654101527" cy="368.3415878561993" r="20" fill="#ed0bc5" stroke="#ed0bc5" /><circle cx="126.34873623383842" cy="422.76139361904154" r="20" fill="#3a8906" stroke="#3a8906" /><circle cx="511.56918058367023" cy="94.82062322034967" r="20" fill="#13f40d" stroke="#13f40d" /><circle cx="168.7107423913504" cy="39.73314291973122" r="20" fill="#8f1d51" stroke="#8f1d51" /><circle cx="230.05125696045562" cy="50.90625056511375" r="20" fill="#4347ee" stroke="#4347ee" /><circle cx="587.2100085948407" cy="324.5102591594343" r="20" fill="#199fa8" stroke="#199fa8" /><circle cx="223.74866706465758" cy="463.522974889129" r="20" fill="#feb77b" stroke="#feb77b" /><circle cx="114.2691236750927" cy="251.29858430378752" r="20" fill="#2cede5" stroke="#2cede5" /><circle cx="367.4958763528733" cy="29.272248471623463" r="20" fill="#456fa1" stroke="#456fa1" /><circle cx="567.6010964636928" cy="413.29272916120783" r="20" fill="#7d0ef9" stroke="#7d0ef9" /><circle cx="120.44151186072946" cy="401.32718647833593" r="20" fill="#47f200" stroke="#47f200" /><circle cx="218.40097272776214" cy="149.5288155301065" r="20" fill="#10ff05" stroke="#10ff05" /><circle cx="189.40707795516428" cy="148.9465995584196" r="20" fill="#74b58b" stroke="#74b58b" /><circle cx="354.8724832515653" cy="477.37940431068057" r="20" fill="#c14712" stroke="#c14712" /><circle cx="52.27301669191844" cy="340.21808890261656" r="20" fill="#27b901" stroke="#27b901" /><circle cx="430.2658828422086" cy="57.96468901094593" r="20" fill="#78d181" stroke="#78d181" /><circle cx="68.99696341405956" cy="168.7794123517761" r="20" fill="#e6f11a" stroke="#e6f11a" /><circle cx="71.87973712966591" cy="200.65711439929456" r="20" fill="#f7941d" stroke="#f7941d" /><circle cx="213.36278288601304" cy="548.3528536617309" r="20" fill="#e05bf0" stroke="#e05bf0" /><circle cx="179.14048355307318" cy="374.2233270497081" r="20" fill="#b5aae9" stroke="#b5aae9" /><circle cx="297.70013122105377" cy="402.64872839601264" r="20" fill="#a041a5" stroke="#a041a5" /><circle cx="124.0642370723902" cy="180.40159923457475" r="20" fill="#1e3192" stroke="#1e3192" /><circle cx="368.1943784872063" cy="67.65292410020164" r="20" fill="#53713e" stroke="#53713e" /><circle cx="34.87383292790689" cy="427.2559617770661" r="20" fill="#a8bf53" stroke="#a8bf53" /><circle cx="493.79084425956694" cy="392.5391435505703" r="20" fill="#27dcfc" stroke="#27dcfc" /><circle cx="306.84608194952966" cy="492.82088429733943" r="20" fill="#43af3c" stroke="#43af3c" /><circle cx="469.933441588066" cy="155.05786980997905" r="20" fill="#5aabfd" stroke="#5aabfd" /><circle cx="30.664184261283545" cy="441.61144168700116" r="20" fill="#b33655" stroke="#b33655" /><circle cx="336.69703493467773" cy="222.92226106827204" r="20" fill="#995c4" stroke="#995c4" /><circle cx="292.40057667422576" cy="432.94266721685364" r="20" fill="#8e3aed" stroke="#8e3aed" /><circle cx="155.69500439734182" cy="296.6200337854976" r="20" fill="#a8540" stroke="#a8540" /><circle cx="408.2316044748043" cy="441.4833615025194" r="20" fill="#b0886e" stroke="#b0886e" /><circle cx="12.87025892198157" cy="200.6665770439572" r="20" fill="#33eb89" stroke="#33eb89" /><circle cx="360.8462384042698" cy="422.5026889413926" r="20" fill="#ff95f0" stroke="#ff95f0" /><circle cx="29.96930937990525" cy="279.40821831285547" r="20" fill="#30fd57" stroke="#30fd57" /><circle cx="276.8433309583653" cy="593.7883445725881" r="20" fill="#c11c64" stroke="#c11c64" /><circle cx="99.95542954231986" cy="472.622356643721" r="20" fill="#f7cb74" stroke="#f7cb74" /><circle cx="590.4232523701116" cy="528.1439919030845" r="20" fill="#e6fe63" stroke="#e6fe63" /><circle cx="159.00831510713945" cy="379.9687817685313" r="20" fill="#8599cc" stroke="#8599cc" /><circle cx="409.81719502820306" cy="405.9287994166494" r="20" fill="#134832" stroke="#134832" /><circle cx="571.4842981645734" cy="179.86680724287157" r="20" fill="#72a3e2" stroke="#72a3e2" /><circle cx="581.7345240374641" cy="185.1905898205839" r="20" fill="#a4171b" stroke="#a4171b" /><circle cx="488.41534720745693" cy="352.48077732954016" r="20" fill="#aa24f0" stroke="#aa24f0" /><circle cx="85.54493974923356" cy="595.7387405533728" r="20" fill="#cd36bb" stroke="#cd36bb" /><circle cx="476.8663793475876" cy="518.9280760619893" r="20" fill="#3b5cf" stroke="#3b5cf" /><circle cx="515.3458263046476" cy="566.038801815086" r="20" fill="#e271c9" stroke="#e271c9" /><circle cx="355.9331501632259" cy="594.1738979985187" r="20" fill="#aa616e" stroke="#aa616e" /><circle cx="294.02704676818286" cy="401.1650838058418" r="20" fill="#6ce09f" stroke="#6ce09f" /><circle cx="459.2602590251908" cy="156.4318195242694" r="20" fill="#256ba3" stroke="#256ba3" /><circle cx="434.0741593583305" cy="575.6366575546924" r="20" fill="#8c6457" stroke="#8c6457" /><circle cx="62.79004760334095" cy="161.88900140043452" r="20" fill="#8ead60" stroke="#8ead60" /><circle cx="559.7889556152456" cy="331.52911872255754" r="20" fill="#562d5a" stroke="#562d5a" /><circle cx="513.1749042102489" cy="338.2468844380947" r="20" fill="#1678ac" stroke="#1678ac" /><circle cx="275.0634869328512" cy="349.6975190818472" r="20" fill="#f2745" stroke="#f2745" /><circle cx="428.1188544665193" cy="528.2007040551395" r="20" fill="#e82f7e" stroke="#e82f7e" /><circle cx="225.89449463311286" cy="351.6236683172496" r="20" fill="#55f004" stroke="#55f004" /><circle cx="389.3854459622653" cy="166.79719093877145" r="20" fill="#1f515b" stroke="#1f515b" /><circle cx="366.9062872752709" cy="148.9172928775006" r="20" fill="#b59981" stroke="#b59981" /><circle cx="481.7574184248708" cy="4.704747618535388" r="20" fill="#6d98e" stroke="#6d98e" /><circle cx="583.3180675522809" cy="318.12394962167343" r="20" fill="#67301f" stroke="#67301f" /><circle cx="282.0898081415809" cy="247.63601382663492" r="20" fill="#9e05dd" stroke="#9e05dd" /><circle cx="486.1638273985609" cy="392.0631915351374" r="20" fill="#15c6c8" stroke="#15c6c8" /><circle cx="457.63806679942286" cy="354.5579083332815" r="20" fill="#46ab52" stroke="#46ab52" /><circle cx="530.0237313408478" cy="538.6473029928459" r="20" fill="#1c006f" stroke="#1c006f" /><circle cx="9.520762354995815" cy="336.13605522747457" r="20" fill="#c71b0e" stroke="#c71b0e" /><circle cx="227.1088749652814" cy="360.20587801977746" r="20" fill="#9c86ad" stroke="#9c86ad" /><circle cx="56.28217702520444" cy="80.25866657925013" r="20" fill="#91ac22" stroke="#91ac22" /><circle cx="253.29250736000137" cy="286.9426948667203" r="20" fill="#9a02a6" stroke="#9a02a6" /><circle cx="219.69157450083264" cy="507.07877668989715" r="20" fill="#278116" stroke="#278116" /><circle cx="382.9218152578248" cy="545.4700634852547" r="20" fill="#7f7b0d" stroke="#7f7b0d" /><circle cx="420.42358367311044" cy="97.16013718727336" r="20" fill="#ddf776" stroke="#ddf776" /><circle cx="544.4425012425248" cy="105.7412412303663" r="20" fill="#f244c8" stroke="#f244c8" /><circle cx="36.79598464990499" cy="582.5563519081469" r="20" fill="#1ac405" stroke="#1ac405" /><circle cx="401.2728624844685" cy="298.6699390413322" r="20" fill="#62b424" stroke="#62b424" /><circle cx="32.800308229617684" cy="98.75106945288117" r="20" fill="#e1ed79" stroke="#e1ed79" /><circle cx="272.2924117353327" cy="210.1843727312362" r="20" fill="#84ca90" stroke="#84ca90" /><circle cx="2.059628115726664" cy="213.2292862488978" r="20" fill="#2b8bd2" stroke="#2b8bd2" /><circle cx="133.60971921799103" cy="542.0362452471817" r="20" fill="#4dee18" stroke="#4dee18" /><circle cx="312.23580080898614" cy="593.7744517993386" r="20" fill="#e6af8" stroke="#e6af8" /><circle cx="188.39363966096207" cy="243.94767471289938" r="20" fill="#5607db" stroke="#5607db" /><circle cx="208.27094356914233" cy="15.434797123601252" r="20" fill="#e70761" stroke="#e70761" /><circle cx="27.78675759124245" cy="125.79793353658815" r="20" fill="#196f2a" stroke="#196f2a" /><circle cx="434.437930081921" cy="78.1356164607578" r="20" fill="#70cada" stroke="#70cada" /><circle cx="495.6248559614338" cy="352.6960504635081" r="20" fill="#308a6f" stroke="#308a6f" /><circle cx="269.28691865935497" cy="21.355418291536353" r="20" fill="#f471f" stroke="#f471f" /><circle cx="490.7267283252939" cy="10.697657940175143" r="20" fill="#eedca3" stroke="#eedca3" /><circle cx="409.84701886769096" cy="390.21613708697447" r="20" fill="#1e5523" stroke="#1e5523" /><circle cx="51.038150572609275" cy="110.27514612916912" r="20" fill="#addc99" stroke="#addc99" /><circle cx="537.7186993783837" cy="195.96325882477564" r="20" fill="#63ef54" stroke="#63ef54" /><circle cx="488.53512518367194" cy="477.74376876563196" r="20" fill="#9332c" stroke="#9332c" /><circle cx="450.66362472517886" cy="300.05627989822403" r="20" fill="#67c9a2" stroke="#67c9a2" /><circle cx="388.86772267788126" cy="268.66036584473864" r="20" fill="#563c98" stroke="#563c98" /><circle cx="426.5760371464088" cy="157.7425167965398" r="20" fill="#e44ecd" stroke="#e44ecd" /><circle cx="325.97880590150544" cy="31.074912461476245" r="20" fill="#c43f19" stroke="#c43f19" /><circle cx="273.2771192869651" cy="293.29428716015514" r="20" fill="#f05e6c" stroke="#f05e6c" /><circle cx="582.052198139233" cy="75.496665832156" r="20" fill="#2a95a" stroke="#2a95a" /><circle cx="78.39307362997036" cy="35.51977367081016" r="20" fill="#a1c9e0" stroke="#a1c9e0" /><circle cx="434.69226031245324" cy="375.98467287390025" r="20" fill="#dd1f30" stroke="#dd1f30" /><circle cx="449.28678521751874" cy="167.9306837841362" r="20" fill="#d84563" stroke="#d84563" /><circle cx="213.44584582343353" cy="414.08580061656306" r="20" fill="#c80bef" stroke="#c80bef" /><circle cx="217.3878608680504" cy="143.2582519554395" r="20" fill="#97b119" stroke="#97b119" /><circle cx="252.62680172912007" cy="202.6801614949139" r="20" fill="#192066" stroke="#192066" /><circle cx="132.28054407334832" cy="6.2742363954812586" r="20" fill="#9f7542" stroke="#9f7542" /><circle cx="185.77538210759292" cy="114.5482471506932" r="20" fill="#adbe2b" stroke="#adbe2b" /><circle cx="506.0723435590924" cy="461.3166061477818" r="20" fill="#b8eab1" stroke="#b8eab1" /><circle cx="252.910146908039" cy="65.65379062763262" r="20" fill="#683a2c" stroke="#683a2c" /><circle cx="185.85453261767037" cy="498.3041699060419" r="20" fill="#b7cb69" stroke="#b7cb69" /><circle cx="211.1988961729965" cy="560.1339385932934" r="20" fill="#9bde45" stroke="#9bde45" /><circle cx="108.92872602373798" cy="337.08003538491624" r="20" fill="#24814b" stroke="#24814b" /><circle cx="204.9226759392949" cy="69.26080185969288" r="20" fill="#cb3dda" stroke="#cb3dda" /><circle cx="164.3482220826402" cy="493.65137600038406" r="20" fill="#f33c77" stroke="#f33c77" /><circle cx="500.96623732067087" cy="189.27749569360248" r="20" fill="#f52b3d" stroke="#f52b3d" /><circle cx="582.7260326981609" cy="206.85524144595493" r="20" fill="#badf5b" stroke="#badf5b" /><circle cx="15.355213817724334" cy="81.63322538484401" r="20" fill="#b092c2" stroke="#b092c2" /><circle cx="381.8894086034325" cy="316.0021755960297" r="20" fill="#bc7367" stroke="#bc7367" /><circle cx="520.1770228831483" cy="443.1080160399747" r="20" fill="#dac66" stroke="#dac66" /><circle cx="477.5785594141678" cy="497.54212778254663" r="20" fill="#571136" stroke="#571136" /><circle cx="363.37263814956214" cy="176.09940625946106" r="20" fill="#1a2377" stroke="#1a2377" /><circle cx="398.01871183859896" cy="576.3263270282413" r="20" fill="#c52438" stroke="#c52438" /><circle cx="338.2895488784325" cy="221.97093095691517" r="20" fill="#c06140" stroke="#c06140" /><circle cx="544.4245433463373" cy="413.92876674828864" r="20" fill="#93064d" stroke="#93064d" /><circle cx="492.7212631666728" cy="445.0031965702729" r="20" fill="#b07627" stroke="#b07627" /><circle cx="445.11662495809406" cy="552.3033225585807" r="20" fill="#f1db4d" stroke="#f1db4d" /><circle cx="95.24919355876006" cy="263.6752257162323" r="20" fill="#51e968" stroke="#51e968" /><circle cx="407.1648632321814" cy="336.1662180893421" r="20" fill="#7f4dc1" stroke="#7f4dc1" /><circle cx="523.338373602152" cy="251.10708881150637" r="20" fill="#a838e8" stroke="#a838e8" /><circle cx="256.09079051809096" cy="174.77563141334576" r="20" fill="#96a011" stroke="#96a011" /><circle cx="17.648744119214356" cy="424.83761890429537" r="20" fill="#baa9b2" stroke="#baa9b2" /><circle cx="58.522834700981896" cy="370.1307482178451" r="20" fill="#8579ae" stroke="#8579ae" /><circle cx="157.01002535302763" cy="383.2455764792071" r="20" fill="#1ea893" stroke="#1ea893" /><circle cx="303.6173619486879" cy="171.788103330845" r="20" fill="#6e2d0d" stroke="#6e2d0d" /><circle cx="175.97108606528224" cy="57.244154435159444" r="20" fill="#7bfe79" stroke="#7bfe79" /><circle cx="571.6220756075024" cy="191.3495397338719" r="20" fill="#29c526" stroke="#29c526" /><circle cx="121.98160999541527" cy="3.2275076425293037" r="20" fill="#3c58b" stroke="#3c58b" /><circle cx="332.2370966863195" cy="353.5978172698712" r="20" fill="#474644" stroke="#474644" /><circle cx="457.46261359884295" cy="135.06550598857564" r="20" fill="#3e6351" stroke="#3e6351" /><circle cx="530.6634602488823" cy="272.1409428434484" r="20" fill="#5311b6" stroke="#5311b6" /><circle cx="383.83287954717645" cy="203.3833602682467" r="20" fill="#c48672" stroke="#c48672" /><circle cx="137.6511076574135" cy="193.13328094140573" r="20" fill="#6db936" stroke="#6db936" /><circle cx="200.7765634756084" cy="265.4622201224077" r="20" fill="#7cb2cd" stroke="#7cb2cd" /><circle cx="544.3213547879786" cy="330.0896564522713" r="20" fill="#7e064d" stroke="#7e064d" /><circle cx="503.72117083685526" cy="144.79412477138203" r="20" fill="#ea998" stroke="#ea998" /><circle cx="534.8397934318308" cy="225.87857824574263" r="20" fill="#d69032" stroke="#d69032" /><circle cx="432.80066264133956" cy="219.7240649239884" r="20" fill="#48dedf" stroke="#48dedf" /><circle cx="367.0664910492995" cy="253.06009502276564" r="20" fill="#853914" stroke="#853914" /><circle cx="599.4933624283157" cy="576.4124444725272" r="20" fill="#fc0625" stroke="#fc0625" /><circle cx="420.41552266553407" cy="266.38637196397406" r="20" fill="#b2b9bc" stroke="#b2b9bc" /><circle cx="353.3094773995825" cy="38.078285521577904" r="20" fill="#87d991" stroke="#87d991" /><circle cx="224.68207275049795" cy="355.03258449033865" r="20" fill="#822969" stroke="#822969" /><circle cx="222.56269387626898" cy="471.99178001783275" r="20" fill="#f6bdcc" stroke="#f6bdcc" /><circle cx="243.58082149069196" cy="233.18809013885274" r="20" fill="#f44405" stroke="#f44405" /><circle cx="68.38728006025482" cy="74.61962340074679" r="20" fill="#f5400c" stroke="#f5400c" /><circle cx="136.04814003502676" cy="342.15040637434254" r="20" fill="#3c7ffa" stroke="#3c7ffa" /><circle cx="253.82989996606028" cy="214.44605909896066" r="20" fill="#c90723" stroke="#c90723" /><circle cx="291.7818246227782" cy="574.0824367789918" r="20" fill="#51a262" stroke="#51a262" /><circle cx="416.80321912857164" cy="291.18560234187714" r="20" fill="#c7e05a" stroke="#c7e05a" /><circle cx="157.91335696763147" cy="221.38467880379307" r="20" fill="#11c10a" stroke="#11c10a" /><circle cx="65.49890152588485" cy="221.73319729967997" r="20" fill="#793154" stroke="#793154" /><circle cx="223.22181827980413" cy="321.9755396366693" r="20" fill="#8b3e0" stroke="#8b3e0" /><circle cx="66.62901245761591" cy="526.9552203228551" r="20" fill="#890f9b" stroke="#890f9b" /><circle cx="575.724909386841" cy="29.53601615062076" r="20" fill="#7a671b" stroke="#7a671b" /><circle cx="281.7072548579985" cy="283.44334394603004" r="20" fill="#2600cd" stroke="#2600cd" /><circle cx="417.19063584257003" cy="233.53324515961228" r="20" fill="#30479" stroke="#30479" /><circle cx="239.16227937461602" cy="77.16367107358568" r="20" fill="#aff765" stroke="#aff765" /><circle cx="172.92931471983505" cy="87.71552322427154" r="20" fill="#7bcf36" stroke="#7bcf36" /><circle cx="362.09399723264596" cy="458.3866656458919" r="20" fill="#c738e5" stroke="#c738e5" /><circle cx="379.2190808426425" cy="45.66269399213554" r="20" fill="#4e9d50" stroke="#4e9d50" /><circle cx="93.73332681552013" cy="584.2612477909677" r="20" fill="#1e09d4" stroke="#1e09d4" /><circle cx="23.037077656172535" cy="161.07940209716233" r="20" fill="#8c30be" stroke="#8c30be" /><circle cx="0.332664037235908" cy="271.8191556427306" r="20" fill="#495093" stroke="#495093" /><circle cx="276.52666898565616" cy="282.23812546945516" r="20" fill="#fc7fc6" stroke="#fc7fc6" /><circle cx="194.0253119995274" cy="287.4728398621076" r="20" fill="#45a5a7" stroke="#45a5a7" /><circle cx="349.71856496352115" cy="504.73671447207533" r="20" fill="#35be8" stroke="#35be8" /><circle cx="207.79041706728148" cy="172.7099170424614" r="20" fill="#9d4d1a" stroke="#9d4d1a" /><circle cx="290.88396382995194" cy="288.0312278460069" r="20" fill="#742136" stroke="#742136" /><circle cx="415.686322581119" cy="227.2125566331169" r="20" fill="#258b21" stroke="#258b21" /><circle cx="331.3759397569332" cy="303.1168352876659" r="20" fill="#5e07b5" stroke="#5e07b5" /><circle cx="35.982035277160975" cy="253.92271526013607" r="20" fill="#5fc2a" stroke="#5fc2a" /><circle cx="540.3593958550525" cy="51.64630631197347" r="20" fill="#419b65" stroke="#419b65" /><circle cx="204.40819570456608" cy="570.9638857645432" r="20" fill="#b451fb" stroke="#b451fb" /><circle cx="74.30098285788142" cy="385.46043315567005" r="20" fill="#153591" stroke="#153591" /><circle cx="543.2047619621254" cy="99.31707083407204" r="20" fill="#87d65b" stroke="#87d65b" /><circle cx="18.020966853013665" cy="21.88530912024622" r="20" fill="#cfe59e" stroke="#cfe59e" /><circle cx="160.69004959564955" cy="33.14825392089471" r="20" fill="#3891b" stroke="#3891b" /><circle cx="221.16342164824542" cy="365.1485718574941" r="20" fill="#b5daa6" stroke="#b5daa6" /><circle cx="132.8048260296442" cy="412.8433370976318" r="20" fill="#ca4bb0" stroke="#ca4bb0" /><circle cx="381.71089044851504" cy="53.0965252199314" r="20" fill="#492299" stroke="#492299" /><circle cx="157.0299681421127" cy="125.26826235005753" r="20" fill="#4f81fc" stroke="#4f81fc" /><circle cx="555.6702492952561" cy="49.30945229394226" r="20" fill="#78270e" stroke="#78270e" /><circle cx="430.27053702767097" cy="112.33587803172038" r="20" fill="#f23be2" stroke="#f23be2" /><circle cx="534.344895166543" cy="13.604518408213151" r="20" fill="#32c69f" stroke="#32c69f" /><circle cx="599.070000580473" cy="296.4720835224125" r="20" fill="#5b08c9" stroke="#5b08c9" /><circle cx="533.5444627894925" cy="438.92594602574525" r="20" fill="#a6eb3f" stroke="#a6eb3f" /><circle cx="496.80378921607723" cy="405.45858279063356" r="20" fill="#fbd420" stroke="#fbd420" /><circle cx="368.3600803865407" cy="205.2474820714952" r="20" fill="#7e5666" stroke="#7e5666" /><circle cx="159.32936655617723" cy="168.14828269531162" r="20" fill="#9d4b51" stroke="#9d4b51" /><circle cx="244.80540238041243" cy="482.1629393684788" r="20" fill="#1b3af7" stroke="#1b3af7" /><circle cx="155.29126100290026" cy="49.44364736770987" r="20" fill="#c28dab" stroke="#c28dab" /><circle cx="549.2837865154272" cy="26.641777005796243" r="20" fill="#e919f8" stroke="#e919f8" /><circle cx="460.83524229704386" cy="133.04525533947427" r="20" fill="#13967c" stroke="#13967c" /><circle cx="11.82448783688721" cy="392.4120262463517" r="20" fill="#937edc" stroke="#937edc" /><circle cx="131.50534485585342" cy="242.7338870183649" r="20" fill="#c4887a" stroke="#c4887a" /><circle cx="158.1648903321639" cy="162.67682047130347" r="20" fill="#372e4d" stroke="#372e4d" /><circle cx="305.51673977060295" cy="453.258428401941" r="20" fill="#a7dca6" stroke="#a7dca6" /><circle cx="61.16126424091082" cy="516.4482993462703" r="20" fill="#b038b6" stroke="#b038b6" /><circle cx="599.146359873505" cy="37.93854579488203" r="20" fill="#a04359" stroke="#a04359" /><circle cx="517.5155434322942" cy="596.261182490055" r="20" fill="#5a0c31" stroke="#5a0c31" /><circle cx="536.3231997742755" cy="419.48036928521816" r="20" fill="#d41d07" stroke="#d41d07" /><circle cx="168.6489065678084" cy="572.8844390660854" r="20" fill="#573458" stroke="#573458" /><circle cx="197.44229606675123" cy="202.31242931099" r="20" fill="#e915ad" stroke="#e915ad" /><circle cx="404.3331837944993" cy="138.92578954898877" r="20" fill="#63e748" stroke="#63e748" /><circle cx="301.9196873287302" cy="208.67999114072956" r="20" fill="#6a9dc0" stroke="#6a9dc0" /><circle cx="530.2348593351545" cy="359.99403485427865" r="20" fill="#a2146d" stroke="#a2146d" /><circle cx="388.9388457909917" cy="213.1861754007751" r="20" fill="#8ca260" stroke="#8ca260" /><circle cx="420.11673595513395" cy="132.40410912810893" r="20" fill="#599658" stroke="#599658" /><circle cx="233.5587199867141" cy="460.8614200610771" r="20" fill="#43b575" stroke="#43b575" /><circle cx="577.2069022149863" cy="344.9977400723764" r="20" fill="#617441" stroke="#617441" /><circle cx="47.02226567840491" cy="482.63128516300276" r="20" fill="#b4f92f" stroke="#b4f92f" /><circle cx="336.5152752098715" cy="315.9590297073524" r="20" fill="#c7ed27" stroke="#c7ed27" /><circle cx="516.1321107852453" cy="369.4715311934246" r="20" fill="#94bfbe" stroke="#94bfbe" /><circle cx="529.3640976110692" cy="557.2917934795265" r="20" fill="#fec2a5" stroke="#fec2a5" /><circle cx="251.18796218091356" cy="52.60690037343938" r="20" fill="#9a8b4c" stroke="#9a8b4c" /><circle cx="238.1017153320118" cy="112.38963920290308" r="20" fill="#425cf0" stroke="#425cf0" /><circle cx="208.70977317318986" cy="543.4447874179984" r="20" fill="#63162e" stroke="#63162e" /><circle cx="442.7843916378394" cy="96.3932608152811" r="20" fill="#2057ac" stroke="#2057ac" /><circle cx="484.51627618266156" cy="360.86835125814366" r="20" fill="#7ba905" stroke="#7ba905" /><circle cx="313.7232474653491" cy="56.7900468171473" r="20" fill="#58f8f" stroke="#58f8f" /><circle cx="540.3555191610894" cy="70.84712576832786" r="20" fill="#67ecaa" stroke="#67ecaa" /><circle cx="541.3781662246575" cy="410.2123838420481" r="20" fill="#1ddba8" stroke="#1ddba8" /><circle cx="297.8595909572282" cy="197.3969345326075" r="20" fill="#76a9" stroke="#76a9" /><circle cx="331.75624240530163" cy="321.8016007816103" r="20" fill="#6fb8da" stroke="#6fb8da" /><circle cx="56.751150179654" cy="113.64012724364616" r="20" fill="#c1e3c" stroke="#c1e3c" /><circle cx="476.94299934807856" cy="279.5611846673325" r="20" fill="#cefa76" stroke="#cefa76" /><circle cx="230.20227175493014" cy="563.9096667126458" r="20" fill="#9f4449" stroke="#9f4449" /><circle cx="190.6015205631737" cy="349.3191590377221" r="20" fill="#892b99" stroke="#892b99" /><circle cx="164.70334389240895" cy="362.9370933546765" r="20" fill="#81e619" stroke="#81e619" /><circle cx="396.1978895806228" cy="464.42857692972126" r="20" fill="#c13210" stroke="#c13210" /><circle cx="114.8000516064763" cy="295.6176662873605" r="20" fill="#2afa13" stroke="#2afa13" /><circle cx="128.65466297668854" cy="206.05506681813722" r="20" fill="#aa5de4" stroke="#aa5de4" /><circle cx="29.105248845100018" cy="471.23599667889494" r="20" fill="#2483" stroke="#2483" /><circle cx="348.4703756689977" cy="377.64190993406686" r="20" fill="#64ea7b" stroke="#64ea7b" /><circle cx="155.09471558523674" cy="19.188641334699817" r="20" fill="#1d67a4" stroke="#1d67a4" /><circle cx="434.1135621014915" cy="522.0827690762618" r="20" fill="#440db0" stroke="#440db0" /><circle cx="128.4338126432565" cy="82.072133865486" r="20" fill="#adf68c" stroke="#adf68c" /><circle cx="150.7672662074129" cy="254.16179140062917" r="20" fill="#75eeee" stroke="#75eeee" /><circle cx="321.53042185135183" cy="64.597919326226" r="20" fill="#104357" stroke="#104357" /><circle cx="523.0949063288556" cy="294.76156986270615" r="20" fill="#337e54" stroke="#337e54" /><circle cx="157.73577350967344" cy="63.90104455560657" r="20" fill="#c827a0" stroke="#c827a0" /><circle cx="73.24125619526507" cy="488.8351786863204" r="20" fill="#334801" stroke="#334801" /><circle cx="116.60136641205958" cy="327.41961845547235" r="20" fill="#b6810b" stroke="#b6810b" /><circle cx="514.8754899623069" cy="461.52386852555037" r="20" fill="#807831" stroke="#807831" /><circle cx="453.15432194969117" cy="469.26978069331324" r="20" fill="#e979e9" stroke="#e979e9" /><circle cx="267.28046483785874" cy="4.387048188002884" r="20" fill="#16598c" stroke="#16598c" /><circle cx="440.47799132952963" cy="416.8617355537293" r="20" fill="#97d315" stroke="#97d315" /><circle cx="468.7308359825075" cy="410.188263148753" r="20" fill="#885906" stroke="#885906" /><circle cx="501.6293275872039" cy="148.37363499493142" r="20" fill="#5329e4" stroke="#5329e4" /><circle cx="269.7077578668288" cy="27.315050090490047" r="20" fill="#73c239" stroke="#73c239" /><circle cx="306.5621460772201" cy="450.37805647961665" r="20" fill="#227271" stroke="#227271" /><circle cx="173.41696648572778" cy="114.18023263766469" r="20" fill="#f61e10" stroke="#f61e10" /><circle cx="223.92523325430082" cy="79.46649594064583" r="20" fill="#42196d" stroke="#42196d" /><circle cx="75.45214218544372" cy="462.3401996865729" r="20" fill="#d74577" stroke="#d74577" /><circle cx="22.627908386450812" cy="256.40270254730115" r="20" fill="#f47a23" stroke="#f47a23" /><circle cx="247.1586810323366" cy="330.44178632871854" r="20" fill="#e1a7da" stroke="#e1a7da" /><circle cx="508.1972090727078" cy="253.78232616712575" r="20" fill="#49615b" stroke="#49615b" /><circle cx="191.87071426450325" cy="466.370780953617" r="20" fill="#b88247" stroke="#b88247" /><circle cx="271.3836100485186" cy="557.1378396207575" r="20" fill="#1ac240" stroke="#1ac240" /><circle cx="594.099868383142" cy="288.9542591941172" r="20" fill="#1bdaa1" stroke="#1bdaa1" /><circle cx="240.17925056803412" cy="439.4204045889739" r="20" fill="#1297d6" stroke="#1297d6" /><circle cx="456.95885727760117" cy="82.48470597717753" r="20" fill="#64b8b5" stroke="#64b8b5" /><circle cx="591.9475961649622" cy="309.83147984188656" r="20" fill="#63724d" stroke="#63724d" /><circle cx="148.7521434130097" cy="435.44060712349244" r="20" fill="#958f67" stroke="#958f67" /><circle cx="151.90647008417167" cy="174.7405410045311" r="20" fill="#9d83ab" stroke="#9d83ab" /><circle cx="319.5386797055102" cy="288.056570266535" r="20" fill="#c761d1" stroke="#c761d1" /><circle cx="132.73972990857933" cy="436.8841508417602" r="20" fill="#e7ca55" stroke="#e7ca55" /><circle cx="400.14366083362296" cy="175.227881147897" r="20" fill="#c849b9" stroke="#c849b9" /><circle cx="254.60027778771598" cy="392.31979214552433" r="20" fill="#96087b" stroke="#96087b" /><circle cx="71.94892382564744" cy="89.74920172955669" r="20" fill="#e56018" stroke="#e56018" /><circle cx="4.75693271309674" cy="596.167596058023" r="20" fill="#eab95c" stroke="#eab95c" /><circle cx="140.30448659472174" cy="510.48563799303696" r="20" fill="#e251c1" stroke="#e251c1" /><circle cx="300.3543969118172" cy="354.23381709191347" r="20" fill="#35bc16" stroke="#35bc16" /><circle cx="321.2735432237024" cy="214.37366643582604" r="20" fill="#18f237" stroke="#18f237" /><circle cx="292.10863361761545" cy="562.5086615579269" r="20" fill="#8308e4" stroke="#8308e4" /><circle cx="70.79976363005139" cy="477.6753417237638" r="20" fill="#7fb03d" stroke="#7fb03d" /><circle cx="131.0165290659246" cy="365.91242424946824" r="20" fill="#1c9e3c" stroke="#1c9e3c" /><circle cx="453.09139741597426" cy="531.161529343399" r="20" fill="#7a423f" stroke="#7a423f" /><circle cx="356.5894418218323" cy="356.4736743836212" r="20" fill="#cfabbe" stroke="#cfabbe" /><circle cx="33.353758811224" cy="291.66980684566164" r="20" fill="#fd3588" stroke="#fd3588" /><circle cx="523.9551260884334" cy="588.2418460597426" r="20" fill="#76a64" stroke="#76a64" /><circle cx="532.7565472756655" cy="479.82177282659836" r="20" fill="#b819b4" stroke="#b819b4" /><circle cx="13.918065409651481" cy="182.05820422593516" r="20" fill="#ab3f30" stroke="#ab3f30" /><circle cx="229.6887307362777" cy="139.72385303441865" r="20" fill="#609813" stroke="#609813" /><circle cx="243.35980471576158" cy="386.6000991735229" r="20" fill="#ef27ed" stroke="#ef27ed" /><circle cx="228.96748450957233" cy="205.56839663859697" r="20" fill="#8787fc" stroke="#8787fc" /><circle cx="49.343849047044586" cy="163.33489701421033" r="20" fill="#6eb16a" stroke="#6eb16a" /><circle cx="172.32415950604567" cy="357.71309894871507" r="20" fill="#2acb85" stroke="#2acb85" /><circle cx="339.06515199762765" cy="250.46528297433585" r="20" fill="#afac04" stroke="#afac04" /><circle cx="6.610734009541952" cy="407.0912128813415" r="20" fill="#a7b013" stroke="#a7b013" /><circle cx="583.144264859087" cy="539.8133105469508" r="20" fill="#ead47e" stroke="#ead47e" /><circle cx="552.9937646550945" cy="541.090407016457" r="20" fill="#ad360f" stroke="#ad360f" /><circle cx="549.6592966335857" cy="371.6542098464354" r="20" fill="#c30caf" stroke="#c30caf" /><circle cx="239.40880497832927" cy="394.2659488157444" r="20" fill="#3989f2" stroke="#3989f2" /><circle cx="125.44144733885534" cy="350.18599395419983" r="20" fill="#a6ceaf" stroke="#a6ceaf" /><circle cx="36.32885229972152" cy="557.7629186346576" r="20" fill="#74d195" stroke="#74d195" /><circle cx="558.4053779824221" cy="379.5162369309104" r="20" fill="#df7431" stroke="#df7431" /><circle cx="457.96172493360336" cy="308.19127670583356" r="20" fill="#6a4531" stroke="#6a4531" /><circle cx="9.732154218357225" cy="270.9150171876117" r="20" fill="#2a0cf9" stroke="#2a0cf9" /><circle cx="211.15827189132938" cy="425.4512665152853" r="20" fill="#7670f5" stroke="#7670f5" /><circle cx="293.7290414412047" cy="99.8910940362761" r="20" fill="#8be239" stroke="#8be239" /><circle cx="464.4063724593539" cy="122.32624849230476" r="20" fill="#9bfddb" stroke="#9bfddb" /><circle cx="349.12482113989245" cy="564.8797195221306" r="20" fill="#7d75f3" stroke="#7d75f3" /><circle cx="260.67570030660943" cy="351.8807817664754" r="20" fill="#ed2601" stroke="#ed2601" /><circle cx="321.138136716384" cy="288.6306703875088" r="20" fill="#ccdd3e" stroke="#ccdd3e" /><circle cx="53.75278461580075" cy="513.0542476333557" r="20" fill="#1439a3" stroke="#1439a3" /><circle cx="285.45570711320664" cy="228.97000504883886" r="20" fill="#47aa5a" stroke="#47aa5a" /><circle cx="500.27394582257386" cy="193.6682690779004" r="20" fill="#da58c6" stroke="#da58c6" /><circle cx="236.80757756891876" cy="597.4808110862846" r="20" fill="#559ef1" stroke="#559ef1" /><circle cx="206.07531267038138" cy="253.99568636059112" r="20" fill="#71ab1" stroke="#71ab1" /><circle cx="202.61198806900555" cy="560.7300937886203" r="20" fill="#973bba" stroke="#973bba" /><circle cx="268.8027411186347" cy="218.1949593438447" r="20" fill="#a79fa3" stroke="#a79fa3" /><circle cx="580.6260378213864" cy="163.19088220777758" r="20" fill="#b88d58" stroke="#b88d58" /><circle cx="457.0371800719339" cy="306.93532807340966" r="20" fill="#285445" stroke="#285445" /><circle cx="78.5240641581411" cy="107.50512655109765" r="20" fill="#ab1e67" stroke="#ab1e67" /><circle cx="303.8775770589046" cy="330.7810360547924" r="20" fill="#dd47fd" stroke="#dd47fd" /><circle cx="411.35004862526347" cy="360.7023042988119" r="20" fill="#bd6aad" stroke="#bd6aad" /><circle cx="554.0034432396121" cy="556.3669552330135" r="20" fill="#116e10" stroke="#116e10" /><circle cx="217.38887165235747" cy="25.93479693023677" r="20" fill="#944ee0" stroke="#944ee0" /><circle cx="126.04402421491288" cy="356.3948168256026" r="20" fill="#5434da" stroke="#5434da" /><circle cx="305.94160303201033" cy="219.43621964336728" r="20" fill="#7aa609" stroke="#7aa609" /><circle cx="348.33858620468624" cy="4.506975227512422" r="20" fill="#9ec459" stroke="#9ec459" /><circle cx="404.9847311837016" cy="83.73078064552399" r="20" fill="#e04564" stroke="#e04564" /><circle cx="80.19939302674244" cy="492.3191976853727" r="20" fill="#10b812" stroke="#10b812" /><circle cx="94.63610766105361" cy="170.98962084365996" r="20" fill="#2e24ca" stroke="#2e24ca" /><circle cx="276.1360196386982" cy="98.5772507432229" r="20" fill="#6364fa" stroke="#6364fa" /><circle cx="507.97073902693734" cy="451.0600953451967" r="20" fill="#52ee94" stroke="#52ee94" /><circle cx="468.34049179255317" cy="587.2936960549362" r="20" fill="#cbcbc0" stroke="#cbcbc0" /><circle cx="21.560505008981856" cy="168.1734025150603" r="20" fill="#4e3a4f" stroke="#4e3a4f" /><circle cx="193.3795825899728" cy="452.1542324151646" r="20" fill="#17af51" stroke="#17af51" /><circle cx="232.44057712164033" cy="33.779740732456844" r="20" fill="#514a80" stroke="#514a80" /><circle cx="43.355025648324784" cy="108.77076108030393" r="20" fill="#67684f" stroke="#67684f" /><circle cx="132.68588094265584" cy="118.90064962365803" r="20" fill="#7d648a" stroke="#7d648a" /><circle cx="558.6012997089217" cy="463.57360575008096" r="20" fill="#687190" stroke="#687190" /><circle cx="364.4441439819052" cy="162.19300084915815" r="20" fill="#d51cbd" stroke="#d51cbd" /><circle cx="117.75325396031135" cy="299.17003951135086" r="20" fill="#f54ee5" stroke="#f54ee5" /><circle cx="565.920397356074" cy="30.351175502925052" r="20" fill="#14930c" stroke="#14930c" /><circle cx="503.95825028090815" cy="492.78730564159525" r="20" fill="#ec72c5" stroke="#ec72c5" /><circle cx="300.1766145090292" cy="90.98165780350831" r="20" fill="#94b504" stroke="#94b504" /><circle cx="379.4453384628927" cy="282.4921315996636" r="20" fill="#61d5f9" stroke="#61d5f9" /><circle cx="288.1465579809617" cy="61.1623242977426" r="20" fill="#136375" stroke="#136375" /><circle cx="325.88506100382625" cy="441.21226048863144" r="20" fill="#489009" stroke="#489009" /><circle cx="267.1900963045787" cy="515.2132756488563" r="20" fill="#e25ea2" stroke="#e25ea2" /><circle cx="109.48450605572275" cy="494.90828010948087" r="20" fill="#b5bc4a" stroke="#b5bc4a" /><circle cx="460.3898533033349" cy="345.01465254180613" r="20" fill="#c95b39" stroke="#c95b39" /><circle cx="32.442681979026624" cy="286.64443487613676" r="20" fill="#bcd3bd" stroke="#bcd3bd" /><circle cx="257.4800216600246" cy="125.4585142741281" r="20" fill="#8037ed" stroke="#8037ed" /><circle cx="520.9738134866975" cy="253.09317798838836" r="20" fill="#9794c0" stroke="#9794c0" /><circle cx="431.55692599307343" cy="143.01798025768298" r="20" fill="#c5ae8b" stroke="#c5ae8b" /><circle cx="95.2725361637294" cy="131.9207018062767" r="20" fill="#fee466" stroke="#fee466" /><circle cx="533.3553137544505" cy="337.4783529103384" r="20" fill="#f4a3c1" stroke="#f4a3c1" /><circle cx="251.72614919126218" cy="47.25165625008647" r="20" fill="#63bc36" stroke="#63bc36" /><circle cx="232.23442031452487" cy="234.70880703897475" r="20" fill="#a187d" stroke="#a187d" /><circle cx="432.3467308384304" cy="230.4846454311682" r="20" fill="#7ecf14" stroke="#7ecf14" /><circle cx="205.05310947629312" cy="26.90719902496226" r="20" fill="#748cc0" stroke="#748cc0" /><circle cx="411.69020482858053" cy="169.29018507973495" r="20" fill="#fa0f74" stroke="#fa0f74" /><circle cx="105.25504731923823" cy="69.83479900129592" r="20" fill="#49cb14" stroke="#49cb14" /><circle cx="19.022546463187417" cy="483.0542245126882" r="20" fill="#a4c804" stroke="#a4c804" /><circle cx="75.46629753772858" cy="361.55822046697324" r="20" fill="#bb4af1" stroke="#bb4af1" /><circle cx="529.3637149512282" cy="253.36706823195635" r="20" fill="#de684d" stroke="#de684d" /><circle cx="488.44036638348916" cy="534.2894945750215" r="20" fill="#809527" stroke="#809527" /><circle cx="200.88376981605398" cy="356.8729084731143" r="20" fill="#a8a45c" stroke="#a8a45c" /><circle cx="105.94971812637262" cy="284.5224146482232" r="20" fill="#5bf7ef" stroke="#5bf7ef" /><circle cx="411.6613883893858" cy="591.2028371262562" r="20" fill="#7ba493" stroke="#7ba493" /><circle cx="418.0477718057088" cy="232.53799701237807" r="20" fill="#21b916" stroke="#21b916" /><circle cx="403.76986505082266" cy="254.81192524549766" r="20" fill="#17b43a" stroke="#17b43a" /><circle cx="77.68251734594914" cy="599.5450257411195" r="20" fill="#20464e" stroke="#20464e" /><circle cx="205.7011546532778" cy="526.9926641198675" r="20" fill="#cdde3d" stroke="#cdde3d" /><circle cx="476.661047955007" cy="567.3639384618001" r="20" fill="#333c61" stroke="#333c61" /><circle cx="70.14985673975134" cy="96.34702975919774" r="20" fill="#22ce15" stroke="#22ce15" /><circle cx="200.65212919255222" cy="11.100999888047136" r="20" fill="#8a628e" stroke="#8a628e" /><circle cx="242.50679583437903" cy="30.04022816812535" r="20" fill="#2fba46" stroke="#2fba46" /><circle cx="103.88484345383935" cy="557.7709716032372" r="20" fill="#5d8190" stroke="#5d8190" /><circle cx="81.47797814451864" cy="276.02163715520953" r="20" fill="#40f10c" stroke="#40f10c" /><circle cx="536.985998137253" cy="267.9696516932235" r="20" fill="#c0e290" stroke="#c0e290" /><circle cx="441.1877373938098" cy="290.48823242589043" r="20" fill="#675eb3" stroke="#675eb3" /><circle cx="11.849176060797495" cy="473.7952566043414" r="20" fill="#4818b" stroke="#4818b" /><circle cx="333.1491067960431" cy="112.25487820548392" r="20" fill="#4fad84" stroke="#4fad84" /><circle cx="439.7248836215407" cy="417.04483786550554" r="20" fill="#7ad0e0" stroke="#7ad0e0" /><circle cx="416.2302836327364" cy="504.2503268692917" r="20" fill="#4659ef" stroke="#4659ef" /><circle cx="279.7003595959991" cy="542.7338826859102" r="20" fill="#d6fd8d" stroke="#d6fd8d" /><circle cx="587.1137131366613" cy="72.69054650674951" r="20" fill="#565697" stroke="#565697" /><circle cx="580.915644414018" cy="138.9128528250275" r="20" fill="#3232e5" stroke="#3232e5" /><circle cx="526.4482590827522" cy="70.7792804580595" r="20" fill="#f67f72" stroke="#f67f72" /><circle cx="453.2932661565697" cy="65.8454774605027" r="20" fill="#2c57cc" stroke="#2c57cc" /><circle cx="420.3403382532436" cy="380.9693642059124" r="20" fill="#ec8c48" stroke="#ec8c48" /><circle cx="274.6210689524603" cy="301.08513025527634" r="20" fill="#d11010" stroke="#d11010" /><circle cx="178.85947693450325" cy="177.15293614059985" r="20" fill="#17eb41" stroke="#17eb41" /><circle cx="367.6143381933609" cy="256.3731939441101" r="20" fill="#244cad" stroke="#244cad" /><circle cx="13.460510599662534" cy="153.20580544712666" r="20" fill="#2ea179" stroke="#2ea179" /><circle cx="391.36349720584434" cy="74.33986454073053" r="20" fill="#281d7e" stroke="#281d7e" /><circle cx="447.3862341739736" cy="64.90065555802005" r="20" fill="#b5bee2" stroke="#b5bee2" /><circle cx="454.00386212102654" cy="537.7145271978147" r="20" fill="#ea6b06" stroke="#ea6b06" /><circle cx="371.33344705205917" cy="544.0908198515418" r="20" fill="#b69a38" stroke="#b69a38" /><circle cx="463.7273940492897" cy="24.685694571177752" r="20" fill="#c0d232" stroke="#c0d232" /><circle cx="445.7815676173476" cy="96.29776066370965" r="20" fill="#d0b8da" stroke="#d0b8da" /><circle cx="137.13573171623685" cy="359.3572342339414" r="20" fill="#dff4ce" stroke="#dff4ce" /><circle cx="291.43802472881714" cy="556.6280320307159" r="20" fill="#5a542d" stroke="#5a542d" /><circle cx="83.76613257333018" cy="89.83729946747903" r="20" fill="#8714c1" stroke="#8714c1" /><circle cx="166.22765612406602" cy="468.0041104882025" r="20" fill="#5e21e5" stroke="#5e21e5" /><circle cx="551.7465997690306" cy="354.0729719656277" r="20" fill="#49553d" stroke="#49553d" /><circle cx="288.52251067299835" cy="145.0123537960427" r="20" fill="#64a99a" stroke="#64a99a" /><circle cx="478.088292222782" cy="50.575988818710236" r="20" fill="#44b862" stroke="#44b862" /><circle cx="252.10550140725957" cy="553.4681168558185" r="20" fill="#a2f6a7" stroke="#a2f6a7" /><circle cx="229.28088457867997" cy="130.76806377193043" r="20" fill="#256f21" stroke="#256f21" /><circle cx="43.077838298930835" cy="145.05295979791896" r="20" fill="#34e514" stroke="#34e514" /><circle cx="22.328756835577135" cy="548.5961839048574" r="20" fill="#b2ab7c" stroke="#b2ab7c" /><circle cx="453.93906545975915" cy="317.16026921137103" r="20" fill="#492744" stroke="#492744" /><circle cx="94.46310545852619" cy="406.1459631916564" r="20" fill="#5e508a" stroke="#5e508a" /><circle cx="359.5680194884421" cy="90.61586537237613" r="20" fill="#fe2eb" stroke="#fe2eb" /><circle cx="172.6246695277128" cy="583.3905862671214" r="20" fill="#bd2abd" stroke="#bd2abd" /><circle cx="128.37091330304963" cy="69.61345296612502" r="20" fill="#b55035" stroke="#b55035" /><circle cx="175.85210273804304" cy="174.05033203182384" r="20" fill="#fd8fb8" stroke="#fd8fb8" /><circle cx="472.1048737390082" cy="17.858488152568917" r="20" fill="#85ea2a" stroke="#85ea2a" /><circle cx="582.9911824641425" cy="125.75993641229704" r="20" fill="#7b4b9a" stroke="#7b4b9a" /><circle cx="99.69865013602934" cy="206.56655154149547" r="20" fill="#84e6de" stroke="#84e6de" /><circle cx="222.6959665018561" cy="128.06553026153927" r="20" fill="#1126a" stroke="#1126a" /><circle cx="110.7611845374318" cy="543.487628994413" r="20" fill="#12f45" stroke="#12f45" /><circle cx="389.4831623792743" cy="465.5360799245503" r="20" fill="#42480e" stroke="#42480e" /><circle cx="309.3349498559411" cy="154.2403123939702" r="20" fill="#5c04d6" stroke="#5c04d6" /><circle cx="224.14240131456236" cy="542.5601016338657" r="20" fill="#7e41a9" stroke="#7e41a9" /><circle cx="104.90380157075903" cy="188.9697173064612" r="20" fill="#7ff4bd" stroke="#7ff4bd" /><circle cx="288.6578695260925" cy="147.4845848712568" r="20" fill="#31c3cf" stroke="#31c3cf" /><circle cx="542.4654390317303" cy="427.5703936550744" r="20" fill="#8ca5a8" stroke="#8ca5a8" /><circle cx="30.891130388054357" cy="19.267464455454686" r="20" fill="#753302" stroke="#753302" /><circle cx="81.8705211673611" cy="399.8347100159149" r="20" fill="#a7418" stroke="#a7418" /><circle cx="223.8958955134419" cy="526.2642827159427" r="20" fill="#858921" stroke="#858921" /><circle cx="150.4163703281927" cy="207.52873738133079" r="20" fill="#d77ceb" stroke="#d77ceb" /><circle cx="387.20019516162324" cy="363.1623992612138" r="20" fill="#270edc" stroke="#270edc" /><circle cx="6.2853447046890665" cy="68.8284690687655" r="20" fill="#34070c" stroke="#34070c" /><circle cx="55.72585459697521" cy="558.0289151820579" r="20" fill="#61b813" stroke="#61b813" /><circle cx="203.66163880182674" cy="153.47144262791187" r="20" fill="#1b2ff9" stroke="#1b2ff9" /><circle cx="250.93178350282105" cy="589.045241805942" r="20" fill="#f75a2" stroke="#f75a2" /><circle cx="8.819469933998203" cy="537.0781148936944" r="20" fill="#e317ae" stroke="#e317ae" /><circle cx="266.03438798519926" cy="458.87404732927894" r="20" fill="#e5f267" stroke="#e5f267" /><circle cx="220.09576415321027" cy="377.6932550362435" r="20" fill="#2d182f" stroke="#2d182f" /><circle cx="208.68142182516473" cy="157.96588324633922" r="20" fill="#365925" stroke="#365925" /><circle cx="122.7655831166516" cy="275.6599538178487" r="20" fill="#41d7c3" stroke="#41d7c3" /><circle cx="366.57828562136" cy="98.55221162254111" r="20" fill="#f80e47" stroke="#f80e47" /><circle cx="465.11055102832455" cy="34.47887614928877" r="20" fill="#1e9c2e" stroke="#1e9c2e" /><circle cx="426.15161954054264" cy="476.95238168116924" r="20" fill="#48dc17" stroke="#48dc17" /><circle cx="409.185895035818" cy="36.14090536264367" r="20" fill="#72057" stroke="#72057" /><circle cx="540.6107601556316" cy="168.92853390050936" r="20" fill="#b51418" stroke="#b51418" /><circle cx="437.4716509096138" cy="582.2431503017297" r="20" fill="#ffd23a" stroke="#ffd23a" /><circle cx="28.139797570648817" cy="485.9208685034075" r="20" fill="#24565c" stroke="#24565c" /><circle cx="505.1378597875934" cy="42.595447604544965" r="20" fill="#46ab8e" stroke="#46ab8e" /><circle cx="119.77893714318716" cy="249.06838751090703" r="20" fill="#38d539" stroke="#38d539" /><circle cx="336.21930026273617" cy="273.3724309312606" r="20" fill="#808110" stroke="#808110" /><circle cx="225.84733770179128" cy="249.9581025351443" r="20" fill="#2acd4b" stroke="#2acd4b" /><circle cx="499.1450368829782" cy="339.0564210895731" r="20" fill="#9a5772" stroke="#9a5772" /><circle cx="83.78718664780416" cy="431.972258859145" r="20" fill="#7f1647" stroke="#7f1647" /><circle cx="130.25047088780792" cy="232.18966571248413" r="20" fill="#7fe4f9" stroke="#7fe4f9" /><circle cx="358.20762207948474" cy="495.39351821224807" r="20" fill="#6cef83" stroke="#6cef83" /><circle cx="443.0191209804829" cy="163.35226336572396" r="20" fill="#51dbdb" stroke="#51dbdb" /><circle cx="409.6638496110646" cy="217.80080645290406" r="20" fill="#39481d" stroke="#39481d" /><circle cx="582.1293027937128" cy="321.1644312406061" r="20" fill="#a384c3" stroke="#a384c3" /><circle cx="417.7568328544856" cy="1.306656796573824" r="20" fill="#d7f210" stroke="#d7f210" /><circle cx="557.8845741723553" cy="53.729989096596896" r="20" fill="#8ada7b" stroke="#8ada7b" /><circle cx="377.75080194185404" cy="356.6807668617371" r="20" fill="#baaf76" stroke="#baaf76" /><circle cx="500.3849515988598" cy="278.48821848861616" r="20" fill="#d3ba3a" stroke="#d3ba3a" /><circle cx="348.36612110096263" cy="561.9785815085746" r="20" fill="#aa05a3" stroke="#aa05a3" /><circle cx="464.5612451205142" cy="373.8572736031112" r="20" fill="#9bda43" stroke="#9bda43" /><circle cx="499.061282634605" cy="479.20038620512224" r="20" fill="#5c7ac" stroke="#5c7ac" /><circle cx="254.59497549409872" cy="307.3953457051988" r="20" fill="#7b32ac" stroke="#7b32ac" /><circle cx="316.152817943558" cy="542.4759454126735" r="20" fill="#31f9bf" stroke="#31f9bf" /><circle cx="138.21370354000803" cy="401.5515329737705" r="20" fill="#446353" stroke="#446353" /><circle cx="268.09367302509526" cy="574.533859370735" r="20" fill="#f6cd04" stroke="#f6cd04" /><circle cx="298.801732877791" cy="237.20774315011747" r="20" fill="#781419" stroke="#781419" /><circle cx="211.29102771503864" cy="17.079822505602273" r="20" fill="#90ba4a" stroke="#90ba4a" /><circle cx="379.67679354728625" cy="219.6530182130472" r="20" fill="#f69cd2" stroke="#f69cd2" /><circle cx="558.4178609714771" cy="123.20379316298786" r="20" fill="#d7c67e" stroke="#d7c67e" /><circle cx="59.71427026655532" cy="33.84151972098586" r="20" fill="#4cb869" stroke="#4cb869" /><circle cx="154.407794486348" cy="303.7193298535747" r="20" fill="#c122e7" stroke="#c122e7" /><circle cx="106.9887408185449" cy="194.55738060428848" r="20" fill="#464b89" stroke="#464b89" /><circle cx="538.6076414243967" cy="359.7137271604427" r="20" fill="#b3f568" stroke="#b3f568" /><circle cx="540.2439487764478" cy="287.44859855369447" r="20" fill="#9a0a7f" stroke="#9a0a7f" /><circle cx="22.050310375216363" cy="500.02179410938754" r="20" fill="#d465c2" stroke="#d465c2" /><circle cx="296.1740897928807" cy="403.2558629139482" r="20" fill="#69abb6" stroke="#69abb6" /><circle cx="108.37538621615055" cy="376.4033260515793" r="20" fill="#9bd0ca" stroke="#9bd0ca" /><circle cx="61.93047232421564" cy="253.83844514067445" r="20" fill="#7a9f99" stroke="#7a9f99" /><circle cx="302.19549610580947" cy="221.33985160293204" r="20" fill="#b64c8b" stroke="#b64c8b" /><circle cx="195.1063291248049" cy="458.53164649718957" r="20" fill="#a0cbae" stroke="#a0cbae" /><circle cx="81.87490473907273" cy="2.701441054594289" r="20" fill="#394c6" stroke="#394c6" /><circle cx="307.77145075511794" cy="517.6160316028781" r="20" fill="#466d6c" stroke="#466d6c" /><circle cx="193.96657299146628" cy="213.67281851453293" r="20" fill="#7b7940" stroke="#7b7940" /><circle cx="542.7350115578079" cy="113.03852144707172" r="20" fill="#d3b540" stroke="#d3b540" /><circle cx="109.54321728410466" cy="272.3603383796244" r="20" fill="#31b1c2" stroke="#31b1c2" /><circle cx="393.83855601120246" cy="101.02885566856878" r="20" fill="#3da58" stroke="#3da58" /><circle cx="351.6495941297928" cy="270.21513175069134" r="20" fill="#7879e5" stroke="#7879e5" /><circle cx="33.12135555419778" cy="254.24475727865047" r="20" fill="#630522" stroke="#630522" /><circle cx="444.7926135195157" cy="38.79022030690757" r="20" fill="#90be9f" stroke="#90be9f" /><circle cx="397.5967776867894" cy="569.9088241707926" r="20" fill="#d59933" stroke="#d59933" /><circle cx="420.0285103246877" cy="163.59672430955507" r="20" fill="#69e735" stroke="#69e735" /><circle cx="426.05444168166275" cy="389.50455075305143" r="20" fill="#241ad6" stroke="#241ad6" /><circle cx="156.15851021247212" cy="309.1484338906146" r="20" fill="#dedaa3" stroke="#dedaa3" /><circle cx="261.3910055619828" cy="258.8570633569402" r="20" fill="#f0b7c" stroke="#f0b7c" /><circle cx="23.485687425487043" cy="0.9885380187145909" r="20" fill="#2dbafe" stroke="#2dbafe" /><circle cx="592.9433896306307" cy="37.61840026248326" r="20" fill="#876f86" stroke="#876f86" /><circle cx="338.01402431864955" cy="82.13708111494262" r="20" fill="#c7c587" stroke="#c7c587" /><circle cx="130.95382862332815" cy="485.0087119165306" r="20" fill="#a6902d" stroke="#a6902d" /><circle cx="511.0469298867384" cy="119.92111414146267" r="20" fill="#b5b18f" stroke="#b5b18f" /><circle cx="448.08276049550943" cy="58.04329922052971" r="20" fill="#47ba8" stroke="#47ba8" /><circle cx="389.7290960295936" cy="254.22378442269428" r="20" fill="#945b04" stroke="#945b04" /><circle cx="16.148857240479273" cy="491.3061722694616" r="20" fill="#1eb523" stroke="#1eb523" /><circle cx="83.40862457746555" cy="240.20956733593982" r="20" fill="#edb859" stroke="#edb859" /><circle cx="114.40005207842417" cy="522.4927550658074" r="20" fill="#c06c80" stroke="#c06c80" /><circle cx="19.775906413052535" cy="200.86857092756821" r="20" fill="#de79e9" stroke="#de79e9" /><circle cx="282.52368358665564" cy="598.8113924312256" r="20" fill="#67ca1d" stroke="#67ca1d" /><circle cx="107.36415225710259" cy="276.4409052088515" r="20" fill="#cdc8de" stroke="#cdc8de" /><circle cx="291.3654946229364" cy="93.24345480007162" r="20" fill="#538fe5" stroke="#538fe5" /><circle cx="70.73097572613575" cy="480.9843925511072" r="20" fill="#eb554" stroke="#eb554" /><circle cx="104.28090236368215" cy="352.15265135368037" r="20" fill="#891d86" stroke="#891d86" /><circle cx="455.4014361389606" cy="371.6504913449782" r="20" fill="#aa415e" stroke="#aa415e" /><circle cx="518.306049055568" cy="449.2300023598951" r="20" fill="#b5f74d" stroke="#b5f74d" /><circle cx="168.27091645385806" cy="587.8165966689816" r="20" fill="#1d9eec" stroke="#1d9eec" /><circle cx="65.03560623536045" cy="303.80560036935026" r="20" fill="#aceb4f" stroke="#aceb4f" /><circle cx="497.623347530073" cy="422.94154440695905" r="20" fill="#fe6d63" stroke="#fe6d63" /><circle cx="401.5675429295656" cy="192.46606094420972" r="20" fill="#2e605c" stroke="#2e605c" /><circle cx="40.41329891678469" cy="7.3331389755328935" r="20" fill="#401a89" stroke="#401a89" /><circle cx="325.29307953547936" cy="39.13269943867168" r="20" fill="#aab918" stroke="#aab918" /><circle cx="29.008347835482205" cy="301.7823125347388" r="20" fill="#9144a" stroke="#9144a" /><circle cx="341.50344151745287" cy="297.8154451136393" r="20" fill="#791823" stroke="#791823" /><circle cx="89.58431578641117" cy="248.42469221342603" r="20" fill="#2c08f7" stroke="#2c08f7" /><circle cx="78.80743565577002" cy="116.61065321225604" r="20" fill="#1cb16d" stroke="#1cb16d" /><circle cx="524.5091974222029" cy="295.11798785584165" r="20" fill="#de1185" stroke="#de1185" /><circle cx="413.5421695269208" cy="134.2403313547755" r="20" fill="#40d6c8" stroke="#40d6c8" /><circle cx="284.0828541255057" cy="171.62107796054124" r="20" fill="#9c3625" stroke="#9c3625" /><circle cx="493.49764673606535" cy="491.87446485277866" r="20" fill="#6efcf8" stroke="#6efcf8" /><circle cx="369.7565067528829" cy="533.0609085128863" r="20" fill="#4a4334" stroke="#4a4334" /><circle cx="460.5157463426189" cy="51.83385803516902" r="20" fill="#641f9c" stroke="#641f9c" /><circle cx="228.71142129834055" cy="552.8658820840694" r="20" fill="#aa391b" stroke="#aa391b" /><circle cx="42.81346108381676" cy="129.07285463593442" r="20" fill="#2d0b5a" stroke="#2d0b5a" /><circle cx="369.02551236087004" cy="18.163625507584946" r="20" fill="#6d4023" stroke="#6d4023" /><circle cx="245.7112030345014" cy="400.7755164337979" r="20" fill="#d50b38" stroke="#d50b38" /><circle cx="306.8168777571666" cy="460.06847236902377" r="20" fill="#29946d" stroke="#29946d" /><circle cx="183.10396385391638" cy="346.56933018305824" r="20" fill="#2ba6d7" stroke="#2ba6d7" /><circle cx="16.81112505281126" cy="475.35396044655795" r="20" fill="#2d11c5" stroke="#2d11c5" /><circle cx="66.6866532151512" cy="243.790141026013" r="20" fill="#e78ab5" stroke="#e78ab5" /><circle cx="582.1584057403533" cy="120.10085396627966" r="20" fill="#ec56cd" stroke="#ec56cd" /><circle cx="141.50560788349637" cy="465.58979937034024" r="20" fill="#bf039c" stroke="#bf039c" /><circle cx="298.6092817598771" cy="506.6383687914607" r="20" fill="#dc88d9" stroke="#dc88d9" /><circle cx="317.6638377114058" cy="8.499350117324722" r="20" fill="#8806c" stroke="#8806c" /><circle cx="504.70598275094994" cy="288.6365057417661" r="20" fill="#38a273" stroke="#38a273" /><circle cx="306.9684805742452" cy="510.645052755429" r="20" fill="#62f541" stroke="#62f541" /><circle cx="221.57704618563488" cy="30.286211926726203" r="20" fill="#5fe229" stroke="#5fe229" /><circle cx="124.97747865962627" cy="377.3601568673094" r="20" fill="#f28b56" stroke="#f28b56" /><circle cx="169.5798897442553" cy="209.5601695228156" r="20" fill="#75f359" stroke="#75f359" /><circle cx="414.73972554014637" cy="186.39449736698703" r="20" fill="#68db1b" stroke="#68db1b" /><circle cx="421.5024083987522" cy="599.731956975426" r="20" fill="#ccf466" stroke="#ccf466" /><circle cx="78.40935607235009" cy="25.338395376931455" r="20" fill="#66909f" stroke="#66909f" /><circle cx="425.43620639995703" cy="198.2690550644456" r="20" fill="#83950e" stroke="#83950e" /><circle cx="590.5280863573638" cy="291.348567072485" r="20" fill="#41a769" stroke="#41a769" /><circle cx="34.223484940165335" cy="445.7817618451188" r="20" fill="#8de089" stroke="#8de089" /><circle cx="451.63762253388984" cy="22.588514763467682" r="20" fill="#e0c337" stroke="#e0c337" /><circle cx="452.6242162308784" cy="546.5022574522429" r="20" fill="#38c64" stroke="#38c64" /><circle cx="591.6064240758355" cy="149.9686697508791" r="20" fill="#d54e96" stroke="#d54e96" /><circle cx="386.25186887124954" cy="162.7871999003938" r="20" fill="#9784c5" stroke="#9784c5" /><circle cx="445.8650830835804" cy="260.8819388706879" r="20" fill="#6d86bc" stroke="#6d86bc" /><circle cx="333.4408060706184" cy="23.08508339473967" r="20" fill="#9ec17b" stroke="#9ec17b" /><circle cx="184.28160072104473" cy="498.21033679808806" r="20" fill="#dd3c78" stroke="#dd3c78" /><circle cx="490.3994779744089" cy="588.5159639199431" r="20" fill="#6b0de5" stroke="#6b0de5" /><circle cx="94.22134706008016" cy="8.06393189521093" r="20" fill="#f3f5bd" stroke="#f3f5bd" /><circle cx="498.65470566804674" cy="45.98272851200647" r="20" fill="#ec2020" stroke="#ec2020" /><circle cx="214.77131500726335" cy="177.70571433341993" r="20" fill="#d4ce5" stroke="#d4ce5" /><circle cx="368.4587128666703" cy="349.3357996521877" r="20" fill="#d2f780" stroke="#d2f780" /><circle cx="28.415308841985354" cy="572.1295324090211" r="20" fill="#74ebac" stroke="#74ebac" /><circle cx="265.89934820181196" cy="7.533015891476191" r="20" fill="#9848fa" stroke="#9848fa" /><circle cx="153.79043884365998" cy="154.05897127018503" r="20" fill="#72ff4f" stroke="#72ff4f" /><circle cx="520.0617787027958" cy="506.68425404748285" r="20" fill="#2fe08a" stroke="#2fe08a" /><circle cx="204.60456357422342" cy="495.5624041070108" r="20" fill="#138880" stroke="#138880" /><circle cx="520.4401810952213" cy="462.91998739076735" r="20" fill="#907931" stroke="#907931" /><circle cx="422.14408867822624" cy="377.2844772482956" r="20" fill="#5bb1fe" stroke="#5bb1fe" /><circle cx="348.1689339106505" cy="542.3976612923415" r="20" fill="#ba59bb" stroke="#ba59bb" /><circle cx="400.25556164335234" cy="479.6354358771224" r="20" fill="#4f423f" stroke="#4f423f" /><circle cx="142.0223310157533" cy="196.99531390839192" r="20" fill="#e23072" stroke="#e23072" /><circle cx="32.196067069079916" cy="381.66229068188716" r="20" fill="#37ee3" stroke="#37ee3" /><circle cx="273.0724889903843" cy="162.0361356093111" r="20" fill="#cdfe22" stroke="#cdfe22" /><circle cx="494.5321552023736" cy="415.46306005488583" r="20" fill="#93e7ac" stroke="#93e7ac" /><circle cx="34.12420679668897" cy="463.8478201566482" r="20" fill="#bdaef2" stroke="#bdaef2" /><circle cx="321.79204264766855" cy="384.45363916780144" r="20" fill="#602594" stroke="#602594" /><circle cx="210.13507710356006" cy="356.3337441520593" r="20" fill="#ad1636" stroke="#ad1636" /><circle cx="110.65233629298375" cy="594.601065919586" r="20" fill="#8efeb9" stroke="#8efeb9" /><circle cx="84.8608288007255" cy="168.61711400640905" r="20" fill="#7b3948" stroke="#7b3948" /><circle cx="114.68930949453183" cy="9.608898767886975" r="20" fill="#74f93f" stroke="#74f93f" /><circle cx="449.81753470629565" cy="336.9117354453352" r="20" fill="#3936c4" stroke="#3936c4" /><circle cx="213.02663183477932" cy="48.385090282773426" r="20" fill="#5cb0c6" stroke="#5cb0c6" /><circle cx="205.75209322371347" cy="467.40534655791237" r="20" fill="#ae65de" stroke="#ae65de" /><circle cx="581.677032124743" cy="131.10832866928473" r="20" fill="#b41ba" stroke="#b41ba" /><circle cx="530.2638495256597" cy="220.96198704269136" r="20" fill="#c9094" stroke="#c9094" /><circle cx="174.2286726123532" cy="475.9591916503342" r="20" fill="#50fe01" stroke="#50fe01" /><circle cx="238.4049035902461" cy="50.15825253207345" r="20" fill="#ab295" stroke="#ab295" /><circle cx="129.9538503325263" cy="40.80081008855308" r="20" fill="#d15de2" stroke="#d15de2" /><circle cx="449.92767671066036" cy="284.5711781620418" r="20" fill="#dcea2f" stroke="#dcea2f" /><circle cx="573.1205130476528" cy="306.85627807767105" r="20" fill="#eaf4d4" stroke="#eaf4d4" /><circle cx="292.48987189281" cy="82.60074791777168" r="20" fill="#326df2" stroke="#326df2" /><circle cx="429.6192177785907" cy="193.44488272393613" r="20" fill="#e471a2" stroke="#e471a2" /><circle cx="127.7646929401837" cy="28.312772354997186" r="20" fill="#68dd40" stroke="#68dd40" /><circle cx="212.30749672228396" cy="329.9565166366874" r="20" fill="#c89f95" stroke="#c89f95" /><circle cx="150.483019921686" cy="105.25545240867929" r="20" fill="#35889b" stroke="#35889b" /><circle cx="563.4574609820736" cy="378.7996952036517" r="20" fill="#d66a2e" stroke="#d66a2e" /><circle cx="176.85079726183153" cy="485.6933761489829" r="20" fill="#ddd23" stroke="#ddd23" /><circle cx="579.3011308501652" cy="321.4683872071924" r="20" fill="#a10ee7" stroke="#a10ee7" /><circle cx="161.6295450488559" cy="443.76017620256135" r="20" fill="#1adbb4" stroke="#1adbb4" /><circle cx="440.1075412392118" cy="108.20077573368377" r="20" fill="#1994d9" stroke="#1994d9" /><circle cx="293.2151400171711" cy="374.8688360983818" r="20" fill="#a855fb" stroke="#a855fb" /><circle cx="313.6338224059005" cy="222.43973513562904" r="20" fill="#47433e" stroke="#47433e" /><circle cx="323.4043562857153" cy="392.8945055639384" r="20" fill="#7644e8" stroke="#7644e8" /><circle cx="548.0275183471085" cy="74.79032828688523" r="20" fill="#5fc1ee" stroke="#5fc1ee" /><circle cx="586.5678608592747" cy="363.7112154922271" r="20" fill="#7dcce" stroke="#7dcce" /><circle cx="420.53131424443967" cy="322.2499256135136" r="20" fill="#a59f19" stroke="#a59f19" /><circle cx="350.3017800411669" cy="258.5986203214121" r="20" fill="#64961e" stroke="#64961e" /><circle cx="366.4856069853083" cy="550.152045091436" r="20" fill="#a33161" stroke="#a33161" /><circle cx="597.574301772273" cy="296.7209412222241" r="20" fill="#1323cd" stroke="#1323cd" /><circle cx="310.027686584373" cy="554.6064940031099" r="20" fill="#cbcbf8" stroke="#cbcbf8" /><circle cx="468.9969529765285" cy="147.09635468003418" r="20" fill="#5a4265" stroke="#5a4265" /><circle cx="515.6297280116672" cy="234.06988538748706" r="20" fill="#3c3b5" stroke="#3c3b5" /><circle cx="475.7720020936382" cy="549.5256327484526" r="20" fill="#ba59da" stroke="#ba59da" /><circle cx="109.30815143564816" cy="100.6104519022422" r="20" fill="#d3069d" stroke="#d3069d" /><circle cx="245.67587049771134" cy="324.02429136933404" r="20" fill="#aca3b6" stroke="#aca3b6" /><circle cx="386.3803778901648" cy="314.44338924381253" r="20" fill="#b763f6" stroke="#b763f6" /><circle cx="565.315424548496" cy="234.32218249707216" r="20" fill="#fb1dbc" stroke="#fb1dbc" /><circle cx="442.77074610998585" cy="235.62260059474212" r="20" fill="#1bdc62" stroke="#1bdc62" /><circle cx="340.01112136414025" cy="119.97252184321003" r="20" fill="#f65bf6" stroke="#f65bf6" /><circle cx="157.11921934979407" cy="515.0315955276384" r="20" fill="#53f408" stroke="#53f408" /><circle cx="16.11743379354116" cy="317.0223280745053" r="20" fill="#bf408" stroke="#bf408" /><circle cx="593.9344268877397" cy="433.26760257924906" r="20" fill="#e60adb" stroke="#e60adb" /><circle cx="285.88207985246703" cy="96.50301391562431" r="20" fill="#623252" stroke="#623252" /><circle cx="437.61180558006674" cy="337.9760222077093" r="20" fill="#68b6a8" stroke="#68b6a8" /><circle cx="519.3247686235117" cy="358.06208886010023" r="20" fill="#f3f25f" stroke="#f3f25f" /><circle cx="559.073250169088" cy="593.9407787741729" r="20" fill="#da85f1" stroke="#da85f1" /><circle cx="133.93681373033766" cy="416.0126351450576" r="20" fill="#53f069" stroke="#53f069" /><circle cx="580.5534165601692" cy="406.31402517999874" r="20" fill="#93e7f2" stroke="#93e7f2" /><circle cx="418.93576630439867" cy="170.71410383717333" r="20" fill="#e56fbe" stroke="#e56fbe" /><circle cx="208.48232059213322" cy="244.8946038917208" r="20" fill="#a94797" stroke="#a94797" /><circle cx="59.26035365121432" cy="61.24105386862375" r="20" fill="#3b6eec" stroke="#3b6eec" /><circle cx="431.03640271010397" cy="368.9982284597127" r="20" fill="#865062" stroke="#865062" /><circle cx="103.18045326035201" cy="421.4000931441029" r="20" fill="#5da20a" stroke="#5da20a" /><circle cx="182.36602772971088" cy="471.8215307300258" r="20" fill="#a5b047" stroke="#a5b047" /><circle cx="210.2100495196486" cy="264.32464667653534" r="20" fill="#ba1fdb" stroke="#ba1fdb" /><circle cx="291.40404077343265" cy="38.93675410913868" r="20" fill="#30a8d1" stroke="#30a8d1" /><circle cx="316.2373016514965" cy="157.4418616242085" r="20" fill="#85cf67" stroke="#85cf67" /><circle cx="529.4718592312154" cy="175.26089824103929" r="20" fill="#878dce" stroke="#878dce" /><circle cx="116.58099132362474" cy="153.34090278599254" r="20" fill="#205e76" stroke="#205e76" /><circle cx="416.6989892042972" cy="61.68632109853274" r="20" fill="#d465de" stroke="#d465de" /><circle cx="418.93152581533144" cy="97.19263746388091" r="20" fill="#5bd85" stroke="#5bd85" /><circle cx="526.3031600060016" cy="363.0713150817963" r="20" fill="#f65b80" stroke="#f65b80" /><circle cx="11.661542348836962" cy="395.32196205129037" r="20" fill="#ba7287" stroke="#ba7287" /><circle cx="106.94711027804988" cy="237.1396824675711" r="20" fill="#d93ce9" stroke="#d93ce9" /><circle cx="423.10201126598616" cy="112.5075945823506" r="20" fill="#b8bac6" stroke="#b8bac6" /><circle cx="289.86474163896634" cy="220.16827587722446" r="20" fill="#841f47" stroke="#841f47" /><circle cx="423.33999618850396" cy="217.65264510279502" r="20" fill="#ea569b" stroke="#ea569b" /><circle cx="528.7014626353352" cy="180.9642468604872" r="20" fill="#f163c" stroke="#f163c" /><circle cx="204.80118766075265" cy="420.7393574704266" r="20" fill="#d7f358" stroke="#d7f358" /><circle cx="349.09577215598745" cy="367.3472026551174" r="20" fill="#db7458" stroke="#db7458" /><circle cx="465.5528953025763" cy="136.8395032588423" r="20" fill="#20c151" stroke="#20c151" /><circle cx="210.3554886333844" cy="467.91099654355486" r="20" fill="#6ff035" stroke="#6ff035" /><circle cx="492.0244109312812" cy="51.95620591260628" r="20" fill="#cf20a7" stroke="#cf20a7" /><circle cx="371.38585602499893" cy="541.012384683772" r="20" fill="#19c917" stroke="#19c917" /><circle cx="15.24803796786216" cy="264.6426811181582" r="20" fill="#f20e71" stroke="#f20e71" /><circle cx="76.17624416072628" cy="309.9687517710517" r="20" fill="#6029e3" stroke="#6029e3" /><circle cx="467.94781122724305" cy="593.5655645849303" r="20" fill="#9dc818" stroke="#9dc818" /><circle cx="425.4395569122859" cy="374.80877549351175" r="20" fill="#965c7c" stroke="#965c7c" /><circle cx="419.9114987341278" cy="212.26396149183904" r="20" fill="#92c65b" stroke="#92c65b" /><circle cx="573.2594922339465" cy="45.920905978329294" r="20" fill="#f0b93e" stroke="#f0b93e" /><circle cx="122.49105878945721" cy="508.35731907665183" r="20" fill="#6cb9ac" stroke="#6cb9ac" /><circle cx="550.1165522750458" cy="15.375603260315973" r="20" fill="#2caa55" stroke="#2caa55" /><circle cx="594.7504992136691" cy="544.101669570356" r="20" fill="#879e0c" stroke="#879e0c" /><circle cx="379.1352145864605" cy="494.1577799106536" r="20" fill="#4d888" stroke="#4d888" /><circle cx="486.70935384734946" cy="351.65294079529656" r="20" fill="#a989ea" stroke="#a989ea" /><circle cx="167.45199583278213" cy="308.88231289597724" r="20" fill="#84aafd" stroke="#84aafd" /><circle cx="568.3606123096746" cy="538.3131750165485" r="20" fill="#418c0f" stroke="#418c0f" /><circle cx="450.8119642931231" cy="258.5957976715159" r="20" fill="#8b029f" stroke="#8b029f" /><circle cx="431.807045089414" cy="267.3975571024187" r="20" fill="#d8cf8" stroke="#d8cf8" /><circle cx="233.9347682975592" cy="526.920709792456" r="20" fill="#f94482" stroke="#f94482" /><circle cx="492.83384597316314" cy="349.16844455988263" r="20" fill="#67c9dd" stroke="#67c9dd" /><circle cx="187.3760124308294" cy="396.62179315492244" r="20" fill="#d04535" stroke="#d04535" /><circle cx="590.7939661949781" cy="347.906994089698" r="20" fill="#1b0455" stroke="#1b0455" /><circle cx="536.9202609310194" cy="359.8887848727204" r="20" fill="#2d6cd6" stroke="#2d6cd6" /><circle cx="548.8033574506464" cy="339.35119130625446" r="20" fill="#b6f60d" stroke="#b6f60d" /><circle cx="493.1705372574164" cy="522.74358544769" r="20" fill="#ce9df7" stroke="#ce9df7" /><circle cx="232.89485856149952" cy="390.46679043862196" r="20" fill="#271397" stroke="#271397" /><circle cx="349.31447196483145" cy="588.4171615848836" r="20" fill="#f04730" stroke="#f04730" /><circle cx="557.159073617435" cy="563.5792052939292" r="20" fill="#9c76f0" stroke="#9c76f0" /><circle cx="124.84954080791995" cy="535.3488406192823" r="20" fill="#8cf66a" stroke="#8cf66a" /><circle cx="306.3203868337751" cy="583.7809542344376" r="20" fill="#3ba7c1" stroke="#3ba7c1" /><circle cx="595.7644596051357" cy="428.2414893587899" r="20" fill="#4ef6c6" stroke="#4ef6c6" /><circle cx="98.83714015692009" cy="415.3259224870321" r="20" fill="#c3c98f" stroke="#c3c98f" /><circle cx="422.43079440239285" cy="80.84995050110896" r="20" fill="#d47dfc" stroke="#d47dfc" /><circle cx="217.6116974578144" cy="277.5810156059807" r="20" fill="#847b33" stroke="#847b33" /><circle cx="69.59100189060993" cy="128.15808208062097" r="20" fill="#c94a7e" stroke="#c94a7e" /><circle cx="461.3962147053242" cy="286.07435932064817" r="20" fill="#584142" stroke="#584142" /><circle cx="415.14471881335606" cy="413.42490422021785" r="20" fill="#d425e6" stroke="#d425e6" /><circle cx="176.62877635562077" cy="359.5277426001956" r="20" fill="#5431c0" stroke="#5431c0" /><circle cx="372.9084579483839" cy="424.5748114722315" r="20" fill="#1282ff" stroke="#1282ff" /><circle cx="470.79940486859823" cy="402.8688402883892" r="20" fill="#bbe286" stroke="#bbe286" /><circle cx="367.15445695450506" cy="290.85761467819947" r="20" fill="#ace14c" stroke="#ace14c" /><circle cx="49.023394752835436" cy="46.27077160301112" r="20" fill="#ba9b53" stroke="#ba9b53" /><circle cx="520.442287735458" cy="462.9315259609784" r="20" fill="#815ba6" stroke="#815ba6" /><circle cx="580.0939603053484" cy="573.6746994283194" r="20" fill="#61133a" stroke="#61133a" /><circle cx="484.7195791262891" cy="396.24692915265905" r="20" fill="#cc052d" stroke="#cc052d" /><circle cx="457.99400999521066" cy="148.49619068030475" r="20" fill="#cb2215" stroke="#cb2215" /><circle cx="33.812857515625126" cy="449.3389605783253" r="20" fill="#4d1468" stroke="#4d1468" /><circle cx="540.2027870907135" cy="183.476752855138" r="20" fill="#30069" stroke="#30069" /><circle cx="208.7843400814034" cy="147.94315315845964" r="20" fill="#4835fb" stroke="#4835fb" /><circle cx="160.35455345722727" cy="243.6739322097389" r="20" fill="#5d3ad6" stroke="#5d3ad6" /><circle cx="520.4113498393718" cy="280.98111531904044" r="20" fill="#2eada4" stroke="#2eada4" /><circle cx="575.4972357648192" cy="495.2769219687703" r="20" fill="#e71461" stroke="#e71461" /><circle cx="226.799754518174" cy="387.3865971988457" r="20" fill="#df83eb" stroke="#df83eb" /><circle cx="178.86939852774782" cy="467.6411451863793" r="20" fill="#5acf01" stroke="#5acf01" /><circle cx="433.3324507823651" cy="387.97123120571536" r="20" fill="#bc97eb" stroke="#bc97eb" /><circle cx="200.5656073431048" cy="113.59533893325518" r="20" fill="#d1f569" stroke="#d1f569" /><circle cx="50.044293601609404" cy="133.12885694174935" r="20" fill="#345496" stroke="#345496" /><circle cx="303.58178236162894" cy="522.6567781876417" r="20" fill="#45c57c" stroke="#45c57c" /><circle cx="60.75903787098551" cy="554.6760725436122" r="20" fill="#dff058" stroke="#dff058" /><circle cx="479.51341604490295" cy="301.0561304467182" r="20" fill="#5259f" stroke="#5259f" /><circle cx="423.21312647508694" cy="530.0378325760345" r="20" fill="#d70678" stroke="#d70678" /><circle cx="177.89899492265982" cy="209.3517417311888" r="20" fill="#796540" stroke="#796540" /><circle cx="354.64486982374956" cy="374.619766610538" r="20" fill="#49cf7a" stroke="#49cf7a" /><circle cx="300.5880408863198" cy="301.9490393400668" r="20" fill="#734152" stroke="#734152" /><circle cx="184.2301631363045" cy="323.5838660433174" r="20" fill="#2be399" stroke="#2be399" /><circle cx="31.375993712769514" cy="496.54326679395837" r="20" fill="#448cab" stroke="#448cab" /><circle cx="241.19800652578053" cy="266.46040232414623" r="20" fill="#c83e55" stroke="#c83e55" /><circle cx="246.71134382262392" cy="287.5201931577059" r="20" fill="#759e30" stroke="#759e30" /><circle cx="590.972120415896" cy="441.3736483810716" r="20" fill="#61db9c" stroke="#61db9c" /><circle cx="422.74758499612915" cy="294.98690788625623" r="20" fill="#d0fe34" stroke="#d0fe34" /><circle cx="158.9781570137626" cy="64.91765658491447" r="20" fill="#82f8c6" stroke="#82f8c6" /><circle cx="449.75708772712346" cy="182.42489597731185" r="20" fill="#895c6" stroke="#895c6" /><circle cx="526.9347634621555" cy="184.40147396145215" r="20" fill="#1bcbb5" stroke="#1bcbb5" /><circle cx="558.7194867738133" cy="533.1578995538349" r="20" fill="#b9d20e" stroke="#b9d20e" /><circle cx="384.17030713647955" cy="183.0588362045145" r="20" fill="#52d08c" stroke="#52d08c" /><circle cx="68.55372013963365" cy="367.89982751134806" r="20" fill="#e114df" stroke="#e114df" /><circle cx="458.0446474176393" cy="396.82811037142204" r="20" fill="#1366d3" stroke="#1366d3" /><circle cx="280.16134845486795" cy="528.4092728459032" r="20" fill="#90e8f2" stroke="#90e8f2" /><circle cx="60.725641823056705" cy="40.532188189075534" r="20" fill="#3217b" stroke="#3217b" /><circle cx="143.70413844642437" cy="279.36694087308626" r="20" fill="#d963e9" stroke="#d963e9" /><circle cx="413.39126960076646" cy="418.0944474086027" r="20" fill="#4aff05" stroke="#4aff05" /><circle cx="442.1719093043537" cy="443.9412736475108" r="20" fill="#17372f" stroke="#17372f" /><circle cx="263.1813790764134" cy="547.868227249637" r="20" fill="#88e08a" stroke="#88e08a" /><circle cx="499.78774659665237" cy="538.3862899739062" r="20" fill="#f73cb4" stroke="#f73cb4" /><circle cx="10.736747821297143" cy="560.8618155922707" r="20" fill="#8bab64" stroke="#8bab64" /><circle cx="232.4608794348845" cy="203.71212204987916" r="20" fill="#e64371" stroke="#e64371" /><circle cx="390.7352325596856" cy="51.202858633249804" r="20" fill="#77a560" stroke="#77a560" /><circle cx="597.3094833130168" cy="280.3966687598612" r="20" fill="#fc5577" stroke="#fc5577" /><circle cx="522.011294115693" cy="243.16747198686363" r="20" fill="#f7240" stroke="#f7240" /><circle cx="422.5047504434852" cy="5.4480223603703415" r="20" fill="#8e07d7" stroke="#8e07d7" /><circle cx="272.4570881217894" cy="276.10292470268865" r="20" fill="#4a4dc9" stroke="#4a4dc9" /><circle cx="342.5284880950539" cy="295.49613523183353" r="20" fill="#68ef64" stroke="#68ef64" /><circle cx="164.71629635917955" cy="129.60373320187415" r="20" fill="#82c60c" stroke="#82c60c" /><circle cx="189.42953192161767" cy="379.3191437341228" r="20" fill="#50092f" stroke="#50092f" /><circle cx="160.19591253724127" cy="369.81587861629066" r="20" fill="#f32346" stroke="#f32346" /><circle cx="280.27254142394446" cy="514.3559510565537" r="20" fill="#2ccc13" stroke="#2ccc13" /><circle cx="306.3908727119606" cy="76.20196151703146" r="20" fill="#bfdc11" stroke="#bfdc11" /><circle cx="435.20348838793865" cy="55.382143660401084" r="20" fill="#1a2b25" stroke="#1a2b25" /><circle cx="292.77986326490594" cy="389.940804898266" r="20" fill="#3e02f9" stroke="#3e02f9" /><circle cx="536.7991835080672" cy="217.2081618254986" r="20" fill="#10a6bc" stroke="#10a6bc" /><circle cx="339.7315501393836" cy="309.89508137324157" r="20" fill="#c2efce" stroke="#c2efce" /><circle cx="448.2095240239437" cy="524.363922206783" r="20" fill="#dbac67" stroke="#dbac67" /><circle cx="232.13660565166455" cy="473.3717560021075" r="20" fill="#47caad" stroke="#47caad" /><circle cx="535.4456728398458" cy="88.35412700614782" r="20" fill="#c1a63f" stroke="#c1a63f" /><circle cx="60.06593960546858" cy="334.5837949579826" r="20" fill="#43d13" stroke="#43d13" /><circle cx="360.2434872061862" cy="246.49915549559202" r="20" fill="#2857a2" stroke="#2857a2" /><circle cx="157.70521252336675" cy="240.8181481150438" r="20" fill="#1f234e" stroke="#1f234e" /><circle cx="325.5184497524369" cy="434.739336738413" r="20" fill="#3e6445" stroke="#3e6445" /><circle cx="213.38169863771284" cy="124.03118746207494" r="20" fill="#4e5812" stroke="#4e5812" /><circle cx="175.04687278208095" cy="103.60627704007524" r="20" fill="#65c4ce" stroke="#65c4ce" /><circle cx="88.73623003425703" cy="290.54358339355014" r="20" fill="#37ba9a" stroke="#37ba9a" /><circle cx="546.7827617146744" cy="458.42613426128173" r="20" fill="#7ef1e7" stroke="#7ef1e7" /><circle cx="129.05750564045647" cy="155.25813765514164" r="20" fill="#49511d" stroke="#49511d" /><circle cx="23.71078516182754" cy="434.2600961146914" r="20" fill="#1cabcb" stroke="#1cabcb" /><circle cx="101.11741038295831" cy="30.255047376162825" r="20" fill="#b35b49" stroke="#b35b49" /><circle cx="419.4982695587365" cy="234.23492176308534" r="20" fill="#d7b335" stroke="#d7b335" /><circle cx="28.492967419994653" cy="518.2600779021167" r="20" fill="#ff6851" stroke="#ff6851" /><circle cx="43.87690044023485" cy="92.18247175267811" r="20" fill="#86b92a" stroke="#86b92a" /><circle cx="562.8053261555328" cy="44.85787070058134" r="20" fill="#5b73b1" stroke="#5b73b1" /><circle cx="279.12904670062983" cy="473.8156614130796" r="20" fill="#95516c" stroke="#95516c" /><circle cx="445.3976136534989" cy="113.27605906940418" r="20" fill="#81fa92" stroke="#81fa92" /><circle cx="233.29172966274965" cy="254.00884298737344" r="20" fill="#a9e17b" stroke="#a9e17b" /><circle cx="447.7059371601872" cy="324.39199610452533" r="20" fill="#e1b004" stroke="#e1b004" /><circle cx="229.56650636592778" cy="514.3939531811277" r="20" fill="#4b8224" stroke="#4b8224" /><circle cx="129.37355083883824" cy="338.2303214267234" r="20" fill="#8583f7" stroke="#8583f7" /><circle cx="498.21189855156365" cy="201.82736996589477" r="20" fill="#3572c5" stroke="#3572c5" /><circle cx="229.3041843160284" cy="21.82914111964309" r="20" fill="#da1903" stroke="#da1903" /><circle cx="490.1983649597616" cy="7.767028754846761" r="20" fill="#3dc2a0" stroke="#3dc2a0" /><circle cx="430.6553475195929" cy="155.68745795125793" r="20" fill="#24e859" stroke="#24e859" /><circle cx="162.33481881363977" cy="513.2556888356534" r="20" fill="#447881" stroke="#447881" /><circle cx="116.74531909807872" cy="413.1849597450165" r="20" fill="#f01185" stroke="#f01185" /><circle cx="168.45349393414924" cy="260.82736816592546" r="20" fill="#820b0b" stroke="#820b0b" /><circle cx="488.3062468556339" cy="8.335864628977596" r="20" fill="#1daa41" stroke="#1daa41" /><circle cx="0.958933082640101" cy="396.42735963494647" r="20" fill="#231f17" stroke="#231f17" /><circle cx="502.586365954514" cy="278.26859584358704" r="20" fill="#12c770" stroke="#12c770" /><circle cx="493.7965914060734" cy="415.8509049701849" r="20" fill="#2fe212" stroke="#2fe212" /><circle cx="282.2318567757661" cy="76.62355387175457" r="20" fill="#7eaffc" stroke="#7eaffc" /><circle cx="30.984932532118002" cy="222.11370952959163" r="20" fill="#e80187" stroke="#e80187" /><circle cx="79.1809424143449" cy="524.1732760864954" r="20" fill="#ae8824" stroke="#ae8824" /><circle cx="497.00919806166394" cy="3.0341236803518523" r="20" fill="#ef804c" stroke="#ef804c" /><circle cx="152.23997055184066" cy="104.0065794323993" r="20" fill="#346053" stroke="#346053" /><circle cx="246.30554374996208" cy="548.1424384705849" r="20" fill="#3f2822" stroke="#3f2822" /><circle cx="51.352959215748314" cy="568.782308575108" r="20" fill="#29c863" stroke="#29c863" /><circle cx="145.85660288942827" cy="84.9412801529367" r="20" fill="#cd8423" stroke="#cd8423" /><circle cx="468.84799693742764" cy="64.66756753768736" r="20" fill="#cd92c9" stroke="#cd92c9" /><circle cx="405.53546932840794" cy="573.5518970837371" r="20" fill="#f9d138" stroke="#f9d138" /><circle cx="436.05421108522904" cy="325.64329379767554" r="20" fill="#6db1d9" stroke="#6db1d9" /><circle cx="227.91781540195308" cy="362.83529250576356" r="20" fill="#f12c8e" stroke="#f12c8e" /><circle cx="267.5899125158188" cy="416.9398215708527" r="20" fill="#f19cb6" stroke="#f19cb6" /><circle cx="245.46337928092802" cy="433.65650896111833" r="20" fill="#6164a1" stroke="#6164a1" /><circle cx="290.188835147848" cy="187.53425702772174" r="20" fill="#350929" stroke="#350929" /><circle cx="550.0971460228906" cy="446.2219117214445" r="20" fill="#b0f8a5" stroke="#b0f8a5" /><circle cx="190.76500037604433" cy="38.59597431124953" r="20" fill="#11bc30" stroke="#11bc30" /><circle cx="333.0703508784883" cy="287.1730679223526" r="20" fill="#9562da" stroke="#9562da" /><circle cx="221.92938048330726" cy="413.8030847023244" r="20" fill="#3a7941" stroke="#3a7941" /><circle cx="157.6662800920734" cy="318.1565809868859" r="20" fill="#6f02fe" stroke="#6f02fe" /><circle cx="291.0444489905559" cy="358.2299398863958" r="20" fill="#580efc" stroke="#580efc" /><circle cx="236.6338150329181" cy="531.0777443905775" r="20" fill="#825354" stroke="#825354" /><circle cx="436.87539388272944" cy="515.502654492183" r="20" fill="#59747f" stroke="#59747f" /><circle cx="476.41042115750935" cy="331.66693940919527" r="20" fill="#357094" stroke="#357094" /><circle cx="118.86410224784365" cy="229.71133825063612" r="20" fill="#2c5910" stroke="#2c5910" /><circle cx="502.9843833384682" cy="246.45970654967599" r="20" fill="#dcdca1" stroke="#dcdca1" /><circle cx="465.0156477321686" cy="546.8665904748341" r="20" fill="#32a960" stroke="#32a960" /><circle cx="97.21017719320612" cy="151.2780330975147" r="20" fill="#5d1842" stroke="#5d1842" /><circle cx="464.5983286834531" cy="482.31021105279746" r="20" fill="#b52584" stroke="#b52584" /><circle cx="8.81875931812739" cy="292.99174568993413" r="20" fill="#7f66e" stroke="#7f66e" /><circle cx="381.9965546199326" cy="261.7019335288286" r="20" fill="#f43b06" stroke="#f43b06" /><circle cx="569.644526454183" cy="233.3613722425893" r="20" fill="#1d3bd2" stroke="#1d3bd2" /><circle cx="145.4733076923619" cy="408.88698151846256" r="20" fill="#df6066" stroke="#df6066" /><circle cx="300.7319262735211" cy="564.6278642175474" r="20" fill="#3ee431" stroke="#3ee431" /><circle cx="289.6927159598674" cy="193.0846712290295" r="20" fill="#ca9b0e" stroke="#ca9b0e" /><circle cx="181.83327126353313" cy="315.77476960299606" r="20" fill="#4248c" stroke="#4248c" /><circle cx="243.8127760680545" cy="409.4011815449915" r="20" fill="#1d7687" stroke="#1d7687" /><circle cx="251.76370350227484" cy="527.181416017124" r="20" fill="#e7acba" stroke="#e7acba" /><circle cx="458.0233028398365" cy="425.93269225990906" r="20" fill="#6eadbb" stroke="#6eadbb" /><circle cx="356.464856504481" cy="100.83603836505186" r="20" fill="#6a5a2e" stroke="#6a5a2e" /><circle cx="216.9337078157193" cy="171.39088284116335" r="20" fill="#9b1b63" stroke="#9b1b63" /><circle cx="317.76814447035736" cy="503.3507898897098" r="20" fill="#aa9b85" stroke="#aa9b85" /><circle cx="503.15215618947013" cy="358.19186999833505" r="20" fill="#afa771" stroke="#afa771" /><circle cx="59.49681286989268" cy="141.89807194229766" r="20" fill="#f10517" stroke="#f10517" /><circle cx="202.08177142721064" cy="120.54284374853496" r="20" fill="#80d32f" stroke="#80d32f" /><circle cx="525.0859749292069" cy="124.68468640548274" r="20" fill="#eb3ed0" stroke="#eb3ed0" /><circle cx="439.74771470815745" cy="395.6320672447133" r="20" fill="#471da9" stroke="#471da9" /><circle cx="327.843983680654" cy="382.2278627775942" r="20" fill="#2c799d" stroke="#2c799d" /><circle cx="193.08205785117005" cy="75.1590751876141" r="20" fill="#279865" stroke="#279865" /><circle cx="254.30885165401213" cy="332.411037396565" r="20" fill="#fc9606" stroke="#fc9606" /><circle cx="505.18008428582425" cy="589.084768402191" r="20" fill="#db6603" stroke="#db6603" /><circle cx="517.3509065854239" cy="374.49115152566736" r="20" fill="#c179a7" stroke="#c179a7" /><circle cx="204.29710144955487" cy="63.35214985958877" r="20" fill="#751cd4" stroke="#751cd4" /><circle cx="297.3576692842812" cy="213.39721456604272" r="20" fill="#d0d83d" stroke="#d0d83d" /><circle cx="261.1788061508401" cy="371.2624051633101" r="20" fill="#66618a" stroke="#66618a" /><circle cx="153.82880735532544" cy="512.0788786537302" r="20" fill="#429386" stroke="#429386" /><circle cx="352.97053034022997" cy="112.21513425798206" r="20" fill="#383c28" stroke="#383c28" /><circle cx="355.85315574781004" cy="315.55111219973986" r="20" fill="#798151" stroke="#798151" /><circle cx="280.9133080613225" cy="145.03619248226224" r="20" fill="#44ef06" stroke="#44ef06" /><circle cx="369.1286283407103" cy="310.8132376205392" r="20" fill="#1fa60a" stroke="#1fa60a" /><circle cx="392.7091263002384" cy="458.8369184324099" r="20" fill="#b34e29" stroke="#b34e29" /><circle cx="285.93517422152723" cy="379.3221813684114" r="20" fill="#72e7c7" stroke="#72e7c7" /><circle cx="527.2147081426815" cy="81.65697995775139" r="20" fill="#2cf21f" stroke="#2cf21f" /><circle cx="7.148589314901876" cy="372.5622410477516" r="20" fill="#b15af5" stroke="#b15af5" /><circle cx="599.2078559226456" cy="202.27289540314408" r="20" fill="#a2675b" stroke="#a2675b" /><circle cx="484.24423798719886" cy="16.847728475524228" r="20" fill="#eec054" stroke="#eec054" /><circle cx="16.695874455526784" cy="486.2431596052203" r="20" fill="#50622f" stroke="#50622f" /><circle cx="51.26285820412999" cy="163.1036412407596" r="20" fill="#e0f362" stroke="#e0f362" /><circle cx="34.16762225995651" cy="543.4101359492727" r="20" fill="#6e3a7b" stroke="#6e3a7b" /><circle cx="391.0808143650835" cy="380.8624218884992" r="20" fill="#9e51e9" stroke="#9e51e9" /><circle cx="204.9656694400327" cy="355.66652904573766" r="20" fill="#38362e" stroke="#38362e" /><circle cx="183.81622065834304" cy="440.0466342363423" r="20" fill="#f01fad" stroke="#f01fad" /><circle cx="157.15134902357426" cy="204.40203365489728" r="20" fill="#dcf62e" stroke="#dcf62e" /><circle cx="438.2964066208504" cy="378.5772968160559" r="20" fill="#56f6d0" stroke="#56f6d0" /><circle cx="491.9477416767236" cy="423.88411872328464" r="20" fill="#86b9d6" stroke="#86b9d6" /><circle cx="255.28280679241794" cy="453.12397163630493" r="20" fill="#d2c299" stroke="#d2c299" /><circle cx="237.62125772057843" cy="509.19737807451554" r="20" fill="#25db4f" stroke="#25db4f" /><circle cx="25.9311044887069" cy="164.66129206562448" r="20" fill="#56581" stroke="#56581" /><circle cx="205.68177062298423" cy="366.49929167633644" r="20" fill="#102a25" stroke="#102a25" /><circle cx="142.2198334667867" cy="271.88289907345944" r="20" fill="#39ac51" stroke="#39ac51" /><circle cx="403.97231744557575" cy="192.11211086906897" r="20" fill="#488c7d" stroke="#488c7d" /><circle cx="170.17162837880738" cy="105.19772452359976" r="20" fill="#e1bfa3" stroke="#e1bfa3" /><circle cx="459.373529769166" cy="509.46305998744606" r="20" fill="#a625da" stroke="#a625da" /><circle cx="412.7320078869129" cy="75.90606553964112" r="20" fill="#582edb" stroke="#582edb" /><circle cx="224.3827543686199" cy="557.8484898189629" r="20" fill="#414d65" stroke="#414d65" /><circle cx="85.40405215496097" cy="507.9991098763965" r="20" fill="#bc24aa" stroke="#bc24aa" /><circle cx="457.4746657373929" cy="43.06255725552206" r="20" fill="#17b78" stroke="#17b78" /><circle cx="518.4056122390845" cy="30.355303011350898" r="20" fill="#a86cda" stroke="#a86cda" /><circle cx="432.8210625718031" cy="29.08367568473338" r="20" fill="#ec229b" stroke="#ec229b" /><circle cx="389.9998779874435" cy="560.3841635249645" r="20" fill="#331370" stroke="#331370" /><circle cx="546.2842259218561" cy="101.97758138579638" r="20" fill="#e3ed39" stroke="#e3ed39" /><circle cx="32.64087346084112" cy="344.62550326667906" r="20" fill="#bab370" stroke="#bab370" /><circle cx="243.00112940592413" cy="126.3773305617247" r="20" fill="#8dd9" stroke="#8dd9" /><circle cx="210.64326136871853" cy="516.7794714041686" r="20" fill="#5002aa" stroke="#5002aa" /><circle cx="24.888762437300738" cy="72.94686554681769" r="20" fill="#1d091" stroke="#1d091" /><circle cx="37.11912842215441" cy="568.4617703500248" r="20" fill="#477028" stroke="#477028" /><circle cx="258.6395591816723" cy="447.47241582762695" r="20" fill="#802104" stroke="#802104" /><circle cx="573.9272422562098" cy="561.7411593036094" r="20" fill="#20382b" stroke="#20382b" /><circle cx="122.60406886367434" cy="582.0229105050474" r="20" fill="#455b2d" stroke="#455b2d" /><circle cx="317.8434811865416" cy="233.71407522035375" r="20" fill="#7efa72" stroke="#7efa72" /><circle cx="387.4662052991292" cy="48.58617650734676" r="20" fill="#e4c243" stroke="#e4c243" /><circle cx="30.710131335169688" cy="412.5105878973759" r="20" fill="#5e7b20" stroke="#5e7b20" /><circle cx="206.66590186572296" cy="338.59443532833217" r="20" fill="#759b85" stroke="#759b85" /><circle cx="106.49479969148086" cy="378.5405472313004" r="20" fill="#f99cdf" stroke="#f99cdf" /><circle cx="380.5269026899366" cy="75.7542688550116" r="20" fill="#f6d969" stroke="#f6d969" /><circle cx="184.82353379335132" cy="476.3473902112209" r="20" fill="#cb93e6" stroke="#cb93e6" /><circle cx="324.34416543352313" cy="594.0642293599387" r="20" fill="#817be7" stroke="#817be7" /><circle cx="164.80927972354408" cy="95.09869722015858" r="20" fill="#68d92" stroke="#68d92" /><circle cx="208.92134648431914" cy="70.38546530636039" r="20" fill="#de437b" stroke="#de437b" /><circle cx="245.95556621826006" cy="318.1965302513043" r="20" fill="#f3c8ef" stroke="#f3c8ef" /><circle cx="406.46733077702874" cy="568.6392288069815" r="20" fill="#9e2c3a" stroke="#9e2c3a" /><circle cx="573.2517508617876" cy="208.9645414426778" r="20" fill="#8b3fa2" stroke="#8b3fa2" /><circle cx="583.460739016247" cy="11.99231850056628" r="20" fill="#335578" stroke="#335578" /><circle cx="506.18321981277245" cy="296.86287835142025" r="20" fill="#75ffa0" stroke="#75ffa0" /><circle cx="187.28109549680943" cy="409.43575180050203" r="20" fill="#560b28" stroke="#560b28" /><circle cx="341.43038032722893" cy="434.71288712075557" r="20" fill="#ce394" stroke="#ce394" /><circle cx="340.1880345415896" cy="11.600709514818552" r="20" fill="#bb4c70" stroke="#bb4c70" /><circle cx="238.17314839874672" cy="78.475574913073" r="20" fill="#320d52" stroke="#320d52" /><circle cx="532.65126883637" cy="105.74026699166672" r="20" fill="#86ce1c" stroke="#86ce1c" /><circle cx="335.7725096683523" cy="246.56800613240998" r="20" fill="#d1cd91" stroke="#d1cd91" /><circle cx="518.7845627119005" cy="221.0247649011838" r="20" fill="#501daa" stroke="#501daa" /><circle cx="194.92475333829228" cy="388.4044267651652" r="20" fill="#24122a" stroke="#24122a" /><circle cx="386.3870245781431" cy="74.78199682595621" r="20" fill="#6abb4c" stroke="#6abb4c" /><circle cx="564.0701881764538" cy="474.1265349126314" r="20" fill="#bd4ec6" stroke="#bd4ec6" /><circle cx="260.53398700424555" cy="344.1619092390114" r="20" fill="#1e4466" stroke="#1e4466" /><circle cx="86.01670063694749" cy="595.9416439041283" r="20" fill="#d89c85" stroke="#d89c85" /><circle cx="60.00466450121067" cy="155.91017588700345" r="20" fill="#15d09f" stroke="#15d09f" /><circle cx="157.9461300059328" cy="482.50857916085386" r="20" fill="#972844" stroke="#972844" /><circle cx="433.71994113196945" cy="66.69824761292786" r="20" fill="#b33d50" stroke="#b33d50" /><circle cx="384.69739468500654" cy="202.06232080383603" r="20" fill="#4a6476" stroke="#4a6476" /><circle cx="315.4450321570877" cy="293.85297853615697" r="20" fill="#b028eb" stroke="#b028eb" /><circle cx="209.74049991072155" cy="222.99682630631543" r="20" fill="#72ef62" stroke="#72ef62" /><circle cx="513.0677017267628" cy="496.21759535788135" r="20" fill="#d93a83" stroke="#d93a83" /><circle cx="112.43657670772009" cy="455.8394425039503" r="20" fill="#b5bc36" stroke="#b5bc36" /><circle cx="500.4034450008048" cy="274.89945647083044" r="20" fill="#582817" stroke="#582817" /><circle cx="185.19268792675604" cy="458.65264393989855" r="20" fill="#372484" stroke="#372484" /><circle cx="111.8459747003231" cy="537.797627273735" r="20" fill="#3126e" stroke="#3126e" /><circle cx="287.2673352450425" cy="325.2443033318678" r="20" fill="#e67458" stroke="#e67458" /><circle cx="458.57805521946284" cy="145.84189977533018" r="20" fill="#f4e6f9" stroke="#f4e6f9" /><circle cx="304.7767251036937" cy="196.0636775212903" r="20" fill="#4d2ec7" stroke="#4d2ec7" /><circle cx="42.95866793769161" cy="109.91172079106053" r="20" fill="#9ca93c" stroke="#9ca93c" /><circle cx="115.15518701727308" cy="461.63916660931466" r="20" fill="#318549" stroke="#318549" /><circle cx="537.2924798574481" cy="38.81471585525915" r="20" fill="#101e" stroke="#101e" /><circle cx="46.253005693687975" cy="358.97385370329283" r="20" fill="#fed581" stroke="#fed581" /><circle cx="240.25389500898294" cy="402.94259884596306" r="20" fill="#a6c93d" stroke="#a6c93d" /><circle cx="75.86402159154422" cy="42.33164981400881" r="20" fill="#f36696" stroke="#f36696" /><circle cx="176.7403159368139" cy="141.71416552824198" r="20" fill="#b1870b" stroke="#b1870b" /><circle cx="332.89232835143315" cy="463.7201896490332" r="20" fill="#df0f43" stroke="#df0f43" /><circle cx="133.27751241891778" cy="22.21333077979999" r="20" fill="#4d25a7" stroke="#4d25a7" /><circle cx="5.628929823224116" cy="436.9737211362855" r="20" fill="#e98fd2" stroke="#e98fd2" /><circle cx="189.04642908068806" cy="505.1194488732694" r="20" fill="#b8805d" stroke="#b8805d" /><circle cx="314.18445273823113" cy="158.42010978147258" r="20" fill="#7944d3" stroke="#7944d3" /><circle cx="374.24945336450304" cy="399.9879927770884" r="20" fill="#89c5d2" stroke="#89c5d2" /><circle cx="386.8881865640656" cy="49.11770876313155" r="20" fill="#668869" stroke="#668869" /><circle cx="265.9611990901424" cy="591.4836820359225" r="20" fill="#31dcc0" stroke="#31dcc0" /><circle cx="78.14060059300272" cy="372.5728786195432" r="20" fill="#1841ea" stroke="#1841ea" /><circle cx="404.1086333986533" cy="172.68826066633048" r="20" fill="#81efcd" stroke="#81efcd" /><circle cx="586.5840941594226" cy="325.85041725710886" r="20" fill="#5aa867" stroke="#5aa867" /><circle cx="585.090344072663" cy="413.8208491877429" r="20" fill="#7cd63d" stroke="#7cd63d" /><circle cx="137.4020646408253" cy="550.4040813824844" r="20" fill="#40ace" stroke="#40ace" /><circle cx="525.9231741061961" cy="205.32662951014967" r="20" fill="#b1324b" stroke="#b1324b" /><circle cx="147.30891368334906" cy="280.26958217542716" r="20" fill="#7a0d57" stroke="#7a0d57" /><circle cx="413.57933061142506" cy="545.0399637899558" r="20" fill="#c6ac80" stroke="#c6ac80" /><circle cx="107.87331555921162" cy="196.0698396999006" r="20" fill="#ccfb52" stroke="#ccfb52" /><circle cx="12.077402463313858" cy="350.2024491511991" r="20" fill="#79a5c3" stroke="#79a5c3" /><circle cx="158.14856390088102" cy="524.032342041242" r="20" fill="#abffa7" stroke="#abffa7" /><circle cx="153.34203333074953" cy="9.307667626040672" r="20" fill="#2275ee" stroke="#2275ee" /><circle cx="255.52040003296113" cy="71.4370070033961" r="20" fill="#8d6593" stroke="#8d6593" /><circle cx="297.55690434812385" cy="24.932949320334608" r="20" fill="#93cd35" stroke="#93cd35" /><circle cx="93.43377490671752" cy="4.616824929448082" r="20" fill="#d37d7a" stroke="#d37d7a" /><circle cx="64.35015717096229" cy="166.7559438271808" r="20" fill="#858a32" stroke="#858a32" /><circle cx="425.99319558243684" cy="116.70277175776738" r="20" fill="#82389b" stroke="#82389b" /><circle cx="484.66800902708906" cy="464.3754209737658" r="20" fill="#1aff1a" stroke="#1aff1a" /><circle cx="389.4143336478581" cy="125.17127699578019" r="20" fill="#ae496c" stroke="#ae496c" /><circle cx="41.729318164779585" cy="516.5936623318937" r="20" fill="#193647" stroke="#193647" /><circle cx="28.732145596332572" cy="461.28493882114907" r="20" fill="#67c309" stroke="#67c309" /><circle cx="150.85786806689586" cy="132.3557407680496" r="20" fill="#2669ab" stroke="#2669ab" /><circle cx="252.89353127057853" cy="328.5611284282593" r="20" fill="#6af080" stroke="#6af080" /><circle cx="23.631700656335617" cy="122.20504577176227" r="20" fill="#779952" stroke="#779952" /><circle cx="534.1771141080592" cy="417.01625959173066" r="20" fill="#7a7fbf" stroke="#7a7fbf" /><circle cx="447.9854110894666" cy="41.10129455036131" r="20" fill="#6da58d" stroke="#6da58d" /><circle cx="288.81122131216324" cy="396.7866132142357" r="20" fill="#dc8361" stroke="#dc8361" /><circle cx="257.03563507942135" cy="171.71030485442472" r="20" fill="#33e2b8" stroke="#33e2b8" /><circle cx="427.9529903725687" cy="516.1243071338394" r="20" fill="#a924e1" stroke="#a924e1" /><circle cx="146.49566789908812" cy="41.18975949371651" r="20" fill="#ff59e4" stroke="#ff59e4" /><circle cx="490.3973285502023" cy="57.96808964270572" r="20" fill="#4c59dd" stroke="#4c59dd" /><circle cx="552.3368142225938" cy="428.23737690110045" r="20" fill="#d91854" stroke="#d91854" /><circle cx="314.2088490605049" cy="214.24430541551277" r="20" fill="#a51c36" stroke="#a51c36" /><circle cx="75.00751906223738" cy="171.2677015777929" r="20" fill="#da4c00" stroke="#da4c00" /><circle cx="138.64727798287134" cy="160.18516728779025" r="20" fill="#f6f0c" stroke="#f6f0c" /><circle cx="488.0162407941732" cy="446.73654303805114" r="20" fill="#a389d1" stroke="#a389d1" /><circle cx="551.6895839821048" cy="281.4339048490357" r="20" fill="#596b70" stroke="#596b70" /><circle cx="65.97247817021197" cy="228.46505678135753" r="20" fill="#b5f188" stroke="#b5f188" />
  </svg>
