<svg xmlns="http://www.w3.org/2000/svg" width="600" height="600" viewBox="0 0 600 600">
    <circle cx="198.90804022674365" cy="195.4461105166053" r="20" fill="#d13ad8" stroke="#d13ad8" /><circle cx="171.13039706147316" cy="335.43556808292647" r="20" fill="#fe2f74" stroke="#fe2f74" /><circle cx="137.2981123430408" cy="576.5518652069434" r="20" fill="#731bd4" stroke="#731bd4" /><circle cx="512.540628819827" cy="50.13500226491176" r="20" fill="#70f0c5" stroke="#70f0c5" /><circle cx="502.7472188350567" cy="69.77563157788227" r="20" fill="#8dadde" stroke="#8dadde" /><circle cx="426.5156422001522" cy="204.5660078464495" r="20" fill="#3406d1" stroke="#3406d1" /><circle cx="526.6560882486447" cy="310.0840841721883" r="20" fill="#f6ca36" stroke="#f6ca36" /><circle cx="496.84728121900883" cy="191.09446766216575" r="20" fill="#d39208" stroke="#d39208" /><circle cx="252.43347819557846" cy="347.9362663568926" r="20" fill="#2bb618" stroke="#2bb618" /><circle cx="54.027065446496316" cy="367.00355283958766" r="20" fill="#cc2e6e" stroke="#cc2e6e" /><circle cx="266.9735469600574" cy="192.5699585727519" r="20" fill="#37723e" stroke="#37723e" /><circle cx="362.27630563641077" cy="311.62656861335967" r="20" fill="#caadf8" stroke="#caadf8" /><circle cx="80.66486296607734" cy="206.5194594984797" r="20" fill="#609028" stroke="#609028" /><circle cx="63.086848223852776" cy="241.83381636418022" r="20" fill="#85ea68" stroke="#85ea68" /><circle cx="298.24399906317535" cy="415.5641598655862" r="20" fill="#bd9588" stroke="#bd9588" /><circle cx="230.33370425293788" cy="70.85912981118997" r="20" fill="#d70216" stroke="#d70216" /><circle cx="156.7485393417795" cy="433.07002311643083" r="20" fill="#c27006" stroke="#c27006" /><circle cx="349.7479111561828" cy="338.0147235612704" r="20" fill="#d63fa5" stroke="#d63fa5" /><circle cx="507.6866489981007" cy="455.17259740607676" r="20" fill="#3e484f" stroke="#3e484f" /><circle cx="33.457203566956785" cy="303.9855367876005" r="20" fill="#78b39a" stroke="#78b39a" /><circle cx="465.6660530844847" cy="599.6901404618952" r="20" fill="#9025c7" stroke="#9025c7" /><circle cx="490.3438513847336" cy="560.1595941469001" r="20" fill="#232d6c" stroke="#232d6c" /><circle cx="150.34479856605688" cy="242.90164018307166" r="20" fill="#cf696d" stroke="#cf696d" /><circle cx="425.0372120387302" cy="400.02895347421304" r="20" fill="#3199ad" stroke="#3199ad" /><circle cx="184.08179938834698" cy="112.01442110925535" r="20" fill="#9a835" stroke="#9a835" /><circle cx="464.60445193903007" cy="511.15310620680776" r="20" fill="#b2ba0" stroke="#b2ba0" /><circle cx="455.47885301121863" cy="212.2698199110885" r="20" fill="#95485c" stroke="#95485c" /><circle cx="339.6011866153724" cy="449.00553600666893" r="20" fill="#32af0f" stroke="#32af0f" /><circle cx="465.39798175646854" cy="330.1503621187328" r="20" fill="#1fd6c8" stroke="#1fd6c8" /><circle cx="45.97868726255139" cy="123.84546386815587" r="20" fill="#c55731" stroke="#c55731" /><circle cx="207.92342373449074" cy="381.177786361186" r="20" fill="#62030f" stroke="#62030f" /><circle cx="224.92558965260784" cy="199.3713287737474" r="20" fill="#57e450" stroke="#57e450" /><circle cx="558.3485782804588" cy="254.2050701127961" r="20" fill="#a0a59" stroke="#a0a59" /><circle cx="134.59107331804142" cy="416.44326918844195" r="20" fill="#eb3307" stroke="#eb3307" /><circle cx="429.4364053125612" cy="476.78206238429414" r="20" fill="#88c509" stroke="#88c509" /><circle cx="429.8996996221676" cy="551.468129604811" r="20" fill="#136b5b" stroke="#136b5b" /><circle cx="59.50951419024149" cy="326.0691510784192" r="20" fill="#b5255c" stroke="#b5255c" /><circle cx="535.8224469727509" cy="405.24792795549985" r="20" fill="#c5a317" stroke="#c5a317" /><circle cx="134.39912156653548" cy="286.11156406556853" r="20" fill="#183e3a" stroke="#183e3a" /><circle cx="230.3826200232134" cy="216.25695507806265" r="20" fill="#647ae9" stroke="#647ae9" /><circle cx="410.8985491031133" cy="466.99108416646305" r="20" fill="#349283" stroke="#349283" /><circle cx="31.9993481062355" cy="506.0142375323207" r="20" fill="#5df4bb" stroke="#5df4bb" /><circle cx="433.2621823383126" cy="372.96637064792566" r="20" fill="#c9acb1" stroke="#c9acb1" /><circle cx="312.0723872413616" cy="357.30950212026164" r="20" fill="#df02e3" stroke="#df02e3" /><circle cx="142.439114945594" cy="176.43556420347846" r="20" fill="#eb914a" stroke="#eb914a" /><circle cx="465.0183855230956" cy="14.84442451250767" r="20" fill="#d87b02" stroke="#d87b02" /><circle cx="452.45355896615797" cy="423.98693684485085" r="20" fill="#653a4" stroke="#653a4" /><circle cx="208.4586194633776" cy="84.73005738013151" r="20" fill="#44bcfe" stroke="#44bcfe" /><circle cx="329.4956420989117" cy="544.1275114154063" r="20" fill="#a8d8dc" stroke="#a8d8dc" /><circle cx="79.57665213118838" cy="534.5654851971091" r="20" fill="#cad080" stroke="#cad080" /><circle cx="511.8531406687446" cy="410.00696233946684" r="20" fill="#5a5ada" stroke="#5a5ada" /><circle cx="222.93649319709164" cy="355.5567430995179" r="20" fill="#392ee8" stroke="#392ee8" /><circle cx="306.55671957750576" cy="464.13789979315" r="20" fill="#8ffcc8" stroke="#8ffcc8" /><circle cx="51.70385581287129" cy="540.8188523021735" r="20" fill="#a0bed0" stroke="#a0bed0" /><circle cx="179.69320153221867" cy="397.1665912581523" r="20" fill="#39e7fb" stroke="#39e7fb" /><circle cx="393.694293083528" cy="358.3336201049718" r="20" fill="#2c2522" stroke="#2c2522" /><circle cx="368.0463601323016" cy="467.04540092630793" r="20" fill="#c7b6fb" stroke="#c7b6fb" /><circle cx="333.6193418457387" cy="251.67130483302063" r="20" fill="#5867c4" stroke="#5867c4" /><circle cx="511.63971167914775" cy="489.68279757683206" r="20" fill="#9fb55e" stroke="#9fb55e" /><circle cx="323.04724831170205" cy="440.2177104481712" r="20" fill="#37327a" stroke="#37327a" /><circle cx="326.47662924709294" cy="231.2717499216679" r="20" fill="#20fd41" stroke="#20fd41" /><circle cx="371.44244502533456" cy="326.19483980040786" r="20" fill="#abdd49" stroke="#abdd49" /><circle cx="330.3234106686303" cy="507.9444556984609" r="20" fill="#8c34c3" stroke="#8c34c3" /><circle cx="42.885185851408906" cy="227.28907996349804" r="20" fill="#13ad5f" stroke="#13ad5f" /><circle cx="139.018716021525" cy="467.48627461262384" r="20" fill="#235dd7" stroke="#235dd7" /><circle cx="12.290824629746133" cy="595.7197000585654" r="20" fill="#fd4ed0" stroke="#fd4ed0" /><circle cx="288.38678550207686" cy="219.5070649652962" r="20" fill="#ef4eb9" stroke="#ef4eb9" /><circle cx="149.90366788574062" cy="88.21713311721896" r="20" fill="#3077ec" stroke="#3077ec" /><circle cx="429.86835011051113" cy="372.00334052399563" r="20" fill="#764b" stroke="#764b" /><circle cx="10.960526851876518" cy="118.10264906601194" r="20" fill="#d50eb" stroke="#d50eb" /><circle cx="424.8951543144204" cy="145.51962024781892" r="20" fill="#36e553" stroke="#36e553" /><circle cx="238.1719093712954" cy="552.8098819813724" r="20" fill="#4ecb07" stroke="#4ecb07" /><circle cx="24.58706647062354" cy="561.0869576191653" r="20" fill="#650ea9" stroke="#650ea9" /><circle cx="420.3934266388079" cy="107.3460982144649" r="20" fill="#c4858f" stroke="#c4858f" /><circle cx="496.9438112865353" cy="254.15988931831498" r="20" fill="#530379" stroke="#530379" /><circle cx="306.90488797069025" cy="77.57819670608566" r="20" fill="#ad6bd0" stroke="#ad6bd0" /><circle cx="67.25908591193215" cy="117.57010193470192" r="20" fill="#cf1d74" stroke="#cf1d74" /><circle cx="86.36184933289037" cy="407.0534656890226" r="20" fill="#7cf810" stroke="#7cf810" /><circle cx="186.605157918666" cy="412.49203994908066" r="20" fill="#1002c8" stroke="#1002c8" /><circle cx="550.3599099248131" cy="149.83512760243622" r="20" fill="#e77f48" stroke="#e77f48" /><circle cx="147.49875524941527" cy="229.45253473771635" r="20" fill="#8d2d65" stroke="#8d2d65" /><circle cx="119.64153061614783" cy="435.71621143834784" r="20" fill="#aa518a" stroke="#aa518a" /><circle cx="158.23055115964934" cy="261.1782941229926" r="20" fill="#6b63ab" stroke="#6b63ab" /><circle cx="386.2879563136954" cy="402.31231530412094" r="20" fill="#1f6ef8" stroke="#1f6ef8" /><circle cx="10.001128137779824" cy="432.62850917416415" r="20" fill="#5400bc" stroke="#5400bc" /><circle cx="247.2152990787862" cy="104.26757827271467" r="20" fill="#7fd9ed" stroke="#7fd9ed" /><circle cx="294.8190611973905" cy="461.6994221441172" r="20" fill="#ed97dc" stroke="#ed97dc" /><circle cx="252.7358629344287" cy="7.948479364138361" r="20" fill="#b8a3b6" stroke="#b8a3b6" /><circle cx="488.45752381637294" cy="585.1672562361165" r="20" fill="#930c1" stroke="#930c1" /><circle cx="285.6053992976744" cy="413.57612055134155" r="20" fill="#8d7d3a" stroke="#8d7d3a" /><circle cx="38.73628470465369" cy="88.31669273347921" r="20" fill="#4da413" stroke="#4da413" /><circle cx="113.59601440663253" cy="162.16877866335383" r="20" fill="#b76d43" stroke="#b76d43" /><circle cx="119.53001343810658" cy="104.10712796033769" r="20" fill="#ddd9e7" stroke="#ddd9e7" /><circle cx="370.52205508386277" cy="224.83577525001525" r="20" fill="#1a846" stroke="#1a846" /><circle cx="490.47789359961183" cy="334.5359209094818" r="20" fill="#1aa4f2" stroke="#1aa4f2" /><circle cx="120.4480529331693" cy="412.5586485497115" r="20" fill="#68b164" stroke="#68b164" /><circle cx="376.90984788934725" cy="541.6633768917311" r="20" fill="#966687" stroke="#966687" /><circle cx="13.583277914809022" cy="311.6015506925049" r="20" fill="#f11f7d" stroke="#f11f7d" /><circle cx="525.0263637046071" cy="396.30657304584406" r="20" fill="#ffdb3d" stroke="#ffdb3d" /><circle cx="566.4420959265145" cy="203.78969867039393" r="20" fill="#18829a" stroke="#18829a" /><circle cx="570.818160578927" cy="475.36896303828223" r="20" fill="#7602c5" stroke="#7602c5" /><circle cx="543.0366232223712" cy="525.1357766756885" r="20" fill="#71539c" stroke="#71539c" /><circle cx="538.3146813033345" cy="266.26961926966305" r="20" fill="#8942ec" stroke="#8942ec" /><circle cx="46.701867331957644" cy="136.14529104700765" r="20" fill="#fdc7c6" stroke="#fdc7c6" /><circle cx="427.70282785254165" cy="530.85395965446" r="20" fill="#1e7883" stroke="#1e7883" /><circle cx="206.10481030548377" cy="385.6496465536843" r="20" fill="#4db027" stroke="#4db027" /><circle cx="151.38848075404127" cy="157.2500614128891" r="20" fill="#c4894d" stroke="#c4894d" /><circle cx="364.56860249477063" cy="221.99434265454715" r="20" fill="#5d93fb" stroke="#5d93fb" /><circle cx="423.3667695001875" cy="58.62552283951739" r="20" fill="#5a700c" stroke="#5a700c" /><circle cx="229.36798169665687" cy="474.77857381824526" r="20" fill="#4d3b43" stroke="#4d3b43" /><circle cx="64.56359472921997" cy="132.101256246231" r="20" fill="#6d39e1" stroke="#6d39e1" /><circle cx="250.4772626866961" cy="342.46271591956645" r="20" fill="#a97734" stroke="#a97734" /><circle cx="479.4811575946446" cy="254.2096475609092" r="20" fill="#e97963" stroke="#e97963" /><circle cx="208.57610115629234" cy="131.0369870824513" r="20" fill="#c8314" stroke="#c8314" /><circle cx="261.83542494722104" cy="178.5609092781764" r="20" fill="#1a090d" stroke="#1a090d" /><circle cx="101.03617563157866" cy="288.69365755904164" r="20" fill="#9550b9" stroke="#9550b9" /><circle cx="10.573868538405051" cy="82.29888079491725" r="20" fill="#25350e" stroke="#25350e" /><circle cx="198.06177341145187" cy="158.36913178234457" r="20" fill="#25f7a7" stroke="#25f7a7" /><circle cx="458.3838056495166" cy="126.51511886521023" r="20" fill="#201d88" stroke="#201d88" /><circle cx="21.960659233993375" cy="183.39188246550773" r="20" fill="#189437" stroke="#189437" /><circle cx="435.3145395751957" cy="181.47754844772908" r="20" fill="#70cc54" stroke="#70cc54" /><circle cx="378.38238113800975" cy="67.71182516748149" r="20" fill="#eaa95d" stroke="#eaa95d" /><circle cx="267.5393329172672" cy="73.83919449683955" r="20" fill="#969c25" stroke="#969c25" /><circle cx="10.03426422602498" cy="493.6040564540432" r="20" fill="#185ab1" stroke="#185ab1" /><circle cx="335.8806787137137" cy="296.74264553178745" r="20" fill="#a23c1" stroke="#a23c1" /><circle cx="226.0040336755893" cy="473.74270829962006" r="20" fill="#b7f34d" stroke="#b7f34d" /><circle cx="251.53314882061886" cy="418.9192881557295" r="20" fill="#83e092" stroke="#83e092" /><circle cx="462.01440937440583" cy="192.07984613994626" r="20" fill="#5b8a17" stroke="#5b8a17" /><circle cx="536.5251479142506" cy="21.103592863845844" r="20" fill="#7cdff3" stroke="#7cdff3" /><circle cx="568.4657283018136" cy="42.97950341572063" r="20" fill="#e2ed9f" stroke="#e2ed9f" /><circle cx="148.9094080528862" cy="141.45380885818426" r="20" fill="#eaa76f" stroke="#eaa76f" /><circle cx="500.0060690206047" cy="283.3839124155281" r="20" fill="#9fa11a" stroke="#9fa11a" /><circle cx="90.983624529124" cy="186.86635729967554" r="20" fill="#df9e06" stroke="#df9e06" /><circle cx="266.9500554399097" cy="115.65529018169497" r="20" fill="#75aa00" stroke="#75aa00" /><circle cx="488.53100436247007" cy="355.6966587223593" r="20" fill="#828b5b" stroke="#828b5b" /><circle cx="90.28615597920097" cy="189.13221342535036" r="20" fill="#d467d7" stroke="#d467d7" /><circle cx="519.4794909723189" cy="303.97243075000983" r="20" fill="#104df" stroke="#104df" /><circle cx="357.21120973044424" cy="194.56258696549332" r="20" fill="#66cd8c" stroke="#66cd8c" /><circle cx="530.8800905154206" cy="422.92674128066307" r="20" fill="#970091" stroke="#970091" /><circle cx="448.3596504616731" cy="557.8657567150959" r="20" fill="#b6ac98" stroke="#b6ac98" /><circle cx="393.6976158969203" cy="397.01988012430394" r="20" fill="#3876e7" stroke="#3876e7" /><circle cx="212.03861399750798" cy="12.054769218687378" r="20" fill="#34c602" stroke="#34c602" /><circle cx="258.4016010829665" cy="20.599666803114715" r="20" fill="#317e70" stroke="#317e70" /><circle cx="40.00675404153631" cy="502.7020330720342" r="20" fill="#cc6f7" stroke="#cc6f7" /><circle cx="582.0570003217489" cy="554.8963933607935" r="20" fill="#7d6236" stroke="#7d6236" /><circle cx="25.54521683990192" cy="210.61390059666266" r="20" fill="#f1bf70" stroke="#f1bf70" /><circle cx="29.43191867337913" cy="144.4454996494281" r="20" fill="#56ec99" stroke="#56ec99" /><circle cx="478.1919205489948" cy="28.35044196778331" r="20" fill="#69760a" stroke="#69760a" /><circle cx="107.20371169479077" cy="77.35960137238456" r="20" fill="#b80052" stroke="#b80052" /><circle cx="195.14009912134097" cy="12.772741436824742" r="20" fill="#2f0cee" stroke="#2f0cee" /><circle cx="182.72779454144882" cy="567.6895612044792" r="20" fill="#ad3ceb" stroke="#ad3ceb" /><circle cx="214.82747274934204" cy="421.1554460787507" r="20" fill="#1453ec" stroke="#1453ec" /><circle cx="522.0017243160363" cy="566.6934242021396" r="20" fill="#bcf878" stroke="#bcf878" /><circle cx="299.4127874102213" cy="130.2309672485707" r="20" fill="#5f4023" stroke="#5f4023" /><circle cx="357.97684507825267" cy="585.4242841167322" r="20" fill="#dfa3b6" stroke="#dfa3b6" /><circle cx="374.1300322313131" cy="569.1902031038508" r="20" fill="#93ea9e" stroke="#93ea9e" /><circle cx="590.0742526876844" cy="439.05145900625723" r="20" fill="#f311e3" stroke="#f311e3" /><circle cx="494.9283935095218" cy="404.9934568924449" r="20" fill="#4b80e" stroke="#4b80e" /><circle cx="224.1407619833437" cy="232.72113090086157" r="20" fill="#3da09" stroke="#3da09" /><circle cx="537.1016812565288" cy="545.1145131317077" r="20" fill="#8292d4" stroke="#8292d4" /><circle cx="577.5287791249247" cy="509.57169495717267" r="20" fill="#4f112a" stroke="#4f112a" /><circle cx="545.3559283795795" cy="259.93568529123615" r="20" fill="#413de6" stroke="#413de6" /><circle cx="59.112303671891596" cy="94.18070989684786" r="20" fill="#ae256c" stroke="#ae256c" /><circle cx="213.32197542054044" cy="243.30591088626483" r="20" fill="#1f79d8" stroke="#1f79d8" /><circle cx="520.846065843678" cy="89.61898857775883" r="20" fill="#ef766b" stroke="#ef766b" /><circle cx="229.48296202014012" cy="68.39048935148865" r="20" fill="#3a8697" stroke="#3a8697" /><circle cx="186.23239185113977" cy="373.37787507872855" r="20" fill="#308e1" stroke="#308e1" /><circle cx="384.091749448894" cy="280.2073547235546" r="20" fill="#eb735f" stroke="#eb735f" /><circle cx="125.72089131541588" cy="143.916565525162" r="20" fill="#1b9a3a" stroke="#1b9a3a" /><circle cx="394.7338289893635" cy="71.65051561458453" r="20" fill="#b51050" stroke="#b51050" /><circle cx="296.73674633998655" cy="131.87923222033123" r="20" fill="#f18292" stroke="#f18292" /><circle cx="122.56440594784878" cy="245.53234879724104" r="20" fill="#d3c037" stroke="#d3c037" /><circle cx="476.04484645992517" cy="235.17478789938178" r="20" fill="#8e83ca" stroke="#8e83ca" /><circle cx="187.88987728708724" cy="199.56599109426364" r="20" fill="#d4936d" stroke="#d4936d" /><circle cx="575.7158624912823" cy="583.3454401140092" r="20" fill="#9f4b3a" stroke="#9f4b3a" /><circle cx="484.50828539880695" cy="36.2016599341696" r="20" fill="#92eeae" stroke="#92eeae" /><circle cx="410.39595058365666" cy="90.1261933014776" r="20" fill="#fb76f1" stroke="#fb76f1" /><circle cx="18.030265528010858" cy="367.28088032882175" r="20" fill="#8a5673" stroke="#8a5673" /><circle cx="6.330904452735275" cy="416.35274659177475" r="20" fill="#a97e2" stroke="#a97e2" /><circle cx="261.0752604278855" cy="510.74343554075466" r="20" fill="#69ba54" stroke="#69ba54" /><circle cx="496.304174398516" cy="496.08335394408044" r="20" fill="#faa0f7" stroke="#faa0f7" /><circle cx="503.16292516081387" cy="464.2515542564793" r="20" fill="#420743" stroke="#420743" /><circle cx="45.1226267402598" cy="588.7280551445859" r="20" fill="#e07dcd" stroke="#e07dcd" /><circle cx="479.9014670171446" cy="154.8807682552402" r="20" fill="#dae4fd" stroke="#dae4fd" /><circle cx="500.5791719970846" cy="51.21141006785916" r="20" fill="#baef2" stroke="#baef2" /><circle cx="84.57926268325355" cy="551.3031702210407" r="20" fill="#504f6" stroke="#504f6" /><circle cx="100.76250964853375" cy="492.93852126252267" r="20" fill="#3d9c20" stroke="#3d9c20" /><circle cx="363.6595347344442" cy="465.95249832359514" r="20" fill="#bd4305" stroke="#bd4305" /><circle cx="184.79793966767554" cy="533.2876216378974" r="20" fill="#b169e6" stroke="#b169e6" /><circle cx="451.0578808019667" cy="320.1134067503618" r="20" fill="#e2934c" stroke="#e2934c" /><circle cx="96.7998049348064" cy="137.12847962613574" r="20" fill="#4d2226" stroke="#4d2226" /><circle cx="37.63952628682716" cy="201.0061988876734" r="20" fill="#386be" stroke="#386be" /><circle cx="575.9120375475791" cy="370.62675447489613" r="20" fill="#6dad04" stroke="#6dad04" /><circle cx="401.79849855931036" cy="147.36575312726754" r="20" fill="#77aa74" stroke="#77aa74" /><circle cx="202.4189038676179" cy="513.9473312757841" r="20" fill="#f21505" stroke="#f21505" /><circle cx="19.717214732667323" cy="539.345935363835" r="20" fill="#790373" stroke="#790373" /><circle cx="124.8679394732291" cy="332.3581335758544" r="20" fill="#229bc2" stroke="#229bc2" /><circle cx="248.88342029258627" cy="205.6241880688576" r="20" fill="#92da2c" stroke="#92da2c" /><circle cx="397.92911895387897" cy="216.1564259519075" r="20" fill="#72310a" stroke="#72310a" /><circle cx="104.36398517742123" cy="94.70424640524845" r="20" fill="#4f47be" stroke="#4f47be" /><circle cx="397.6322867584098" cy="283.7500988947173" r="20" fill="#5b918" stroke="#5b918" /><circle cx="19.00926091053701" cy="219.48307756845136" r="20" fill="#bd84fb" stroke="#bd84fb" /><circle cx="89.4120819058021" cy="484.7078698577307" r="20" fill="#4ba7b" stroke="#4ba7b" /><circle cx="573.1623019737915" cy="48.11148446053646" r="20" fill="#8dc724" stroke="#8dc724" /><circle cx="432.72678320143643" cy="126.28072870951482" r="20" fill="#e97ae2" stroke="#e97ae2" /><circle cx="591.3980021169218" cy="52.56453442753206" r="20" fill="#6f981b" stroke="#6f981b" /><circle cx="374.8552792946134" cy="587.6456936390952" r="20" fill="#23cbc3" stroke="#23cbc3" /><circle cx="586.4876835182889" cy="234.08079440976323" r="20" fill="#db9050" stroke="#db9050" /><circle cx="56.96656131271034" cy="45.73676608514585" r="20" fill="#4023fb" stroke="#4023fb" /><circle cx="42.05374128941117" cy="433.2883265449719" r="20" fill="#3b5d9e" stroke="#3b5d9e" /><circle cx="121.20026130644965" cy="561.8809184797711" r="20" fill="#a009c7" stroke="#a009c7" /><circle cx="155.26696711786272" cy="488.06009347163706" r="20" fill="#c54db1" stroke="#c54db1" /><circle cx="101.43376668853796" cy="474.94789163735607" r="20" fill="#ef90d6" stroke="#ef90d6" /><circle cx="348.9140551551141" cy="409.21641784817984" r="20" fill="#75b9b4" stroke="#75b9b4" /><circle cx="457.3760807249467" cy="213.73615642495474" r="20" fill="#57107a" stroke="#57107a" /><circle cx="511.3566999539055" cy="170.1311517865777" r="20" fill="#59e0ed" stroke="#59e0ed" /><circle cx="280.952517597547" cy="74.71136614805158" r="20" fill="#b7393b" stroke="#b7393b" /><circle cx="156.4781201313941" cy="441.57209179170536" r="20" fill="#32d72a" stroke="#32d72a" /><circle cx="143.46378733029502" cy="542.4071406643496" r="20" fill="#e4f303" stroke="#e4f303" /><circle cx="464.1678933917481" cy="598.3362160403987" r="20" fill="#2d7afc" stroke="#2d7afc" /><circle cx="99.11066798259145" cy="102.51701422814321" r="20" fill="#3be253" stroke="#3be253" /><circle cx="20.39321983769402" cy="407.95686057775436" r="20" fill="#e755a" stroke="#e755a" /><circle cx="98.08152927617755" cy="539.2863321862618" r="20" fill="#8552" stroke="#8552" /><circle cx="569.5315527667392" cy="588.2687983126484" r="20" fill="#201d48" stroke="#201d48" /><circle cx="106.01387333065912" cy="48.860024265288395" r="20" fill="#ce18b9" stroke="#ce18b9" /><circle cx="130.1378759034225" cy="554.2850807326366" r="20" fill="#2da092" stroke="#2da092" /><circle cx="492.09999514669016" cy="338.7632970958093" r="20" fill="#367462" stroke="#367462" /><circle cx="415.049708868418" cy="473.7251708032063" r="20" fill="#1df325" stroke="#1df325" /><circle cx="581.5410399001875" cy="29.66003129681347" r="20" fill="#b8228d" stroke="#b8228d" /><circle cx="155.91488176266154" cy="41.83902069595406" r="20" fill="#48f3e5" stroke="#48f3e5" /><circle cx="366.79996252734367" cy="561.4377046764108" r="20" fill="#9dbffa" stroke="#9dbffa" /><circle cx="390.49302612387294" cy="38.8904084051616" r="20" fill="#4319a6" stroke="#4319a6" /><circle cx="343.20094984562047" cy="43.93796003207644" r="20" fill="#b464d6" stroke="#b464d6" /><circle cx="353.9443588525515" cy="219.00771377581117" r="20" fill="#8121e3" stroke="#8121e3" /><circle cx="242.5205873909694" cy="298.3400857401562" r="20" fill="#585a18" stroke="#585a18" /><circle cx="52.81655570967416" cy="29.135345270814426" r="20" fill="#b0f616" stroke="#b0f616" /><circle cx="506.1504982903246" cy="192.82989024015987" r="20" fill="#cb13eb" stroke="#cb13eb" /><circle cx="339.92569571949525" cy="569.4024681921226" r="20" fill="#19f0bd" stroke="#19f0bd" /><circle cx="142.68005806658675" cy="597.8542147562134" r="20" fill="#ffbda9" stroke="#ffbda9" /><circle cx="265.0290605824554" cy="431.4077408139715" r="20" fill="#1bb609" stroke="#1bb609" /><circle cx="207.51884068504017" cy="15.228731135640539" r="20" fill="#3b55ae" stroke="#3b55ae" /><circle cx="62.42567441052071" cy="99.05661373552626" r="20" fill="#17ac73" stroke="#17ac73" /><circle cx="507.9126361433446" cy="280.19444297754836" r="20" fill="#9bb360" stroke="#9bb360" /><circle cx="427.22075035237714" cy="340.98579659459034" r="20" fill="#2969ca" stroke="#2969ca" /><circle cx="264.3003369373398" cy="55.229159627324535" r="20" fill="#b653b4" stroke="#b653b4" /><circle cx="579.4897042280418" cy="42.25218673659481" r="20" fill="#86f753" stroke="#86f753" /><circle cx="501.1268914171025" cy="229.19795642733018" r="20" fill="#2ab681" stroke="#2ab681" /><circle cx="103.47819607654478" cy="254.99815577114825" r="20" fill="#87ab01" stroke="#87ab01" /><circle cx="182.97368087805557" cy="250.32889302867375" r="20" fill="#6788b3" stroke="#6788b3" /><circle cx="499.8204414614507" cy="65.16013748175213" r="20" fill="#7760e4" stroke="#7760e4" /><circle cx="460.72502239991866" cy="509.2076355281936" r="20" fill="#ae3dbc" stroke="#ae3dbc" /><circle cx="211.57158350378737" cy="326.395065783557" r="20" fill="#14e0f9" stroke="#14e0f9" /><circle cx="346.3791551945762" cy="381.82559253934636" r="20" fill="#a8d6ce" stroke="#a8d6ce" /><circle cx="124.58842461141421" cy="561.2102446379018" r="20" fill="#6d0893" stroke="#6d0893" /><circle cx="50.69599892525143" cy="328.6477847770033" r="20" fill="#9a4441" stroke="#9a4441" /><circle cx="520.4513884884802" cy="139.0210445693662" r="20" fill="#b96e3c" stroke="#b96e3c" /><circle cx="378.00481869138105" cy="446.7151093141952" r="20" fill="#beb42a" stroke="#beb42a" /><circle cx="525.3403507678037" cy="284.73756589470116" r="20" fill="#f1b327" stroke="#f1b327" /><circle cx="97.70993384297743" cy="387.64143177477337" r="20" fill="#83b271" stroke="#83b271" /><circle cx="518.7078494557167" cy="150.9685782904412" r="20" fill="#48dad5" stroke="#48dad5" /><circle cx="468.5738113183744" cy="18.889795841709045" r="20" fill="#362e37" stroke="#362e37" /><circle cx="7.667923586794112" cy="144.81982368115678" r="20" fill="#e2e51e" stroke="#e2e51e" /><circle cx="103.74543640946716" cy="74.32422046589737" r="20" fill="#40321b" stroke="#40321b" /><circle cx="544.9045492181922" cy="325.61920281305805" r="20" fill="#502ec6" stroke="#502ec6" /><circle cx="210.14038598973394" cy="488.1100957363586" r="20" fill="#567c20" stroke="#567c20" /><circle cx="18.676368408584754" cy="208.4562314972349" r="20" fill="#4955fb" stroke="#4955fb" /><circle cx="118.09150522671979" cy="99.76626383754979" r="20" fill="#706b59" stroke="#706b59" /><circle cx="486.28647823425786" cy="280.33333066915714" r="20" fill="#5343a7" stroke="#5343a7" /><circle cx="357.2759743617949" cy="353.81679348631735" r="20" fill="#6ddb04" stroke="#6ddb04" /><circle cx="483.50594318963647" cy="206.05767134532022" r="20" fill="#660a88" stroke="#660a88" /><circle cx="451.58028810787954" cy="536.9113848487336" r="20" fill="#1dc5fc" stroke="#1dc5fc" /><circle cx="81.36736529857194" cy="317.09168502263225" r="20" fill="#bf72ee" stroke="#bf72ee" /><circle cx="27.798727681419244" cy="517.8228193362041" r="20" fill="#f01237" stroke="#f01237" /><circle cx="69.80217461457951" cy="117.67103394916951" r="20" fill="#61098b" stroke="#61098b" /><circle cx="289.3728177872725" cy="589.9576314288698" r="20" fill="#f95064" stroke="#f95064" /><circle cx="438.50697246560844" cy="548.7059635957461" r="20" fill="#663263" stroke="#663263" /><circle cx="9.25553934300174" cy="128.93193325815275" r="20" fill="#c42090" stroke="#c42090" /><circle cx="320.1426854162425" cy="296.09811713671473" r="20" fill="#4d9658" stroke="#4d9658" /><circle cx="405.2536737984346" cy="464.8483224516647" r="20" fill="#2eaa2f" stroke="#2eaa2f" /><circle cx="250.92717243254265" cy="554.6641072592286" r="20" fill="#84cbd" stroke="#84cbd" /><circle cx="383.48015131623595" cy="554.7318998394267" r="20" fill="#a4eb13" stroke="#a4eb13" /><circle cx="401.47790902006653" cy="439.11096203173435" r="20" fill="#9697e9" stroke="#9697e9" /><circle cx="285.33730274984197" cy="565.9345100744328" r="20" fill="#92b768" stroke="#92b768" /><circle cx="227.44466684937893" cy="31.712582417497217" r="20" fill="#492a60" stroke="#492a60" /><circle cx="342.2882915250464" cy="57.4098951403188" r="20" fill="#f6716e" stroke="#f6716e" /><circle cx="331.20406715210873" cy="327.6112971862897" r="20" fill="#278769" stroke="#278769" /><circle cx="582.1653836949297" cy="9.672656741456764" r="20" fill="#8435f6" stroke="#8435f6" /><circle cx="218.82081262039446" cy="371.5157226789517" r="20" fill="#37e193" stroke="#37e193" /><circle cx="74.26609405731233" cy="543.5979881002321" r="20" fill="#25f50" stroke="#25f50" /><circle cx="495.7731646085229" cy="424.53691560170415" r="20" fill="#8fe793" stroke="#8fe793" /><circle cx="507.2211017697695" cy="294.6391761835722" r="20" fill="#9a8c74" stroke="#9a8c74" /><circle cx="168.12232738203855" cy="125.93861387139928" r="20" fill="#44f6b8" stroke="#44f6b8" /><circle cx="141.1986754123747" cy="180.2587455574976" r="20" fill="#dd8cd5" stroke="#dd8cd5" /><circle cx="194.94286763172445" cy="75.31623377235141" r="20" fill="#732c2f" stroke="#732c2f" /><circle cx="417.1827806478728" cy="10.570429081499766" r="20" fill="#e17e0d" stroke="#e17e0d" /><circle cx="229.44370623779577" cy="424.6463618947971" r="20" fill="#f16dbc" stroke="#f16dbc" /><circle cx="560.4870443892361" cy="267.52732259264235" r="20" fill="#7e6d67" stroke="#7e6d67" /><circle cx="34.5532512446443" cy="538.0075764174527" r="20" fill="#f16ec2" stroke="#f16ec2" /><circle cx="205.30078147997875" cy="121.54117491135521" r="20" fill="#4c6304" stroke="#4c6304" /><circle cx="576.2323080083158" cy="369.69837399069314" r="20" fill="#b7ceaf" stroke="#b7ceaf" /><circle cx="540.156380077102" cy="257.32279605714893" r="20" fill="#f48b08" stroke="#f48b08" /><circle cx="549.6600940646437" cy="85.50483851308263" r="20" fill="#37eafd" stroke="#37eafd" /><circle cx="412.2857086712019" cy="417.3084366260402" r="20" fill="#d1f5df" stroke="#d1f5df" /><circle cx="326.16382270572655" cy="528.9498332940441" r="20" fill="#fdc05e" stroke="#fdc05e" /><circle cx="536.9387707181796" cy="240.49208963023614" r="20" fill="#a243d1" stroke="#a243d1" /><circle cx="70.0978649474643" cy="357.0131218842504" r="20" fill="#52bae9" stroke="#52bae9" /><circle cx="297.38943778338427" cy="534.7682023291778" r="20" fill="#487719" stroke="#487719" /><circle cx="388.2413891992731" cy="513.1330322974649" r="20" fill="#92574d" stroke="#92574d" /><circle cx="110.22728490261274" cy="593.2526561236601" r="20" fill="#eafbea" stroke="#eafbea" /><circle cx="351.13283445069777" cy="505.43455050216517" r="20" fill="#6ecfb4" stroke="#6ecfb4" /><circle cx="133.82395563303743" cy="520.0232827359961" r="20" fill="#6ac1b2" stroke="#6ac1b2" /><circle cx="326.13821434268806" cy="378.31658416789475" r="20" fill="#9f6799" stroke="#9f6799" /><circle cx="51.317650520619964" cy="116.86882261289004" r="20" fill="#705814" stroke="#705814" /><circle cx="225.24237006343014" cy="229.6299310784363" r="20" fill="#1812db" stroke="#1812db" /><circle cx="393.5035438158667" cy="39.08504946129718" r="20" fill="#34b409" stroke="#34b409" /><circle cx="549.5114083434518" cy="377.8491410529231" r="20" fill="#6dfbf7" stroke="#6dfbf7" /><circle cx="573.3384067058516" cy="487.66670574069445" r="20" fill="#81fc39" stroke="#81fc39" /><circle cx="581.6231401165568" cy="281.03500586261606" r="20" fill="#6ee1b7" stroke="#6ee1b7" /><circle cx="592.5281977330799" cy="388.05567197107024" r="20" fill="#d83fae" stroke="#d83fae" /><circle cx="40.039423164160624" cy="526.681090971027" r="20" fill="#cde30a" stroke="#cde30a" /><circle cx="313.26771101416546" cy="113.55193328824824" r="20" fill="#6db880" stroke="#6db880" /><circle cx="360.85365305682654" cy="58.53468310807401" r="20" fill="#946199" stroke="#946199" /><circle cx="415.16645777567805" cy="349.81852467236456" r="20" fill="#922385" stroke="#922385" /><circle cx="402.48348701870515" cy="83.21558197288334" r="20" fill="#42d8ac" stroke="#42d8ac" /><circle cx="344.8772068313468" cy="469.6953262975714" r="20" fill="#6bfe27" stroke="#6bfe27" /><circle cx="180.09733577109745" cy="197.23417085297518" r="20" fill="#d39b2e" stroke="#d39b2e" /><circle cx="154.10201553720574" cy="380.2922322728574" r="20" fill="#5c5bb6" stroke="#5c5bb6" /><circle cx="536.5977831323049" cy="553.1947896130304" r="20" fill="#bccf5c" stroke="#bccf5c" /><circle cx="450.7301066938989" cy="188.2007469499148" r="20" fill="#cc2504" stroke="#cc2504" /><circle cx="69.38360157954948" cy="129.37556295306615" r="20" fill="#5f4a3b" stroke="#5f4a3b" /><circle cx="544.1752626213743" cy="440.010749959082" r="20" fill="#a7ca64" stroke="#a7ca64" /><circle cx="235.5540516958552" cy="317.48036917626763" r="20" fill="#a46e14" stroke="#a46e14" /><circle cx="555.3012536674297" cy="200.3637585680519" r="20" fill="#35accf" stroke="#35accf" /><circle cx="194.44770265722047" cy="274.86998898642156" r="20" fill="#d8e040" stroke="#d8e040" /><circle cx="363.9025481170082" cy="173.472163510229" r="20" fill="#6c9b7c" stroke="#6c9b7c" /><circle cx="224.0292412396355" cy="542.3354396086469" r="20" fill="#7b1538" stroke="#7b1538" /><circle cx="496.15680431353053" cy="525.4778532141765" r="20" fill="#d68082" stroke="#d68082" /><circle cx="373.97728601523266" cy="250.71329347288219" r="20" fill="#fc047" stroke="#fc047" /><circle cx="134.7575681432845" cy="489.30098815549536" r="20" fill="#4a8cc8" stroke="#4a8cc8" /><circle cx="329.0199930912015" cy="434.19949690891013" r="20" fill="#bf58f7" stroke="#bf58f7" /><circle cx="281.2890480723534" cy="435.4201866788455" r="20" fill="#45f5f0" stroke="#45f5f0" /><circle cx="238.4950590425368" cy="66.30456140452866" r="20" fill="#541e11" stroke="#541e11" /><circle cx="142.21729801811597" cy="59.73278564965789" r="20" fill="#4250be" stroke="#4250be" /><circle cx="442.3977975049075" cy="215.02254293271255" r="20" fill="#535290" stroke="#535290" /><circle cx="350.1633807632582" cy="399.0477066442345" r="20" fill="#1b19c6" stroke="#1b19c6" /><circle cx="515.7351765875904" cy="212.23231947248436" r="20" fill="#e7db19" stroke="#e7db19" /><circle cx="27.292453674714867" cy="453.2441577661691" r="20" fill="#af152f" stroke="#af152f" /><circle cx="222.38845221706228" cy="272.68775975186435" r="20" fill="#f8ee11" stroke="#f8ee11" /><circle cx="92.82548353800357" cy="136.70218952585915" r="20" fill="#4c9b99" stroke="#4c9b99" /><circle cx="369.89113164869565" cy="494.8634509844271" r="20" fill="#516eb2" stroke="#516eb2" /><circle cx="87.44287509593569" cy="514.7012623456127" r="20" fill="#3e98a" stroke="#3e98a" /><circle cx="492.0276169073971" cy="317.0524311802982" r="20" fill="#addde9" stroke="#addde9" /><circle cx="516.182308385671" cy="22.075669811982745" r="20" fill="#1ff817" stroke="#1ff817" /><circle cx="282.4740232750694" cy="54.04595027859469" r="20" fill="#8e224a" stroke="#8e224a" /><circle cx="488.3706981165071" cy="70.87604175660074" r="20" fill="#adf4cb" stroke="#adf4cb" /><circle cx="507.1545609807622" cy="70.94640834426356" r="20" fill="#e52caa" stroke="#e52caa" /><circle cx="63.16717896659023" cy="67.60755848123492" r="20" fill="#f0119" stroke="#f0119" /><circle cx="467.50024248850934" cy="396.95432091357753" r="20" fill="#45ec9c" stroke="#45ec9c" /><circle cx="54.70573331283819" cy="514.6289543772543" r="20" fill="#65b127" stroke="#65b127" /><circle cx="97.15497040273581" cy="421.92582528285357" r="20" fill="#fcb96" stroke="#fcb96" /><circle cx="332.9118855854027" cy="597.9293820577697" r="20" fill="#bb6197" stroke="#bb6197" /><circle cx="6.024894038646078" cy="410.10314036751095" r="20" fill="#de9468" stroke="#de9468" /><circle cx="372.56333795701" cy="439.7956152281916" r="20" fill="#4de335" stroke="#4de335" /><circle cx="250.36814373445333" cy="591.6252183786862" r="20" fill="#85eba4" stroke="#85eba4" /><circle cx="421.084122051293" cy="433.75256694986024" r="20" fill="#6a0795" stroke="#6a0795" /><circle cx="425.8696746458129" cy="236.0439445795098" r="20" fill="#da6c61" stroke="#da6c61" /><circle cx="18.292072557916406" cy="88.22977901667844" r="20" fill="#34a452" stroke="#34a452" /><circle cx="356.05684871129876" cy="508.14927056188986" r="20" fill="#309543" stroke="#309543" /><circle cx="265.2082863003624" cy="550.3130461935865" r="20" fill="#9e9bf2" stroke="#9e9bf2" /><circle cx="257.7003746219966" cy="130.34181991233353" r="20" fill="#fa6458" stroke="#fa6458" /><circle cx="161.19338769957955" cy="496.6974241583743" r="20" fill="#a30cd6" stroke="#a30cd6" /><circle cx="472.3399829700671" cy="359.04497129208653" r="20" fill="#bcecff" stroke="#bcecff" /><circle cx="108.9196123723026" cy="309.04130877571185" r="20" fill="#bde034" stroke="#bde034" /><circle cx="376.95790106507536" cy="193.94661536793447" r="20" fill="#976aea" stroke="#976aea" /><circle cx="500.06108117685704" cy="468.8460671721678" r="20" fill="#705d11" stroke="#705d11" /><circle cx="240.8321313327562" cy="267.5818033023999" r="20" fill="#36db00" stroke="#36db00" /><circle cx="1.9114670222246222" cy="185.73585701061623" r="20" fill="#35d6f4" stroke="#35d6f4" /><circle cx="372.9203524644752" cy="533.2531129473567" r="20" fill="#1e8757" stroke="#1e8757" /><circle cx="13.54467234065515" cy="464.81409799708666" r="20" fill="#234b49" stroke="#234b49" /><circle cx="552.07924395821" cy="568.4661662985509" r="20" fill="#7c900" stroke="#7c900" /><circle cx="157.8086208377624" cy="351.7898724214702" r="20" fill="#c4a9c3" stroke="#c4a9c3" /><circle cx="155.80910894891383" cy="22.431465753298863" r="20" fill="#10bc4a" stroke="#10bc4a" /><circle cx="405.77482278499247" cy="360.9674714993357" r="20" fill="#8dc59" stroke="#8dc59" /><circle cx="377.63632666754654" cy="508.5044177114971" r="20" fill="#d57dcb" stroke="#d57dcb" /><circle cx="146.07608731610688" cy="264.9559328980841" r="20" fill="#606868" stroke="#606868" /><circle cx="152.24743963194757" cy="125.38728936357573" r="20" fill="#2cb9f5" stroke="#2cb9f5" /><circle cx="70.98725006784986" cy="149.0575532545953" r="20" fill="#1ebae" stroke="#1ebae" /><circle cx="216.94229043021213" cy="571.6649110777767" r="20" fill="#ac4778" stroke="#ac4778" /><circle cx="206.96701344830117" cy="74.96265607242614" r="20" fill="#217046" stroke="#217046" /><circle cx="421.1851116550703" cy="294.90968752394775" r="20" fill="#69d330" stroke="#69d330" /><circle cx="451.5795017373789" cy="438.24046721632254" r="20" fill="#374efe" stroke="#374efe" /><circle cx="590.2408174087496" cy="273.37586340872394" r="20" fill="#f12529" stroke="#f12529" /><circle cx="30.645439653356377" cy="400.22707483286746" r="20" fill="#ed8724" stroke="#ed8724" /><circle cx="176.2422373466857" cy="113.7553492627002" r="20" fill="#269ba8" stroke="#269ba8" /><circle cx="389.9269990618903" cy="574.2310799831051" r="20" fill="#4e45be" stroke="#4e45be" /><circle cx="424.455630571685" cy="437.93725481326766" r="20" fill="#846b9d" stroke="#846b9d" /><circle cx="18.897073683664665" cy="133.89349498214833" r="20" fill="#aa272" stroke="#aa272" /><circle cx="535.126875364016" cy="382.97347889494824" r="20" fill="#f53acc" stroke="#f53acc" /><circle cx="27.578315125739383" cy="48.65989250947762" r="20" fill="#5a58c8" stroke="#5a58c8" /><circle cx="438.0347197102465" cy="189.26059286294813" r="20" fill="#ad269" stroke="#ad269" /><circle cx="308.8196739150489" cy="118.00228024861705" r="20" fill="#d7e626" stroke="#d7e626" /><circle cx="272.43022273731265" cy="543.5780872748378" r="20" fill="#100ca6" stroke="#100ca6" /><circle cx="251.28158010911307" cy="550.040026279421" r="20" fill="#70211f" stroke="#70211f" /><circle cx="42.15661916647662" cy="210.31451162782528" r="20" fill="#be3b04" stroke="#be3b04" /><circle cx="58.701718954331874" cy="341.21850050566206" r="20" fill="#f3df64" stroke="#f3df64" /><circle cx="258.2394115990184" cy="94.45768492626647" r="20" fill="#e5398d" stroke="#e5398d" /><circle cx="594.1796884778594" cy="163.91819005293783" r="20" fill="#4ec296" stroke="#4ec296" /><circle cx="424.6437612897752" cy="156.660447616511" r="20" fill="#2615fc" stroke="#2615fc" /><circle cx="245.25131582983371" cy="361.016748968794" r="20" fill="#d48b2b" stroke="#d48b2b" /><circle cx="382.24659255430964" cy="30.849231133118373" r="20" fill="#15bfc1" stroke="#15bfc1" /><circle cx="577.0345999383807" cy="292.63292865059066" r="20" fill="#925707" stroke="#925707" /><circle cx="303.89060145495" cy="165.54299246125987" r="20" fill="#7336af" stroke="#7336af" /><circle cx="110.1437235659525" cy="71.12506599712955" r="20" fill="#92bbdd" stroke="#92bbdd" /><circle cx="457.0726515024458" cy="531.4867589388476" r="20" fill="#7bf919" stroke="#7bf919" /><circle cx="283.13742815192546" cy="576.3211033405624" r="20" fill="#837961" stroke="#837961" /><circle cx="113.83681181443723" cy="534.7102625872168" r="20" fill="#1bf26a" stroke="#1bf26a" /><circle cx="100.42329982326396" cy="284.5206201092743" r="20" fill="#8b383d" stroke="#8b383d" /><circle cx="480.9751538604183" cy="248.68502993144247" r="20" fill="#4dcf91" stroke="#4dcf91" /><circle cx="417.9239987757418" cy="451.9617985886169" r="20" fill="#1f6ed8" stroke="#1f6ed8" /><circle cx="407.99417722589214" cy="572.9610205953405" r="20" fill="#6d1b67" stroke="#6d1b67" /><circle cx="237.54714946149932" cy="257.2561580648014" r="20" fill="#40c4f9" stroke="#40c4f9" /><circle cx="341.2718165697873" cy="104.62575556739542" r="20" fill="#f502be" stroke="#f502be" /><circle cx="485.327762312553" cy="199.0429493362978" r="20" fill="#db53e" stroke="#db53e" /><circle cx="529.2852797570058" cy="475.7214139168885" r="20" fill="#a573e8" stroke="#a573e8" /><circle cx="247.8248397114964" cy="145.44781686305095" r="20" fill="#8c7811" stroke="#8c7811" /><circle cx="388.34952442144856" cy="296.4050973880498" r="20" fill="#868fe" stroke="#868fe" /><circle cx="82.06802833915549" cy="167.71505514181567" r="20" fill="#6c9fda" stroke="#6c9fda" /><circle cx="364.869463755656" cy="560.1992092906925" r="20" fill="#c9792d" stroke="#c9792d" /><circle cx="224.68375894732517" cy="286.18905219930684" r="20" fill="#ec3525" stroke="#ec3525" /><circle cx="354.41773184958436" cy="445.59389395017206" r="20" fill="#bb4cf" stroke="#bb4cf" /><circle cx="29.94705963063118" cy="416.40933128105183" r="20" fill="#ac8d2" stroke="#ac8d2" /><circle cx="384.72000619319476" cy="303.8957454166033" r="20" fill="#dc7330" stroke="#dc7330" /><circle cx="597.792387439985" cy="266.2461096867914" r="20" fill="#2bf6ab" stroke="#2bf6ab" /><circle cx="188.51281767996704" cy="399.6725599190854" r="20" fill="#b4d38" stroke="#b4d38" /><circle cx="552.0322416014874" cy="584.6761697759354" r="20" fill="#ad1d73" stroke="#ad1d73" /><circle cx="386.5933810974357" cy="7.609413638054763" r="20" fill="#5207f1" stroke="#5207f1" /><circle cx="335.02683926690725" cy="105.91497140622454" r="20" fill="#c3840c" stroke="#c3840c" /><circle cx="546.839046609748" cy="594.3016414144773" r="20" fill="#146a34" stroke="#146a34" /><circle cx="185.18232712572504" cy="111.83749546895379" r="20" fill="#9b9f3e" stroke="#9b9f3e" /><circle cx="576.142616544292" cy="94.32696269982257" r="20" fill="#3f0da6" stroke="#3f0da6" /><circle cx="277.9817157982063" cy="228.47903906518016" r="20" fill="#8a4746" stroke="#8a4746" /><circle cx="350.12526448847365" cy="40.181301924822854" r="20" fill="#f675a9" stroke="#f675a9" /><circle cx="575.4186552006156" cy="27.351591906399484" r="20" fill="#26c666" stroke="#26c666" /><circle cx="194.54967607763967" cy="344.3653932726669" r="20" fill="#3c2227" stroke="#3c2227" /><circle cx="532.8592338239264" cy="586.6117278661306" r="20" fill="#836fb8" stroke="#836fb8" /><circle cx="559.7037781306412" cy="297.06539390038296" r="20" fill="#cd1ab5" stroke="#cd1ab5" /><circle cx="331.2973579357597" cy="552.6126610580911" r="20" fill="#befe47" stroke="#befe47" /><circle cx="254.16972642116394" cy="462.4312681846087" r="20" fill="#f09715" stroke="#f09715" /><circle cx="347.50896016081754" cy="15.291500478660103" r="20" fill="#c07a70" stroke="#c07a70" /><circle cx="162.77900115645406" cy="564.8128827524938" r="20" fill="#670a7f" stroke="#670a7f" /><circle cx="92.32063141781465" cy="18.865252124131526" r="20" fill="#2cc2ac" stroke="#2cc2ac" /><circle cx="476.6728315712238" cy="1.7459292632023615" r="20" fill="#ab8bde" stroke="#ab8bde" /><circle cx="85.37016724031506" cy="390.7561564079876" r="20" fill="#b63d3a" stroke="#b63d3a" /><circle cx="365.5477305809207" cy="571.4607519938314" r="20" fill="#10a236" stroke="#10a236" /><circle cx="249.18802914097222" cy="44.624480826635484" r="20" fill="#827bf5" stroke="#827bf5" /><circle cx="281.06762370686056" cy="80.82304232441734" r="20" fill="#3de43b" stroke="#3de43b" /><circle cx="284.2600114864474" cy="397.6688013727084" r="20" fill="#9afebd" stroke="#9afebd" /><circle cx="265.56064611184127" cy="569.5879388949411" r="20" fill="#93a81" stroke="#93a81" /><circle cx="220.13543313607192" cy="472.62712351540637" r="20" fill="#a76967" stroke="#a76967" /><circle cx="388.45273901937884" cy="375.0275662465" r="20" fill="#59dd1d" stroke="#59dd1d" /><circle cx="486.6297938458876" cy="366.7306891924694" r="20" fill="#485ac2" stroke="#485ac2" /><circle cx="549.9065728907207" cy="354.91555396226437" r="20" fill="#e86b7d" stroke="#e86b7d" /><circle cx="315.67068826087745" cy="17.448130296274833" r="20" fill="#66916" stroke="#66916" /><circle cx="488.83981158622515" cy="31.54772389035876" r="20" fill="#edd80f" stroke="#edd80f" /><circle cx="295.22361536702334" cy="88.79620732579951" r="20" fill="#62523f" stroke="#62523f" /><circle cx="387.2303105426447" cy="591.045803762884" r="20" fill="#ece881" stroke="#ece881" /><circle cx="86.55093144259705" cy="147.50886351746573" r="20" fill="#49a6bf" stroke="#49a6bf" /><circle cx="219.71847532588922" cy="114.25718786666307" r="20" fill="#6c9037" stroke="#6c9037" /><circle cx="314.95224708961626" cy="13.258822536430559" r="20" fill="#c673c5" stroke="#c673c5" /><circle cx="360.7007984342214" cy="469.85985708900665" r="20" fill="#b9592e" stroke="#b9592e" /><circle cx="559.3302618057202" cy="310.36163551086094" r="20" fill="#988165" stroke="#988165" /><circle cx="53.57268953232048" cy="136.47445924892034" r="20" fill="#18c42c" stroke="#18c42c" /><circle cx="197.07132766602734" cy="544.5541617043169" r="20" fill="#6cde42" stroke="#6cde42" /><circle cx="401.4994615651987" cy="509.1947934572489" r="20" fill="#24571d" stroke="#24571d" /><circle cx="495.7372152336462" cy="57.554652912864455" r="20" fill="#1512f2" stroke="#1512f2" /><circle cx="575.119222387871" cy="261.7141085290942" r="20" fill="#ed6fd7" stroke="#ed6fd7" /><circle cx="166.08226604000828" cy="201.37024860850084" r="20" fill="#54d0e9" stroke="#54d0e9" /><circle cx="248.57730000594412" cy="442.366468904907" r="20" fill="#2f5383" stroke="#2f5383" /><circle cx="232.94166831351552" cy="424.34105316278317" r="20" fill="#95bad7" stroke="#95bad7" /><circle cx="135.98768870266503" cy="53.942870366940454" r="20" fill="#24280d" stroke="#24280d" /><circle cx="44.668651249267775" cy="248.44483218474468" r="20" fill="#28fd50" stroke="#28fd50" /><circle cx="91.35865838461422" cy="138.99661191912494" r="20" fill="#6c2cf0" stroke="#6c2cf0" /><circle cx="541.4144993494718" cy="205.20162855756217" r="20" fill="#cbe0ba" stroke="#cbe0ba" /><circle cx="458.7560996209128" cy="218.75310724542385" r="20" fill="#4652c8" stroke="#4652c8" /><circle cx="533.5668282368367" cy="242.9150085334823" r="20" fill="#5275d6" stroke="#5275d6" /><circle cx="212.13273626000085" cy="351.24882088344776" r="20" fill="#224278" stroke="#224278" /><circle cx="405.96810824540114" cy="387.9092879635366" r="20" fill="#fb4408" stroke="#fb4408" /><circle cx="195.94645004437263" cy="264.68762512146264" r="20" fill="#78417" stroke="#78417" /><circle cx="345.8934390871642" cy="166.73304544735038" r="20" fill="#38a9e9" stroke="#38a9e9" /><circle cx="60.09139281202343" cy="400.4174621051621" r="20" fill="#cdeb8e" stroke="#cdeb8e" /><circle cx="376.1000224428389" cy="304.82695099313975" r="20" fill="#ba4de6" stroke="#ba4de6" /><circle cx="155.802836746233" cy="81.62877009415351" r="20" fill="#316ffb" stroke="#316ffb" /><circle cx="78.59596788000998" cy="306.44351994042376" r="20" fill="#6bad51" stroke="#6bad51" /><circle cx="257.42769701974294" cy="122.72296082806866" r="20" fill="#ccfa" stroke="#ccfa" /><circle cx="392.6756207552516" cy="512.6414705154867" r="20" fill="#d3e795" stroke="#d3e795" /><circle cx="340.18119287167553" cy="98.61452870542865" r="20" fill="#3543f7" stroke="#3543f7" /><circle cx="599.2022586923887" cy="595.6380841816836" r="20" fill="#473b1" stroke="#473b1" /><circle cx="189.8145671191977" cy="36.67166240450621" r="20" fill="#440aed" stroke="#440aed" /><circle cx="76.0375120850353" cy="102.33383827298597" r="20" fill="#b48955" stroke="#b48955" /><circle cx="594.620568315021" cy="358.61449385242474" r="20" fill="#498010" stroke="#498010" /><circle cx="506.7473054201005" cy="507.30193250078014" r="20" fill="#95ca31" stroke="#95ca31" /><circle cx="236.4438713832783" cy="471.08783517734685" r="20" fill="#4f546a" stroke="#4f546a" /><circle cx="293.6198373051908" cy="197.64373807655105" r="20" fill="#685d2d" stroke="#685d2d" /><circle cx="489.981280612839" cy="269.4697834946827" r="20" fill="#f9a575" stroke="#f9a575" /><circle cx="200.14814190923101" cy="173.1061584702183" r="20" fill="#60b67c" stroke="#60b67c" /><circle cx="569.1246118500039" cy="414.8488819382506" r="20" fill="#ff3e46" stroke="#ff3e46" /><circle cx="291.65573285781903" cy="416.5271354216042" r="20" fill="#5d11c2" stroke="#5d11c2" /><circle cx="527.7258338495366" cy="170.38127225644834" r="20" fill="#86337c" stroke="#86337c" /><circle cx="78.46620584604334" cy="395.5017255744997" r="20" fill="#59432b" stroke="#59432b" /><circle cx="596.073669250924" cy="541.4067180311308" r="20" fill="#8ff2d7" stroke="#8ff2d7" /><circle cx="253.65562382073762" cy="257.4417224052443" r="20" fill="#ac97e7" stroke="#ac97e7" /><circle cx="297.3779865573209" cy="277.94335690260993" r="20" fill="#4f5f86" stroke="#4f5f86" /><circle cx="354.8060324158773" cy="430.27019228886417" r="20" fill="#ab2896" stroke="#ab2896" /><circle cx="397.87810674543783" cy="110.7205171763121" r="20" fill="#80205b" stroke="#80205b" /><circle cx="118.2487771710167" cy="45.40385887029829" r="20" fill="#20dfbd" stroke="#20dfbd" /><circle cx="106.22989901533839" cy="392.90513708339097" r="20" fill="#8d12bc" stroke="#8d12bc" /><circle cx="47.27147625365191" cy="520.9875858059314" r="20" fill="#a0e014" stroke="#a0e014" /><circle cx="432.13340188848576" cy="474.2046062250799" r="20" fill="#788522" stroke="#788522" /><circle cx="376.3425308118903" cy="193.74285492380614" r="20" fill="#9a475e" stroke="#9a475e" /><circle cx="187.94273952128216" cy="346.853257448235" r="20" fill="#b5e397" stroke="#b5e397" /><circle cx="541.0239108368593" cy="166.76715837370156" r="20" fill="#ffc22b" stroke="#ffc22b" /><circle cx="570.7996659643376" cy="251.09856794365308" r="20" fill="#fbc946" stroke="#fbc946" /><circle cx="220.98568895339307" cy="219.40989080353694" r="20" fill="#6404b1" stroke="#6404b1" /><circle cx="565.7814524333288" cy="468.4072465525549" r="20" fill="#3319f8" stroke="#3319f8" /><circle cx="211.32157393450822" cy="50.69911802946847" r="20" fill="#486fea" stroke="#486fea" /><circle cx="529.9072216781979" cy="209.7199465060403" r="20" fill="#e4eed0" stroke="#e4eed0" /><circle cx="70.30097809114699" cy="454.11896137197624" r="20" fill="#9cd1be" stroke="#9cd1be" /><circle cx="422.91004804366275" cy="354.3256848913293" r="20" fill="#8181b7" stroke="#8181b7" /><circle cx="133.39812989477608" cy="204.071018287028" r="20" fill="#c822ab" stroke="#c822ab" /><circle cx="453.00885496834826" cy="435.0460615106444" r="20" fill="#3b6b57" stroke="#3b6b57" /><circle cx="589.9932872513583" cy="87.61350565750696" r="20" fill="#2b5efd" stroke="#2b5efd" /><circle cx="254.1838373336179" cy="17.043995088452448" r="20" fill="#32223d" stroke="#32223d" /><circle cx="296.15910983933793" cy="162.75667251189287" r="20" fill="#1fbb1" stroke="#1fbb1" /><circle cx="546.4167818158456" cy="587.3448095334732" r="20" fill="#83c29a" stroke="#83c29a" /><circle cx="448.0724788850202" cy="287.06086625727" r="20" fill="#6ed8a0" stroke="#6ed8a0" /><circle cx="217.70794854683194" cy="342.5408304041368" r="20" fill="#a2d4a7" stroke="#a2d4a7" /><circle cx="58.08494008336251" cy="527.3346490973832" r="20" fill="#fe0e7b" stroke="#fe0e7b" /><circle cx="310.52833840378" cy="63.97519085635843" r="20" fill="#4c1e14" stroke="#4c1e14" /><circle cx="418.8335691389575" cy="29.277199054156576" r="20" fill="#9c3c5b" stroke="#9c3c5b" /><circle cx="207.7143197552764" cy="200.89364128664533" r="20" fill="#b2f58d" stroke="#b2f58d" /><circle cx="170.69168206504997" cy="240.5386815343511" r="20" fill="#6f0826" stroke="#6f0826" /><circle cx="8.89302362853397" cy="102.15530854243991" r="20" fill="#230c8d" stroke="#230c8d" /><circle cx="473.29418065520446" cy="579.3348047309469" r="20" fill="#b20a2a" stroke="#b20a2a" /><circle cx="477.20584302296515" cy="288.6920704630586" r="20" fill="#23cc7" stroke="#23cc7" /><circle cx="280.62514630569024" cy="526.2223410691062" r="20" fill="#82ffd" stroke="#82ffd" /><circle cx="486.24193051825233" cy="124.43213332039842" r="20" fill="#e5c804" stroke="#e5c804" /><circle cx="165.4332497778564" cy="475.3072900769364" r="20" fill="#8a428" stroke="#8a428" /><circle cx="39.5771505921946" cy="497.67191244213427" r="20" fill="#b17db3" stroke="#b17db3" /><circle cx="282.92500434513363" cy="10.666392261373714" r="20" fill="#8ce50a" stroke="#8ce50a" /><circle cx="333.9676421733841" cy="134.14323289320276" r="20" fill="#aba311" stroke="#aba311" /><circle cx="532.2615837921927" cy="225.31973423185474" r="20" fill="#79073f" stroke="#79073f" /><circle cx="535.6883068994755" cy="361.00219257340905" r="20" fill="#e85022" stroke="#e85022" /><circle cx="334.0731573351534" cy="373.1200315138572" r="20" fill="#d20aaa" stroke="#d20aaa" /><circle cx="266.74574306476757" cy="231.69762377493203" r="20" fill="#1d9851" stroke="#1d9851" /><circle cx="180.39211011289075" cy="35.05376376565428" r="20" fill="#29879c" stroke="#29879c" /><circle cx="37.849162968010845" cy="175.34475969270304" r="20" fill="#4224ee" stroke="#4224ee" /><circle cx="431.8278147296759" cy="419.0172970114932" r="20" fill="#94624f" stroke="#94624f" /><circle cx="116.05856848346656" cy="423.92737956027895" r="20" fill="#c68f30" stroke="#c68f30" /><circle cx="14.59613174049701" cy="382.49381523280545" r="20" fill="#437117" stroke="#437117" /><circle cx="364.52369169692827" cy="381.629746139882" r="20" fill="#a8bf0f" stroke="#a8bf0f" /><circle cx="410.9420718102803" cy="155.6550483925328" r="20" fill="#ba78ac" stroke="#ba78ac" /><circle cx="409.8432321791731" cy="392.6344535547735" r="20" fill="#83f1d9" stroke="#83f1d9" /><circle cx="225.72926347906494" cy="217.46697211388852" r="20" fill="#1e9b61" stroke="#1e9b61" /><circle cx="289.1984579938026" cy="170.86435856433607" r="20" fill="#53397e" stroke="#53397e" /><circle cx="97.05940933949799" cy="400.6135427816413" r="20" fill="#46faa0" stroke="#46faa0" /><circle cx="459.0234143974094" cy="67.17998541171148" r="20" fill="#e58f2a" stroke="#e58f2a" /><circle cx="130.04547349716384" cy="242.34824184541998" r="20" fill="#d2d2c4" stroke="#d2d2c4" /><circle cx="308.377245106147" cy="169.56947307155957" r="20" fill="#4cb009" stroke="#4cb009" /><circle cx="579.3086216813666" cy="207.68223274001545" r="20" fill="#b3390b" stroke="#b3390b" /><circle cx="220.9126040654743" cy="267.23007451731814" r="20" fill="#c5a690" stroke="#c5a690" /><circle cx="354.2640609496519" cy="517.5681528516187" r="20" fill="#79b98e" stroke="#79b98e" /><circle cx="556.530822092472" cy="485.4996993660173" r="20" fill="#d437da" stroke="#d437da" /><circle cx="599.667431080456" cy="533.445833265595" r="20" fill="#d1ed77" stroke="#d1ed77" /><circle cx="345.20374248516663" cy="106.21625903431733" r="20" fill="#51fab6" stroke="#51fab6" /><circle cx="170.03088112013737" cy="341.9862830952223" r="20" fill="#78e46a" stroke="#78e46a" /><circle cx="469.3094370959576" cy="213.17025318623215" r="20" fill="#d4057e" stroke="#d4057e" /><circle cx="471.6992146729194" cy="419.2159521311454" r="20" fill="#254d6b" stroke="#254d6b" /><circle cx="449.09139172625817" cy="156.65661219258573" r="20" fill="#cb11b4" stroke="#cb11b4" /><circle cx="246.47380899239292" cy="336.4866327488263" r="20" fill="#3eca9b" stroke="#3eca9b" /><circle cx="157.05261396696696" cy="124.70659771990213" r="20" fill="#829879" stroke="#829879" /><circle cx="242.23807131062296" cy="489.69078221907375" r="20" fill="#6dad4e" stroke="#6dad4e" /><circle cx="226.21652997483545" cy="128.98704952429676" r="20" fill="#8394aa" stroke="#8394aa" /><circle cx="148.2799870378611" cy="355.8077018117706" r="20" fill="#effeb7" stroke="#effeb7" /><circle cx="143.44500554726062" cy="115.25839688295751" r="20" fill="#5d0843" stroke="#5d0843" /><circle cx="76.7480814505868" cy="243.98340339654223" r="20" fill="#c1eea4" stroke="#c1eea4" /><circle cx="74.86771212460069" cy="198.64399114447303" r="20" fill="#731c" stroke="#731c" /><circle cx="47.85446669897202" cy="538.8183437427515" r="20" fill="#990052" stroke="#990052" /><circle cx="575.5918822738505" cy="408.10219761636273" r="20" fill="#1db764" stroke="#1db764" /><circle cx="460.49528894636234" cy="29.670886512656214" r="20" fill="#28a5c4" stroke="#28a5c4" /><circle cx="214.9458403964064" cy="544.5294687868138" r="20" fill="#32149b" stroke="#32149b" /><circle cx="177.76769612433475" cy="247.71114221286092" r="20" fill="#a8bfdd" stroke="#a8bfdd" /><circle cx="345.868292117808" cy="536.4800853048514" r="20" fill="#e2b67a" stroke="#e2b67a" /><circle cx="560.4870284496051" cy="398.09359978186995" r="20" fill="#31c269" stroke="#31c269" /><circle cx="82.67625644097238" cy="485.16200310013215" r="20" fill="#df71bf" stroke="#df71bf" /><circle cx="331.27778168387016" cy="193.89658862846883" r="20" fill="#83a78a" stroke="#83a78a" /><circle cx="293.48490941511926" cy="66.3516253007149" r="20" fill="#6397b8" stroke="#6397b8" /><circle cx="591.4483910363524" cy="576.8346486710877" r="20" fill="#833ea" stroke="#833ea" /><circle cx="200.57616902588248" cy="401.1161436047722" r="20" fill="#71ebd0" stroke="#71ebd0" /><circle cx="350.47828803361847" cy="589.2337534459128" r="20" fill="#aca79c" stroke="#aca79c" /><circle cx="80.45058055317979" cy="464.0450385050487" r="20" fill="#8cf32" stroke="#8cf32" /><circle cx="403.933196061011" cy="431.000534561539" r="20" fill="#9ea1a1" stroke="#9ea1a1" /><circle cx="0.2221730162283997" cy="502.9210980025325" r="20" fill="#927e24" stroke="#927e24" /><circle cx="225.63895773961008" cy="482.51638727238856" r="20" fill="#7eedac" stroke="#7eedac" /><circle cx="587.0875090572748" cy="8.285054694476335" r="20" fill="#8edec8" stroke="#8edec8" /><circle cx="27.13951232592975" cy="86.15804382058431" r="20" fill="#2ae4f7" stroke="#2ae4f7" /><circle cx="500.11051015184813" cy="445.97220431174713" r="20" fill="#ad7748" stroke="#ad7748" /><circle cx="288.29790184178654" cy="408.1856403353225" r="20" fill="#eadbeb" stroke="#eadbeb" /><circle cx="131.1647965305347" cy="351.04615320360597" r="20" fill="#b43326" stroke="#b43326" /><circle cx="448.3998728852107" cy="25.568193401586512" r="20" fill="#f8c2b8" stroke="#f8c2b8" /><circle cx="1.9564358345595334" cy="288.34701666340345" r="20" fill="#5f1d8" stroke="#5f1d8" /><circle cx="331.3888167028837" cy="57.12382413123365" r="20" fill="#7fa02f" stroke="#7fa02f" /><circle cx="371.8715877516466" cy="316.210074190789" r="20" fill="#522dc8" stroke="#522dc8" /><circle cx="401.1218312554404" cy="511.2774412606435" r="20" fill="#880a22" stroke="#880a22" /><circle cx="249.40095361101" cy="83.1527546237504" r="20" fill="#327775" stroke="#327775" /><circle cx="104.96208430973377" cy="26.099287785965906" r="20" fill="#9f6810" stroke="#9f6810" /><circle cx="9.938025099720393" cy="578.1257804772187" r="20" fill="#c80430" stroke="#c80430" /><circle cx="412.8853108118835" cy="320.1101027812387" r="20" fill="#adfa73" stroke="#adfa73" /><circle cx="183.58745780914947" cy="497.7833734889168" r="20" fill="#245e73" stroke="#245e73" /><circle cx="281.099967344877" cy="22.327717237029752" r="20" fill="#93defd" stroke="#93defd" /><circle cx="220.1093336236541" cy="9.487901770152618" r="20" fill="#df2368" stroke="#df2368" /><circle cx="488.9020663899673" cy="553.7688148008572" r="20" fill="#942bb2" stroke="#942bb2" /><circle cx="410.9461208283511" cy="409.0594648552821" r="20" fill="#67c90b" stroke="#67c90b" /><circle cx="179.38163944950546" cy="333.7180805773661" r="20" fill="#f0b91b" stroke="#f0b91b" /><circle cx="364.1867779725553" cy="25.364088154712363" r="20" fill="#f62abf" stroke="#f62abf" /><circle cx="442.22694770688025" cy="81.67898265056817" r="20" fill="#8d6c05" stroke="#8d6c05" /><circle cx="102.34986367774917" cy="271.67541715658234" r="20" fill="#58e813" stroke="#58e813" /><circle cx="120.0462117757512" cy="450.8495081221538" r="20" fill="#737669" stroke="#737669" /><circle cx="372.4956698830156" cy="153.4563600509577" r="20" fill="#b9c567" stroke="#b9c567" /><circle cx="374.1490420367465" cy="448.3813944241045" r="20" fill="#a4297b" stroke="#a4297b" /><circle cx="234.60365204683043" cy="410.29791471676054" r="20" fill="#d42980" stroke="#d42980" /><circle cx="128.8150008562519" cy="504.9919461180378" r="20" fill="#a673f0" stroke="#a673f0" /><circle cx="426.489530107082" cy="586.9800480224941" r="20" fill="#dc152b" stroke="#dc152b" /><circle cx="394.5563933287209" cy="271.07525380462647" r="20" fill="#ed3617" stroke="#ed3617" /><circle cx="331.02794609662635" cy="161.1534148217382" r="20" fill="#55fbfe" stroke="#55fbfe" /><circle cx="90.9132229997085" cy="477.29606008078116" r="20" fill="#747af0" stroke="#747af0" /><circle cx="376.461581419692" cy="187.08826324220985" r="20" fill="#d128c3" stroke="#d128c3" /><circle cx="359.6266269765175" cy="111.97033926823097" r="20" fill="#370330" stroke="#370330" /><circle cx="579.4625361337658" cy="318.47795610425374" r="20" fill="#d66d83" stroke="#d66d83" /><circle cx="292.6155069348241" cy="463.29261452774637" r="20" fill="#7170a7" stroke="#7170a7" /><circle cx="535.0880909266505" cy="105.52948096945522" r="20" fill="#eee41f" stroke="#eee41f" /><circle cx="282.74523741818996" cy="279.9229870517776" r="20" fill="#b744d8" stroke="#b744d8" /><circle cx="260.72199221641125" cy="282.9722384443559" r="20" fill="#4f4650" stroke="#4f4650" /><circle cx="329.6761033304645" cy="238.56533358492075" r="20" fill="#170ee" stroke="#170ee" /><circle cx="209.84909426867912" cy="129.69886541816402" r="20" fill="#b4eb3f" stroke="#b4eb3f" /><circle cx="383.1027624953312" cy="285.6549724343089" r="20" fill="#332a9c" stroke="#332a9c" /><circle cx="431.7852588992763" cy="63.85682531575934" r="20" fill="#bbea8f" stroke="#bbea8f" /><circle cx="101.22539108144531" cy="353.7811656304773" r="20" fill="#c0bbfa" stroke="#c0bbfa" /><circle cx="435.9055973912251" cy="69.08410233809082" r="20" fill="#592455" stroke="#592455" /><circle cx="259.7335109651771" cy="190.9571092300803" r="20" fill="#3aca73" stroke="#3aca73" /><circle cx="168.93205666344312" cy="158.7436552009997" r="20" fill="#e9ad73" stroke="#e9ad73" /><circle cx="330.036867207308" cy="520.2662413770023" r="20" fill="#6a509c" stroke="#6a509c" /><circle cx="125.33783962770553" cy="0.5821913239820731" r="20" fill="#13a527" stroke="#13a527" /><circle cx="356.3680018727414" cy="315.9181737752584" r="20" fill="#e04958" stroke="#e04958" /><circle cx="148.14042699923684" cy="156.1015691644946" r="20" fill="#daeb34" stroke="#daeb34" /><circle cx="581.7882737494992" cy="36.42062750785393" r="20" fill="#aee101" stroke="#aee101" /><circle cx="85.24829385912795" cy="420.3227009433669" r="20" fill="#bc3c7d" stroke="#bc3c7d" /><circle cx="86.8358739133602" cy="525.183405974415" r="20" fill="#5bdfad" stroke="#5bdfad" /><circle cx="37.69662472084914" cy="438.34620593521805" r="20" fill="#ef8b8a" stroke="#ef8b8a" /><circle cx="551.1814138151826" cy="522.0465147958425" r="20" fill="#72e023" stroke="#72e023" /><circle cx="478.7104135341522" cy="342.5469856156885" r="20" fill="#1da9cd" stroke="#1da9cd" /><circle cx="562.8155472828889" cy="63.00913959528525" r="20" fill="#335564" stroke="#335564" /><circle cx="566.3860033003405" cy="24.493758773329954" r="20" fill="#11c6bf" stroke="#11c6bf" /><circle cx="62.74356703210664" cy="396.99969025384246" r="20" fill="#42d6ed" stroke="#42d6ed" /><circle cx="186.46877733944856" cy="335.65105082566356" r="20" fill="#900997" stroke="#900997" /><circle cx="48.1884443996774" cy="359.66645761780006" r="20" fill="#eea49c" stroke="#eea49c" /><circle cx="364.62191300061903" cy="338.3833358905064" r="20" fill="#e5ed0e" stroke="#e5ed0e" /><circle cx="424.9757648599397" cy="297.68308565772037" r="20" fill="#6a9a8e" stroke="#6a9a8e" /><circle cx="496.490686817649" cy="325.6565182253836" r="20" fill="#689570" stroke="#689570" /><circle cx="340.9025424818111" cy="589.9268639613634" r="20" fill="#1b004d" stroke="#1b004d" /><circle cx="456.60898126300884" cy="305.2795728930026" r="20" fill="#f87243" stroke="#f87243" /><circle cx="65.82082730819803" cy="508.28123416696303" r="20" fill="#8710d5" stroke="#8710d5" /><circle cx="39.69764550165493" cy="416.86521790493873" r="20" fill="#21b092" stroke="#21b092" /><circle cx="152.57118483381683" cy="388.1250025186451" r="20" fill="#41bed6" stroke="#41bed6" /><circle cx="557.026938085355" cy="535.3799686953392" r="20" fill="#88598d" stroke="#88598d" /><circle cx="258.1645163986643" cy="448.9785391664717" r="20" fill="#9f6568" stroke="#9f6568" /><circle cx="355.5113196539538" cy="399.4872849981467" r="20" fill="#dd81ce" stroke="#dd81ce" /><circle cx="528.579146458096" cy="517.2628127866436" r="20" fill="#b8d40b" stroke="#b8d40b" /><circle cx="486.8705020249111" cy="176.3712781012035" r="20" fill="#b2db87" stroke="#b2db87" /><circle cx="500.99757934375094" cy="32.40584360852616" r="20" fill="#4e111d" stroke="#4e111d" /><circle cx="587.350104259268" cy="463.64922362374944" r="20" fill="#282927" stroke="#282927" /><circle cx="7.038359096797109" cy="84.92846603057428" r="20" fill="#e3c0e3" stroke="#e3c0e3" /><circle cx="147.01081491702973" cy="424.64582773016485" r="20" fill="#8e9cf4" stroke="#8e9cf4" /><circle cx="136.64690335521988" cy="561.3413521752674" r="20" fill="#5de780" stroke="#5de780" /><circle cx="458.5414986194059" cy="192.2901338056633" r="20" fill="#8473a4" stroke="#8473a4" /><circle cx="21.72101257508445" cy="513.019230327577" r="20" fill="#666b5a" stroke="#666b5a" /><circle cx="12.98533387579921" cy="571.2485834533559" r="20" fill="#fec005" stroke="#fec005" /><circle cx="133.73013523904783" cy="538.840972029403" r="20" fill="#47f3a" stroke="#47f3a" /><circle cx="207.67555829161682" cy="137.69410486754117" r="20" fill="#1c849" stroke="#1c849" /><circle cx="86.23030884334426" cy="280.7368376863689" r="20" fill="#36d588" stroke="#36d588" /><circle cx="56.15138057122402" cy="374.9702705785488" r="20" fill="#537fcf" stroke="#537fcf" /><circle cx="482.2076563786598" cy="400.1400798321428" r="20" fill="#dbb8f0" stroke="#dbb8f0" /><circle cx="442.6282473937381" cy="9.81871845489728" r="20" fill="#1baca0" stroke="#1baca0" /><circle cx="146.47162241508727" cy="257.4072533173982" r="20" fill="#19844c" stroke="#19844c" /><circle cx="317.7231190439689" cy="4.772872261412386" r="20" fill="#e1ca66" stroke="#e1ca66" /><circle cx="410.833459175267" cy="337.2327529317364" r="20" fill="#c08bc8" stroke="#c08bc8" /><circle cx="170.03043935798613" cy="65.8899841943331" r="20" fill="#ebc8b1" stroke="#ebc8b1" /><circle cx="595.3259519944486" cy="391.27272430474875" r="20" fill="#27c2ee" stroke="#27c2ee" /><circle cx="453.8323734259725" cy="594.8755279221712" r="20" fill="#16d03f" stroke="#16d03f" /><circle cx="115.7162036880547" cy="239.84548796754262" r="20" fill="#d3379b" stroke="#d3379b" /><circle cx="194.667151678446" cy="476.30917666540984" r="20" fill="#b161d8" stroke="#b161d8" /><circle cx="341.4778210516193" cy="362.0974078242527" r="20" fill="#67441e" stroke="#67441e" /><circle cx="398.4084203373432" cy="498.8693290605126" r="20" fill="#96ccba" stroke="#96ccba" /><circle cx="295.63958841161735" cy="553.4835059409845" r="20" fill="#4949e6" stroke="#4949e6" /><circle cx="507.92877582281915" cy="342.8250393921779" r="20" fill="#c3ad3e" stroke="#c3ad3e" /><circle cx="145.81275043103997" cy="163.45461792225225" r="20" fill="#cf2453" stroke="#cf2453" /><circle cx="259.71638789246043" cy="467.8362867892116" r="20" fill="#cd8bf" stroke="#cd8bf" /><circle cx="131.1360946798836" cy="67.05512309822007" r="20" fill="#8b8ee5" stroke="#8b8ee5" /><circle cx="172.65275285420856" cy="339.67482372180007" r="20" fill="#f74f32" stroke="#f74f32" /><circle cx="474.0184915902068" cy="266.01646076700695" r="20" fill="#58e00" stroke="#58e00" /><circle cx="598.4496179163488" cy="63.97051409466572" r="20" fill="#4c3aa1" stroke="#4c3aa1" /><circle cx="269.11047160283226" cy="216.3938860512201" r="20" fill="#66ddfc" stroke="#66ddfc" /><circle cx="359.6256540510605" cy="413.84203650970005" r="20" fill="#e650cd" stroke="#e650cd" /><circle cx="498.0477682515218" cy="80.01934725101418" r="20" fill="#43c95" stroke="#43c95" /><circle cx="57.30734374059665" cy="455.8947892188396" r="20" fill="#f49d50" stroke="#f49d50" /><circle cx="564.1910865680803" cy="101.75546131785467" r="20" fill="#4c681c" stroke="#4c681c" /><circle cx="326.5700265615806" cy="92.49075201034746" r="20" fill="#d1babe" stroke="#d1babe" /><circle cx="171.02684712486703" cy="346.7321189966188" r="20" fill="#d11235" stroke="#d11235" /><circle cx="322.92096980214075" cy="321.184908796095" r="20" fill="#7f0b3a" stroke="#7f0b3a" /><circle cx="313.3981709860041" cy="583.7696634069483" r="20" fill="#6d178" stroke="#6d178" /><circle cx="436.82872471754644" cy="159.2753220635277" r="20" fill="#fe967d" stroke="#fe967d" /><circle cx="480.3051497551021" cy="90.03251137701143" r="20" fill="#61b242" stroke="#61b242" /><circle cx="113.5298709927941" cy="212.76422218886788" r="20" fill="#fa9bc4" stroke="#fa9bc4" /><circle cx="439.0055964954715" cy="351.547687117171" r="20" fill="#3dbc2e" stroke="#3dbc2e" /><circle cx="261.36358173995313" cy="529.4453721321115" r="20" fill="#7593a4" stroke="#7593a4" /><circle cx="76.5320835561134" cy="561.1408924317963" r="20" fill="#de90a7" stroke="#de90a7" /><circle cx="178.17403880883114" cy="128.48301705985327" r="20" fill="#9aaefc" stroke="#9aaefc" /><circle cx="47.097871761504706" cy="191.51698316906075" r="20" fill="#406a72" stroke="#406a72" /><circle cx="277.24454651014435" cy="563.3528228091187" r="20" fill="#59f529" stroke="#59f529" /><circle cx="92.30607447705799" cy="349.265097727127" r="20" fill="#95284b" stroke="#95284b" /><circle cx="593.429924245233" cy="445.3852053829701" r="20" fill="#c1e590" stroke="#c1e590" /><circle cx="303.256254166053" cy="290.8331351762493" r="20" fill="#159a2e" stroke="#159a2e" /><circle cx="68.82374350746416" cy="63.43147483737117" r="20" fill="#ee7425" stroke="#ee7425" /><circle cx="410.5121463602489" cy="88.78254886860653" r="20" fill="#87a894" stroke="#87a894" /><circle cx="254.21173450688536" cy="27.972819225625003" r="20" fill="#bf5bc7" stroke="#bf5bc7" /><circle cx="56.17715853510856" cy="36.646966819713086" r="20" fill="#3bcb90" stroke="#3bcb90" /><circle cx="137.93479372406884" cy="332.4170140293798" r="20" fill="#79919c" stroke="#79919c" /><circle cx="400.5202812124307" cy="127.69674506421542" r="20" fill="#d89b42" stroke="#d89b42" /><circle cx="460.24132978829317" cy="497.979848581856" r="20" fill="#e5a78" stroke="#e5a78" /><circle cx="120.52569383811277" cy="66.12875969179063" r="20" fill="#6a93dc" stroke="#6a93dc" /><circle cx="570.6251092373316" cy="25.86224927205789" r="20" fill="#715d29" stroke="#715d29" /><circle cx="139.70426959623023" cy="585.610717738706" r="20" fill="#841ebc" stroke="#841ebc" /><circle cx="1.1491741321668858" cy="296.3525593955894" r="20" fill="#71cb60" stroke="#71cb60" /><circle cx="403.22151039650305" cy="262.1003677160824" r="20" fill="#7bb3c3" stroke="#7bb3c3" /><circle cx="208.71944567185082" cy="508.13096312945294" r="20" fill="#6c5b82" stroke="#6c5b82" /><circle cx="535.829750542521" cy="146.13178685799167" r="20" fill="#34bf50" stroke="#34bf50" /><circle cx="396.42367122313874" cy="307.7065526290786" r="20" fill="#7cd7a6" stroke="#7cd7a6" /><circle cx="178.65466816796055" cy="370.25096459852125" r="20" fill="#5f8d6c" stroke="#5f8d6c" /><circle cx="384.76392793862584" cy="203.93302913219694" r="20" fill="#a7ac3d" stroke="#a7ac3d" /><circle cx="79.48809784630129" cy="124.40956841210907" r="20" fill="#da90d2" stroke="#da90d2" /><circle cx="52.92652498474961" cy="399.87750102658117" r="20" fill="#bf5c0e" stroke="#bf5c0e" /><circle cx="316.19289749149954" cy="266.1837127869387" r="20" fill="#1ce34e" stroke="#1ce34e" /><circle cx="103.5020672009285" cy="387.6799094512781" r="20" fill="#6bf4e8" stroke="#6bf4e8" /><circle cx="469.2040584483278" cy="540.5084069004729" r="20" fill="#2324a5" stroke="#2324a5" /><circle cx="326.28725003337354" cy="560.6084156324288" r="20" fill="#e00eae" stroke="#e00eae" /><circle cx="260.8480679588841" cy="136.7748790970162" r="20" fill="#8b801f" stroke="#8b801f" /><circle cx="508.3529174740741" cy="9.424149649000713" r="20" fill="#f9bfc6" stroke="#f9bfc6" /><circle cx="165.07194287779586" cy="247.6349210840032" r="20" fill="#3c4613" stroke="#3c4613" /><circle cx="154.70544471138857" cy="282.1191500613211" r="20" fill="#acf28c" stroke="#acf28c" /><circle cx="72.24593285333158" cy="310.57981006938905" r="20" fill="#f0337f" stroke="#f0337f" /><circle cx="443.9314897221966" cy="99.54299265061368" r="20" fill="#aa6050" stroke="#aa6050" /><circle cx="40.30659924797351" cy="526.6333166014649" r="20" fill="#9d478d" stroke="#9d478d" /><circle cx="158.86975662234227" cy="410.67287025540617" r="20" fill="#30d771" stroke="#30d771" /><circle cx="53.31997907587489" cy="112.6449352995349" r="20" fill="#5d0bbb" stroke="#5d0bbb" /><circle cx="194.11494473609073" cy="84.5228240641275" r="20" fill="#65a586" stroke="#65a586" /><circle cx="206.39317629625947" cy="483.56909548532053" r="20" fill="#bb92b9" stroke="#bb92b9" /><circle cx="407.06289416111537" cy="554.4291260870524" r="20" fill="#bfe555" stroke="#bfe555" /><circle cx="294.9409058298915" cy="369.1517139237079" r="20" fill="#d2184e" stroke="#d2184e" /><circle cx="29.83846741384113" cy="557.1043058408563" r="20" fill="#50b9e6" stroke="#50b9e6" /><circle cx="392.94994671315624" cy="332.58133290764374" r="20" fill="#a4083" stroke="#a4083" /><circle cx="545.0783533652766" cy="14.18817313046632" r="20" fill="#b47d9d" stroke="#b47d9d" /><circle cx="91.21030696793788" cy="274.75377796929735" r="20" fill="#e84d86" stroke="#e84d86" /><circle cx="558.3310967158171" cy="219.39373176659734" r="20" fill="#e37f98" stroke="#e37f98" /><circle cx="372.53088301185636" cy="195.4016017556078" r="20" fill="#35ba9d" stroke="#35ba9d" /><circle cx="260.6483839621558" cy="276.9597890267402" r="20" fill="#7767e7" stroke="#7767e7" /><circle cx="471.66521632395" cy="24.530927542317915" r="20" fill="#f5bf4d" stroke="#f5bf4d" /><circle cx="22.082661013612626" cy="508.72429347247373" r="20" fill="#119084" stroke="#119084" /><circle cx="519.1235342058568" cy="387.2666029860728" r="20" fill="#c38909" stroke="#c38909" /><circle cx="146.51642250072678" cy="19.887289529733778" r="20" fill="#ad83e7" stroke="#ad83e7" /><circle cx="531.4646961704891" cy="63.70275594002184" r="20" fill="#e8cecb" stroke="#e8cecb" /><circle cx="431.71991008228605" cy="507.0956166034473" r="20" fill="#c850b8" stroke="#c850b8" /><circle cx="219.97003063503954" cy="334.3967545556092" r="20" fill="#48b1eb" stroke="#48b1eb" /><circle cx="406.94866910460973" cy="290.0029996903423" r="20" fill="#ff092c" stroke="#ff092c" /><circle cx="433.3113428216162" cy="16.125954936006657" r="20" fill="#858d0b" stroke="#858d0b" /><circle cx="255.8136672193097" cy="415.8229333592963" r="20" fill="#ca64ba" stroke="#ca64ba" /><circle cx="117.07640033616968" cy="91.2720275293335" r="20" fill="#a0c7d5" stroke="#a0c7d5" /><circle cx="38.30461120199509" cy="110.49093236536534" r="20" fill="#359464" stroke="#359464" /><circle cx="346.19856326302937" cy="265.0438383911099" r="20" fill="#d3907f" stroke="#d3907f" /><circle cx="78.56291482077688" cy="180.3245044219766" r="20" fill="#43641a" stroke="#43641a" /><circle cx="395.29704727566406" cy="168.9480749430243" r="20" fill="#2ae76b" stroke="#2ae76b" /><circle cx="4.389705393765242" cy="380.34078303611574" r="20" fill="#d10941" stroke="#d10941" /><circle cx="396.90559726377217" cy="262.13014209590943" r="20" fill="#3d1eea" stroke="#3d1eea" /><circle cx="116.190298025499" cy="535.7754499972136" r="20" fill="#8431f" stroke="#8431f" /><circle cx="479.8667103060017" cy="183.60295941298736" r="20" fill="#d6c638" stroke="#d6c638" /><circle cx="18.20839065404609" cy="200.1544413302633" r="20" fill="#970ec6" stroke="#970ec6" /><circle cx="313.21488916809017" cy="502.6957012977146" r="20" fill="#5eadd7" stroke="#5eadd7" /><circle cx="519.6041503451946" cy="432.40629308344614" r="20" fill="#419c9e" stroke="#419c9e" /><circle cx="25.29417158064686" cy="129.78624919398052" r="20" fill="#9925b6" stroke="#9925b6" /><circle cx="308.6490327998233" cy="245.48563115248513" r="20" fill="#fb3cc2" stroke="#fb3cc2" /><circle cx="520.7444049945325" cy="9.709996573202284" r="20" fill="#45cae4" stroke="#45cae4" /><circle cx="262.10009313600324" cy="203.68052205458844" r="20" fill="#9fb808" stroke="#9fb808" /><circle cx="362.1342655387413" cy="137.51314103022202" r="20" fill="#eef9a3" stroke="#eef9a3" /><circle cx="393.94270084447413" cy="294.0708104667727" r="20" fill="#f7f25f" stroke="#f7f25f" /><circle cx="186.92373290111414" cy="275.22735875392175" r="20" fill="#f91e7c" stroke="#f91e7c" /><circle cx="413.3555789983964" cy="61.31899678611927" r="20" fill="#a11e2" stroke="#a11e2" /><circle cx="203.7389857801858" cy="239.07086280418463" r="20" fill="#f7c5c4" stroke="#f7c5c4" /><circle cx="180.06574322030696" cy="31.46806362783159" r="20" fill="#c04b8c" stroke="#c04b8c" /><circle cx="456.0791699446332" cy="539.5343312438608" r="20" fill="#a891d8" stroke="#a891d8" /><circle cx="462.65596694355355" cy="187.1200578152108" r="20" fill="#699c62" stroke="#699c62" /><circle cx="375.66224312688735" cy="346.4967698258106" r="20" fill="#136740" stroke="#136740" /><circle cx="561.465145820555" cy="22.995120315805153" r="20" fill="#134df3" stroke="#134df3" /><circle cx="572.2345024451736" cy="51.37605375326122" r="20" fill="#2bf7bf" stroke="#2bf7bf" /><circle cx="140.17948500310462" cy="309.2991638029199" r="20" fill="#9548c4" stroke="#9548c4" /><circle cx="25.296732443593093" cy="504.74948749047803" r="20" fill="#8716af" stroke="#8716af" /><circle cx="186.07371806953327" cy="81.35654283079118" r="20" fill="#1bcc32" stroke="#1bcc32" /><circle cx="270.7398281805018" cy="259.9343965474679" r="20" fill="#c69aaf" stroke="#c69aaf" /><circle cx="294.34785258612266" cy="26.86655730739251" r="20" fill="#25afe1" stroke="#25afe1" /><circle cx="222.29693692745323" cy="135.0532064953355" r="20" fill="#b64bab" stroke="#b64bab" /><circle cx="318.8592895017297" cy="3.9920756992144035" r="20" fill="#c7d3d3" stroke="#c7d3d3" /><circle cx="105.14636716022135" cy="510.1705296068076" r="20" fill="#6d01ef" stroke="#6d01ef" /><circle cx="331.1176042403884" cy="596.1960403147762" r="20" fill="#bc0cfd" stroke="#bc0cfd" /><circle cx="326.9883324615058" cy="291.4310712470446" r="20" fill="#4773ae" stroke="#4773ae" /><circle cx="466.3032905482786" cy="399.5507513993104" r="20" fill="#c2675f" stroke="#c2675f" /><circle cx="473.42920979417005" cy="338.3121223573281" r="20" fill="#8f35a9" stroke="#8f35a9" /><circle cx="178.75319529240195" cy="98.91562666842701" r="20" fill="#9339f2" stroke="#9339f2" /><circle cx="437.87356019953205" cy="85.61214257942784" r="20" fill="#13d33e" stroke="#13d33e" /><circle cx="237.77433102670193" cy="67.19794776151025" r="20" fill="#b43f89" stroke="#b43f89" /><circle cx="488.0352311691652" cy="95.2815983324387" r="20" fill="#ff0edd" stroke="#ff0edd" /><circle cx="290.06874390111943" cy="278.13995045500576" r="20" fill="#a56950" stroke="#a56950" /><circle cx="73.5261605256695" cy="237.75258891571514" r="20" fill="#587661" stroke="#587661" /><circle cx="79.58594821556706" cy="409.31296233587636" r="20" fill="#39665a" stroke="#39665a" /><circle cx="391.1810950210203" cy="186.8957964569115" r="20" fill="#787370" stroke="#787370" /><circle cx="408.3559550443741" cy="240.88856526614194" r="20" fill="#cffd6" stroke="#cffd6" /><circle cx="423.4763637910382" cy="388.7474906571593" r="20" fill="#27a0b6" stroke="#27a0b6" /><circle cx="393.6443618674224" cy="592.2556736702744" r="20" fill="#1f10ef" stroke="#1f10ef" /><circle cx="389.2386554515825" cy="22.125497225207667" r="20" fill="#732d7b" stroke="#732d7b" /><circle cx="124.97034635651562" cy="170.04706119672272" r="20" fill="#29261a" stroke="#29261a" /><circle cx="567.3282706426685" cy="143.48225661037114" r="20" fill="#1c25fa" stroke="#1c25fa" /><circle cx="26.73635820470519" cy="117.17508509963399" r="20" fill="#8fce98" stroke="#8fce98" /><circle cx="379.62359559816565" cy="433.18999279809833" r="20" fill="#1fc9cb" stroke="#1fc9cb" /><circle cx="346.89885737653935" cy="494.81765228658367" r="20" fill="#b4faec" stroke="#b4faec" /><circle cx="526.3842292039553" cy="263.8726591148469" r="20" fill="#85ab74" stroke="#85ab74" /><circle cx="349.6040873315908" cy="536.7529655874312" r="20" fill="#892223" stroke="#892223" /><circle cx="232.22087154146206" cy="196.89201822779393" r="20" fill="#1b4457" stroke="#1b4457" /><circle cx="547.32677795461" cy="256.6525032572866" r="20" fill="#2f1692" stroke="#2f1692" /><circle cx="410.8055195702049" cy="217.5934367704326" r="20" fill="#94ce97" stroke="#94ce97" /><circle cx="530.0198503416657" cy="292.7639888338804" r="20" fill="#9cce25" stroke="#9cce25" /><circle cx="367.7890139660031" cy="410.39358513848464" r="20" fill="#c0dd68" stroke="#c0dd68" /><circle cx="551.2115987441782" cy="301.4564623498854" r="20" fill="#203275" stroke="#203275" /><circle cx="460.73828988880723" cy="360.3409856227328" r="20" fill="#8b7391" stroke="#8b7391" /><circle cx="14.442414569191397" cy="436.52152562432025" r="20" fill="#e3541" stroke="#e3541" /><circle cx="120.9563846557455" cy="269.3456047253448" r="20" fill="#3d8392" stroke="#3d8392" /><circle cx="432.27752727707485" cy="355.44764766045733" r="20" fill="#4db357" stroke="#4db357" /><circle cx="26.769136909707612" cy="432.71568641207716" r="20" fill="#59775e" stroke="#59775e" /><circle cx="575.7264026628332" cy="416.2678237614414" r="20" fill="#280f04" stroke="#280f04" /><circle cx="287.98489508577177" cy="149.48689145569216" r="20" fill="#29e8c" stroke="#29e8c" /><circle cx="99.49540289634449" cy="295.53568247314723" r="20" fill="#faceb9" stroke="#faceb9" /><circle cx="4.085157042881482" cy="30.982741577774853" r="20" fill="#d413d0" stroke="#d413d0" /><circle cx="565.9990065633116" cy="8.944679940830813" r="20" fill="#63c81c" stroke="#63c81c" /><circle cx="500.13697959220434" cy="351.5796179334735" r="20" fill="#ae6632" stroke="#ae6632" /><circle cx="302.9791439622734" cy="388.97876114182253" r="20" fill="#9dae0f" stroke="#9dae0f" /><circle cx="495.3788464407786" cy="517.3861216430089" r="20" fill="#389f63" stroke="#389f63" /><circle cx="585.6569202718911" cy="5.951704708397321" r="20" fill="#1cc8c8" stroke="#1cc8c8" /><circle cx="39.48638495379626" cy="78.78261732404081" r="20" fill="#c3c4ff" stroke="#c3c4ff" /><circle cx="588.0034468793066" cy="140.06256691673653" r="20" fill="#233e9c" stroke="#233e9c" /><circle cx="295.7012842323533" cy="281.55282797232894" r="20" fill="#302ee5" stroke="#302ee5" /><circle cx="197.24674147459908" cy="19.700776149169428" r="20" fill="#59ae86" stroke="#59ae86" /><circle cx="300.04374390745113" cy="430.25342769673443" r="20" fill="#e163e2" stroke="#e163e2" /><circle cx="340.97130380333857" cy="596.5211806248238" r="20" fill="#e5d121" stroke="#e5d121" /><circle cx="448.92128888304217" cy="448.4786319308105" r="20" fill="#c7e37d" stroke="#c7e37d" /><circle cx="520.2044318535507" cy="163.70319751133113" r="20" fill="#70f1e5" stroke="#70f1e5" /><circle cx="80.85878319864621" cy="547.8980606653786" r="20" fill="#2303c8" stroke="#2303c8" /><circle cx="375.9478308910359" cy="137.2122586390775" r="20" fill="#b2c427" stroke="#b2c427" /><circle cx="122.43019848723988" cy="123.23063652021355" r="20" fill="#374ee6" stroke="#374ee6" /><circle cx="17.239236020932758" cy="531.6302733382224" r="20" fill="#37a820" stroke="#37a820" /><circle cx="112.89631729331676" cy="200.38925481259687" r="20" fill="#e75fb1" stroke="#e75fb1" /><circle cx="137.41028927319886" cy="541.850221366817" r="20" fill="#9ded8a" stroke="#9ded8a" /><circle cx="544.974977990889" cy="291.55282558359306" r="20" fill="#bd92cd" stroke="#bd92cd" /><circle cx="370.45228408826773" cy="87.64606819678153" r="20" fill="#e700d4" stroke="#e700d4" /><circle cx="512.7503877303935" cy="191.45037107692215" r="20" fill="#fe4b76" stroke="#fe4b76" /><circle cx="291.8801839579005" cy="590.5307955205124" r="20" fill="#9193b7" stroke="#9193b7" /><circle cx="262.41738482418253" cy="339.0683596778029" r="20" fill="#a0cb93" stroke="#a0cb93" /><circle cx="485.92493517939477" cy="169.31465122132815" r="20" fill="#6c1ada" stroke="#6c1ada" /><circle cx="262.9349355652962" cy="307.51516516439665" r="20" fill="#938df0" stroke="#938df0" /><circle cx="521.4810503138908" cy="299.34893816048304" r="20" fill="#df6bcf" stroke="#df6bcf" /><circle cx="297.4976577096678" cy="483.57956972813935" r="20" fill="#41bbee" stroke="#41bbee" /><circle cx="72.50061694140331" cy="254.36778186975775" r="20" fill="#168cb3" stroke="#168cb3" /><circle cx="174.18141057770677" cy="594.3665882479122" r="20" fill="#9a22e4" stroke="#9a22e4" /><circle cx="137.18118755182095" cy="26.77666404823489" r="20" fill="#3805f4" stroke="#3805f4" /><circle cx="507.59001382638" cy="539.3616699128221" r="20" fill="#a210a5" stroke="#a210a5" /><circle cx="97.48489961523639" cy="371.4539921702107" r="20" fill="#425d3b" stroke="#425d3b" /><circle cx="457.3690583289669" cy="62.38348965143348" r="20" fill="#2e67b6" stroke="#2e67b6" /><circle cx="532.9517932637576" cy="93.81790260447906" r="20" fill="#de147e" stroke="#de147e" /><circle cx="535.3565431921724" cy="139.87365207137836" r="20" fill="#114dd5" stroke="#114dd5" /><circle cx="335.8210031979052" cy="236.5057530786498" r="20" fill="#363b52" stroke="#363b52" /><circle cx="195.14618967856057" cy="329.6789281946603" r="20" fill="#443132" stroke="#443132" /><circle cx="559.7319284288994" cy="594.0382004368333" r="20" fill="#ee9e73" stroke="#ee9e73" /><circle cx="52.16071406229874" cy="106.49425352736279" r="20" fill="#404daf" stroke="#404daf" /><circle cx="510.92506041210555" cy="83.6892958368817" r="20" fill="#de43b7" stroke="#de43b7" /><circle cx="288.5592359268148" cy="499.81796068022186" r="20" fill="#172f24" stroke="#172f24" /><circle cx="217.0140158378203" cy="360.99698583148637" r="20" fill="#108541" stroke="#108541" /><circle cx="366.3987816698458" cy="489.2888585474666" r="20" fill="#7ac777" stroke="#7ac777" /><circle cx="233.74691115874046" cy="190.6746054740148" r="20" fill="#e9a514" stroke="#e9a514" /><circle cx="177.43455850677162" cy="424.42952771770774" r="20" fill="#b65a8e" stroke="#b65a8e" /><circle cx="450.8450222545588" cy="92.04214324959312" r="20" fill="#286971" stroke="#286971" /><circle cx="510.13945157422165" cy="64.75029093638538" r="20" fill="#67abe1" stroke="#67abe1" /><circle cx="161.57640086941916" cy="444.16660381547047" r="20" fill="#b3dd91" stroke="#b3dd91" /><circle cx="480.4054816769097" cy="494.3372731918748" r="20" fill="#fbb3f1" stroke="#fbb3f1" /><circle cx="545.778286975953" cy="135.24588449339765" r="20" fill="#3a4952" stroke="#3a4952" /><circle cx="354.1566607861762" cy="547.9360982873055" r="20" fill="#d2b8e2" stroke="#d2b8e2" /><circle cx="238.76455686884822" cy="62.42672649053836" r="20" fill="#864987" stroke="#864987" /><circle cx="96.13939404845925" cy="531.9204163197481" r="20" fill="#75f4e7" stroke="#75f4e7" /><circle cx="79.15855708895916" cy="51.573309883006324" r="20" fill="#2a0612" stroke="#2a0612" /><circle cx="248.79895252353995" cy="470.0227565089594" r="20" fill="#61ede" stroke="#61ede" /><circle cx="516.1232807186234" cy="97.95015938165155" r="20" fill="#299d59" stroke="#299d59" /><circle cx="442.80595890327896" cy="274.59138450211384" r="20" fill="#fa92ec" stroke="#fa92ec" /><circle cx="536.6413042765154" cy="112.87246801089181" r="20" fill="#2f9368" stroke="#2f9368" /><circle cx="22.28021484614162" cy="58.419353579323776" r="20" fill="#3b9101" stroke="#3b9101" /><circle cx="506.7966171146851" cy="260.01282339991127" r="20" fill="#2c0e85" stroke="#2c0e85" /><circle cx="519.4113611713204" cy="599.1885231390667" r="20" fill="#29b8ac" stroke="#29b8ac" /><circle cx="301.22396526738964" cy="157.44609734452607" r="20" fill="#3d8edb" stroke="#3d8edb" /><circle cx="227.00066291691408" cy="248.33442591925993" r="20" fill="#cb5406" stroke="#cb5406" /><circle cx="510.26646603115944" cy="392.0655219408178" r="20" fill="#6c1884" stroke="#6c1884" /><circle cx="341.4581894702625" cy="536.0917615770893" r="20" fill="#bdbd41" stroke="#bdbd41" /><circle cx="489.6952881458802" cy="485.3661886313231" r="20" fill="#5728a9" stroke="#5728a9" /><circle cx="449.60684103778004" cy="192.66898238203441" r="20" fill="#4dc9d6" stroke="#4dc9d6" /><circle cx="323.587695791105" cy="40.30285667268343" r="20" fill="#c2302d" stroke="#c2302d" /><circle cx="592.6999404519057" cy="220.26511179663916" r="20" fill="#28d6ac" stroke="#28d6ac" /><circle cx="308.89258111552" cy="560.6302571718605" r="20" fill="#b0f69c" stroke="#b0f69c" /><circle cx="219.25897891022882" cy="458.42946748112" r="20" fill="#1d7d9e" stroke="#1d7d9e" /><circle cx="340.77795645517136" cy="33.98469361231666" r="20" fill="#2aa141" stroke="#2aa141" /><circle cx="7.111739241452009" cy="374.5582621140829" r="20" fill="#54a983" stroke="#54a983" /><circle cx="192.84328524572888" cy="339.2499804750302" r="20" fill="#e68b1d" stroke="#e68b1d" /><circle cx="536.6801165587187" cy="547.2906688130688" r="20" fill="#9b64fc" stroke="#9b64fc" /><circle cx="483.7853476828212" cy="252.08320555719803" r="20" fill="#21f385" stroke="#21f385" /><circle cx="43.30542192124014" cy="112.71577180456514" r="20" fill="#2a903c" stroke="#2a903c" /><circle cx="13.869876129559167" cy="495.42332091541846" r="20" fill="#22a1a1" stroke="#22a1a1" /><circle cx="25.72964955808601" cy="226.3944191614343" r="20" fill="#338dc2" stroke="#338dc2" /><circle cx="224.2226679666645" cy="531.4273675961351" r="20" fill="#9b0faf" stroke="#9b0faf" /><circle cx="340.95599703714123" cy="551.073709074505" r="20" fill="#c3c3d9" stroke="#c3c3d9" /><circle cx="183.0538465064948" cy="272.0308011471438" r="20" fill="#805251" stroke="#805251" /><circle cx="273.57019792503576" cy="26.700452088705795" r="20" fill="#4c24cb" stroke="#4c24cb" /><circle cx="491.33803599308476" cy="519.4482185209162" r="20" fill="#805681" stroke="#805681" /><circle cx="225.3172424456443" cy="20.329000995953137" r="20" fill="#93f410" stroke="#93f410" /><circle cx="245.64285843444048" cy="154.9132239182179" r="20" fill="#827665" stroke="#827665" /><circle cx="416.75503359393207" cy="34.24241990021044" r="20" fill="#60fab0" stroke="#60fab0" /><circle cx="215.1490450643137" cy="134.63148323845076" r="20" fill="#ae70b9" stroke="#ae70b9" /><circle cx="179.23617535016393" cy="372.89041516311926" r="20" fill="#4b50c6" stroke="#4b50c6" /><circle cx="159.00307281536595" cy="70.57019315067254" r="20" fill="#f33a54" stroke="#f33a54" /><circle cx="465.2033385254183" cy="46.8007666180696" r="20" fill="#12db41" stroke="#12db41" /><circle cx="277.02700444728765" cy="52.19178275901912" r="20" fill="#479745" stroke="#479745" /><circle cx="74.12396666592636" cy="468.8102318317133" r="20" fill="#3652f" stroke="#3652f" /><circle cx="442.05059102487223" cy="371.66110981155344" r="20" fill="#38e01b" stroke="#38e01b" /><circle cx="267.22622667933643" cy="31.125650245182968" r="20" fill="#83c50b" stroke="#83c50b" /><circle cx="197.72010641197264" cy="488.7386201156705" r="20" fill="#ed8414" stroke="#ed8414" /><circle cx="572.6851365675743" cy="199.40911886653097" r="20" fill="#2d50da" stroke="#2d50da" /><circle cx="110.73085517402052" cy="543.1881429673033" r="20" fill="#f822f4" stroke="#f822f4" /><circle cx="114.14394742659849" cy="504.4359816985366" r="20" fill="#9b749" stroke="#9b749" /><circle cx="446.88136756380305" cy="189.08942835836388" r="20" fill="#3b527c" stroke="#3b527c" /><circle cx="450.7254350543744" cy="404.8850609189433" r="20" fill="#9e78b1" stroke="#9e78b1" /><circle cx="517.5863807527751" cy="295.2935092100439" r="20" fill="#df7039" stroke="#df7039" /><circle cx="591.527848836688" cy="589.9138344233718" r="20" fill="#b4f747" stroke="#b4f747" /><circle cx="495.1050572651517" cy="251.19415691343386" r="20" fill="#53434e" stroke="#53434e" /><circle cx="430.4981683120576" cy="407.0965893532216" r="20" fill="#c0dd2e" stroke="#c0dd2e" /><circle cx="174.74241119289195" cy="329.75954223518147" r="20" fill="#4d0236" stroke="#4d0236" /><circle cx="536.3103829000179" cy="275.4539697359493" r="20" fill="#ee1fa" stroke="#ee1fa" /><circle cx="62.76471086486595" cy="41.966541607663466" r="20" fill="#4d0558" stroke="#4d0558" /><circle cx="37.96571075844235" cy="180.01548539608385" r="20" fill="#bc1e07" stroke="#bc1e07" /><circle cx="311.8673365978118" cy="356.488257386912" r="20" fill="#e7a1de" stroke="#e7a1de" /><circle cx="83.90227314596181" cy="369.7322768462542" r="20" fill="#6f8864" stroke="#6f8864" /><circle cx="592.1631922959069" cy="199.5086988493839" r="20" fill="#f4afe4" stroke="#f4afe4" /><circle cx="332.0261006573872" cy="29.653016603024305" r="20" fill="#cbc014" stroke="#cbc014" /><circle cx="158.44745903585684" cy="344.7274335422853" r="20" fill="#677aa9" stroke="#677aa9" /><circle cx="530.3359817001459" cy="49.30854367149018" r="20" fill="#213465" stroke="#213465" /><circle cx="159.0321949852212" cy="312.11740947529887" r="20" fill="#21a701" stroke="#21a701" /><circle cx="212.89082484602037" cy="165.9269407400067" r="20" fill="#52f155" stroke="#52f155" /><circle cx="308.6530934459288" cy="137.395370839066" r="20" fill="#c93c23" stroke="#c93c23" /><circle cx="404.17891624169823" cy="98.18142148323136" r="20" fill="#36fcc2" stroke="#36fcc2" /><circle cx="160.0991828631635" cy="400.5668414230341" r="20" fill="#c01661" stroke="#c01661" /><circle cx="116.94404823083553" cy="410.59365224199723" r="20" fill="#b723cf" stroke="#b723cf" /><circle cx="426.2608279896036" cy="568.6860375889856" r="20" fill="#1733be" stroke="#1733be" /><circle cx="575.0429664140233" cy="432.2054147285968" r="20" fill="#87e380" stroke="#87e380" /><circle cx="336.8689909194496" cy="206.37615211912612" r="20" fill="#5e96d6" stroke="#5e96d6" /><circle cx="9.213091380540606" cy="280.3562399893584" r="20" fill="#3593f7" stroke="#3593f7" /><circle cx="456.487655873706" cy="458.53030606263997" r="20" fill="#356790" stroke="#356790" /><circle cx="577.8493501950663" cy="210.97954571861877" r="20" fill="#d3d319" stroke="#d3d319" /><circle cx="581.2251508226141" cy="152.10985927745847" r="20" fill="#cbffa8" stroke="#cbffa8" /><circle cx="147.5083382782708" cy="500.87828378646896" r="20" fill="#724b12" stroke="#724b12" /><circle cx="124.09773415681072" cy="308.1078715998868" r="20" fill="#f73c8a" stroke="#f73c8a" /><circle cx="83.3330346644285" cy="282.62948492536583" r="20" fill="#4e5ec3" stroke="#4e5ec3" /><circle cx="481.6113296735244" cy="482.9926395464709" r="20" fill="#967693" stroke="#967693" /><circle cx="24.8019695817812" cy="60.84643079172909" r="20" fill="#34f352" stroke="#34f352" /><circle cx="356.9938605677586" cy="322.2883143204722" r="20" fill="#ca1bd1" stroke="#ca1bd1" /><circle cx="491.8890138323663" cy="357.2312704729032" r="20" fill="#30d0bd" stroke="#30d0bd" /><circle cx="47.42544838127984" cy="5.370958743121834" r="20" fill="#7f64cd" stroke="#7f64cd" /><circle cx="240.96904509381872" cy="402.0782750079682" r="20" fill="#eff373" stroke="#eff373" /><circle cx="288.7470721345034" cy="62.271689187082345" r="20" fill="#ee6734" stroke="#ee6734" /><circle cx="244.78660871338542" cy="63.727467922094895" r="20" fill="#c8511c" stroke="#c8511c" /><circle cx="95.0447882522738" cy="547.6968409229113" r="20" fill="#d471a3" stroke="#d471a3" /><circle cx="58.110067408334444" cy="212.1779226059629" r="20" fill="#6179da" stroke="#6179da" /><circle cx="589.813254587629" cy="93.64401886641906" r="20" fill="#1966d7" stroke="#1966d7" />
  </svg>
